<?xml version="1.0" encoding="UTF-8"?>
<svg id="_Слой_1" data-name="Слой 1" xmlns="http://www.w3.org/2000/svg" viewBox="0 0 49.77 62.05">
  <defs>
    <style>
      .cls-1 {
        fill: #39180e;
        fill-rule: evenodd;
        stroke-width: 0px;
      }
    </style>
  </defs>
  <g>
    <path class="cls-1" d="m13.21,19.52s0,.03,0,.04c0,.09,0,.18,0,.27,0,.08.04.17.12.21,2.17,1.04,4.41,1.68,6.71,2.1-.37.11-.66.38-.73.86-.02.16.22.24.25.07.22-1.22,1.94-.54,2.4.12.41.59-.03,1.14-.54,1.42-.32.18-.7.24-1.05.16-.25-.06-.38-.24-.47-.48-.17-.48.46-.43.66-.42.11,0,.17-.17.06-.22-1.01-.45-1.43.8-.58,1.36.68.45,1.95-.04,2.3-.79.28.77,1,1.22,1.85,1.12.8-.09,1.15-.81.74-1.52-.15-.25-.39-.45-.68-.48-.28-.03-.59.33-.5.61.02.06.09.1.15.06.13-.09.17-.31.35-.31.17,0,.32.22.4.35.33.57-.12.91-.65.94-.75.05-1.26-.45-1.43-1.18-.13-.6.12-1.17.77-.83.17.09.31-.16.15-.26-.59-.36-1.03-.12-1.2.37-.17-.3-.45-.55-.78-.73.61.08,1.21.16,1.83.22.95.09,1.95.2,2.94.23-.19.07-.36.16-.51.28-.13.1,0,.33.13.23.48-.34,1.14-.41,1.71-.3.77.14,1.11.92.56,1.56-.36.42-1.01.41-1.49.27-.18-.05-.36-.13-.49-.27-.14-.16.29-.33.37-.39.08-.05.05-.2-.05-.19-.58.04-.93.55-.4.96.55.43,1.48.42,2.06.06.66-.41.84-1.55.17-2.03-.13-.09-.28-.16-.43-.21.23-.02.47-.05.7-.09.21-.03.41-.08.61-.13-.1.16-.16.36-.17.59-.02.81.51,1.55,1.33,1.57.63.01,2.28-.71,1.64-1.6-.37-.51-1.4-.66-1.61.08-.05.17-.02.37.06.52.06.12.2.05.22-.06.03-.25-.01-.52.27-.61.22-.07.48.02.66.15.74.5-.78,1.12-1.12,1.16-.62.07-1.03-.44-1.1-1.03-.04-.39.09-.99.55-.62.15.12.36-.09.21-.22-.07-.06-.13-.1-.2-.14.72-.23,1.43-.52,2.14-.78-.05.11.08.23.19.14,1.13-1.02,3.47.71,1.94,1.82-.39.29-1.5.44-1.72-.17-.14-.4.35-.85.67-.95.49-.16.8.15.96.58.06.15.26.13.27-.04.03-.48-.4-.84-.83-.9-.57-.07-1.01.23-1.29.73-.6,1.09.86,1.43,1.6,1.26.95-.22,1.56-1.39.88-2.22-.32-.39-.79-.65-1.28-.73.36-.1.72-.19,1.09-.24.13.68.81,1.13,1.6,1,.9-.15,1.61-1.53,1.07-2.35-.36-.56-1.18-.26-1.57.1-.64.6.1,1.2.74,1.15.13-.01.15-.18.03-.23-.34-.15-.96-.27-.5-.7.24-.22.75-.42,1.01-.14.19.21.1.64.04.88-.1.46-.39.81-.83.95-.83.25-1.46-.49-1.28-1.3.19-.04.35-.13.46-.32.21-.35-.02-.8-.23-1.08-.24-.32-.58-.62-.98-.65-.43-.03-.76.56-.57.93.04.08.15.07.2,0,.13-.2.07-.61.39-.59.27.02.52.29.68.49.13.16.33.48.24.71-.15.35-.85.23-1.12.19-.04,0-.08,0-.1.03-.45-.17-.9-.25-1.4-.27.36-.27.46-.78.25-1.21-.17-.36-.56-.52-.94-.54.05-.05.1-.1.15-.15,1.29.26,2.9-.33,3.86-1.18.12-.1.02-.29-.12-.3-.99-.03-1.95.1-2.8.48.9-.91,1.64-1.98,1.93-3.2.03-.12-.08-.25-.21-.21-1.3.39-2.77,1.61-3.61,3.04.08-1.67.08-3.36.16-5.03.2-.18.4-.37.58-.59.11-.14-.07-.34-.2-.21-.11.12-.23.23-.35.34.02-.36.05-.72.08-1.08,0-.06-.1-.08-.11-.01-.06.42-.13.85-.19,1.28-2.14,1.72-5.2,1.56-7.8,1.44-1.24-.06-2.47-.14-3.7-.38-.83-.16-1.59-.48-2.25-1.03-.13-.11-.23-.19-.32-.26,0-.04,0-.07-.01-.11.08.02.13-.09.08-.15-.03-.04-.07-.07-.1-.1-.02-.17-.04-.34-.05-.51,4.69,2.23,9.52,1.05,14.34-.21.18-.05.23-.28.1-.41-.5-.52-.96-.86-1.53-1.06.6-.32,1.1-.78,1.38-1.4.06-.13-.01-.25-.15-.26-1.29-.16-2.47.09-3.56.7.07-.08.15-.15.23-.23.67-.74,1.17-1.62.94-2.66-.27-1.2-1.9-.04-2.47.83-.1-.34-.27-.68-.49-.94,0,0,0,0,0-.01.37-1,.91-3.18-.05-4.05-1.09-.99-3.09.68-3.5,2.13-.73-1.13-2.16-2.22-2.93-.75-.7,1.33-.28,2.8.53,4.13-.8-.57-1.71-.95-2.57-.91-.08,0-.16.07-.16.16.11,1.81,1.34,2.49,2.74,2.92-1.12.26-2.04.77-3.05,1.48-.02.02-.04.04-.05.06-.06.02-.12.06-.12.16-.13,2.31.05,4.81.34,7.22-.17-.33-.53-.55-.93-.57-.81-.04-1.46.63-1.39,1.46.05.52.34.95.74,1.22-.44.13-.91.22-1.4.27-.02-.02-.04-.03-.08-.03-.49.04-1.04-.12-1.35-.53-.42-.56.33-.99.78-1.09.36-.08.87.07.88.52.02.49-.66.32-.92.29-.14-.02-.19.21-.07.27.45.24,1.23.17,1.3-.47.07-.6-.5-.94-1-.94-.65-.01-1.54.5-1.39,1.28.12.6.75.89,1.32.95ZM30.62,6.99c-.38.64-.92,1-1.54,1.19-.12-.02-.25-.04-.39-.05-.12-.01-.19.08-.2.18-.6.09-1.25.09-1.85.08.58-.05,1.2-.28,1.71-.42.2-.05.11-.35-.08-.31-.38.08-.75.16-1.13.24-.03,0-.06.01-.08.01,1.14-.64,2.21-1.03,3.56-.92Zm-4.97-1.04c.01.31.44.32.48.05.04-.01.07-.02.1-.05.32-.3.56-.69.89-.99.1-.1.76-.7.9-.35.17.42-.08.98-.28,1.34-.44.79-1.23,1.41-1.88,2.01-.23.21-.57.47-.83.77-.18-.63-.45-1.24-.64-1.86.36-.63.67-1.3.94-1.97.21.3.3.71.32,1.06Zm-1.41.29c-.07-.37-.1-.75-.05-1.14.06-.46.35-.76.79-.53.02,0,.03.02.05.03-.21.56-.48,1.12-.79,1.64Zm-4.87-2.87c-.06-.74.11-2.16,1.13-1.68.73.34,1.09,1.14,1.49,1.79.14.22.48.08.42-.18.25-.61.37-1.18.8-1.75.62-.82,1.86-1.66,2.21-.15.19.83.08,1.75-.2,2.66-.29-.18-.63-.22-1.02,0-.61.35-.58,1.33-.53,1.93.03.3.08.61.15.92-.4.61-.84,1.16-1.25,1.6-1.15-1.72-3.02-2.87-3.2-5.16Zm-2.04,2.55c-.05-.14-.08-.28-.11-.42-.12-.53.42-.25.68-.19.47.11.89.39,1.28.67.68.48,1.17,1.15,1.75,1.73-.6-.49-1.38-.78-2.03-1.17-.15-.09-.29.15-.14.25.66.44,1.39.91,2.13,1.22-.16-.04-.33-.09-.5-.13,0,0-.02,0-.03,0-1.22-.31-2.52-.68-3.02-1.94Zm3.02,2.39c.05-.01.09-.04.11-.08.25.06.5.12.74.19.19.05.26-.24.08-.3-.1-.03-.2-.06-.3-.09.08,0,.14-.09.11-.17.08.07.15.15.24.22.02.02.04.02.07.02.31.33.61.62.88.87.04.04.09.06.14.06.09.13.27.2.41.05.43-.48.82-1,1.16-1.54.19.64.43,1.28.65,1.88,0,0,0,0,0,.02-.03.16.07.27.19.29.15.09.36,0,.38-.21.32-.31.6-.7.92-1,.04-.03.07-.07.11-.1-.07.07-.05.21.06.24.81.25,1.81.23,2.7-.06.49.1.87.4,1.15.92-.56.15-1.11.29-1.67.42-1.66.41-3.34.71-5.04.85-1.41.12-2.81-.06-4.19-.37-.7-.11-1.3-.44-1.79-.99.86-.61,1.91-.9,2.91-1.14Zm12.04,10.32c.23.38-.03.76-.4.87-.36.1-.82,0-1.09-.29-.07-.07-.16-.04-.2.02.02-.18.05-.37.07-.55,0,.11.04.22.11.33.06.1.2.06.21-.06.02-.31.03-.54.28-.66,0,0,0,0,.01,0,.04-.02.08-.03.13-.04.32-.07.71.09.88.38Zm2.74-2c-.87.57-1.81.66-2.81.79.82-.56,1.79-.78,2.81-.79Zm-4.29,1.32c.51-.54.91-1.27,1.37-1.82.12-.15-.08-.35-.2-.21-.28.33-.55.66-.8,1.01-.1.13-.21.27-.31.4,0-.04,0-.08.01-.13.66-1.5,2.11-2.87,3.45-3.4-.59,1.87-2.13,2.95-3.51,4.19,0-.01,0-.03,0-.04Zm-7.73-5.08c2.45.11,5.63.31,7.73-1.27,0,.06-.02.12-.03.18-.03-.05-.09-.07-.15-.02-2.05,1.72-4.66,1.59-7.16,1.55-.56-.01-1.21,0-1.9,0,0-.13-.04-.26-.05-.4,0-.05-.03-.09-.07-.11.59.04,1.15.06,1.63.08Zm-2-.1c.09,0,.17.01.26.02-.05.02-.08.05-.08.11.01.14.04.27.09.39-.08,0-.16,0-.23,0-.04-.15-.06-.28-.02-.44,0-.03,0-.06-.01-.08Zm-.23-.02s-.02.01-.02.03c-.05.17-.05.34-.01.5-.06,0-.11,0-.17,0,0-.18,0-.36,0-.54.07,0,.14.01.21.02Zm-.42-.04s0,0,0,.01c0,.18,0,.36,0,.54-.08,0-.17,0-.25-.02.02-.17,0-.36,0-.52,0-.02-.01-.03-.02-.05.1.01.19.02.29.03Zm-.53-.06s-.03.04-.03.08c0,.15-.02.32,0,.49-.09-.01-.18-.02-.27-.03-.02-.12-.04-.25-.04-.36,0-.19-.28-.19-.28,0,0,.09,0,.2,0,.3-.06-.01-.11-.02-.17-.03.02-.18-.02-.37-.03-.54,0-.07-.05-.1-.1-.1.3.08.61.15.92.2Zm-.92-.2s-.1.03-.1.1c0,.15-.03.32-.03.48-.09-.02-.18-.04-.27-.07.01-.17-.02-.35-.03-.5,0-.13-.19-.13-.19,0,0,.12-.03.27-.03.42-.05-.02-.11-.03-.17-.06,0-.23-.07-.5-.14-.72.3.14.62.26.95.35Zm-1.01.67s.07.04.1,0c.39.15.81.25,1.25.31.02.06.06.11.11.16.05.04.13.03.15-.04,0-.03,0-.05,0-.08.12.01.24.02.36.03.03.03.07.03.1,0,.29.02.58.04.86.04.03.03.06.04.1.05.04,0,.07-.02.1-.04.52.01,1.02,0,1.43.01,2.58.03,6.29.56,8.22-1.65-.16,1.06-.32,2.13-.42,3.21-.02-.01-.05-.03-.07-.04-.05-.03-.11-.03-.15,0-.76.48-1.43,1.96-2.48.87-.4-.42-1.04.39-1.26.58-1.05.93-1.3.32-2.32-.1-.61-.25-1.58,2.12-2.11.11-.65-2.47-2.22,1.22-2.89-.17-.62-1.31-1.14-1.86-1.74-.91-.08-.99-.19-1.99-.31-2.98.27.25.59.45.95.6,0,.01.01.03.02.04Zm-.22-1.15c.04.21.08.43.1.64,0,.03,0,.05,0,.08-.05-.03-.11-.04-.15-.07,0-.08,0-.17-.02-.27-.02-.14-.02-.28-.03-.42.03.02.06.03.09.05Zm-.37-.24c-.01.17-.04.43-.02.65-.15-.11-.29-.23-.42-.37-.03-.26-.06-.52-.09-.78.15.19.33.35.52.5Zm-2.01,5.02c.45-.16.96-.02,1.09.49.03.12.02.32-.09.4-.12.08-.34-.1-.46-.13-.1-.03-.18.08-.13.17.25.47.87.37.99-.11.03.27.07.53.11.8-.46.19-.89.36-1.33.51-.86-.39-1.28-1.74-.17-2.14Zm-.36,2.84c.68-.14,1.31-.46,1.92-.8.04.27.08.55.12.82.02.15.22.09.24-.03.14-1.17.14-2.39.06-3.63,1.1-2.08,1.25,2.29,2.68,1.42.24-.15.42-.53.54-.77.7-1.3,1.22.55,1.34.82.25.56,1.08.34,1.44.13.75-.46,1.25-.07,2.1.3.49.21.76-.39.92-.69,1.06-2.05,1.15.09,2.18.09.65,0,1.63-1.87,1.74-1.82,0,0,.01,0,.02,0-.09.97-.12,1.94-.07,2.89-.02.18-.03.36-.02.54,0,.06.03.09.07.11.02.26.04.51.08.77.02.13.23.13.25,0,.02-.13.03-.26.05-.38,0,.02.01.03.03.05.23.27.57.41.91.44,0,.09.06.17.17.18.41.05,3.02.18,1.24.81-.97.34-1.86.8-2.85,1.06-2.56.69-5.14.43-7.74.17-2.81-.28-5.52-.91-8.12-2.05-1.26-.56.06-.3.7-.43Z"/>
    <path class="cls-1" d="m17.72,19.66c.23-.29.63-.63.96-.29.13.13.18.32.19.5,0,0,0,.01,0,.02-.32-.1-.64-.21-.96-.33-.1-.04-.17.13-.07.18.33.15.66.29,1,.43-.02.11-.04.21,0,.31.02.06.08.09.13.06.09-.05.14-.15.17-.26,3.4,1.25,7.29,1.33,10.45-.61.14-.09.02-.29-.12-.22-.55.26-1.1.46-1.64.64.01-.01.02-.03.03-.04.09-.22.23-.37.47-.4.2-.02.38.08.57,0,.05-.02.06-.09.03-.13-.14-.24-.52-.22-.75-.17-.3.07-.48.34-.57.62-.03.09.02.15.09.16-.1.03-.2.07-.3.1,0-.44-.56-.64-.91-.59-.44.06-.78.54-.85.95,0,0,0,0,0,0-.04,0-.07.01-.11.02.01-.37-.43-.7-.76-.71-.38-.01-.6.36-.68.69-.01.06,0,.09.04.12-.08,0-.15,0-.23,0,.02,0,.04-.02.05-.04.12-.21-.05-.46-.18-.63-.14-.18-.37-.26-.58-.27-.47-.01-.75.42-.82.84-.05,0-.09,0-.14-.01.01-.01.02-.02.03-.04.13-.38-.26-.87-.62-.94-.43-.08-.72.31-.83.69,0,.02,0,.04,0,.06-.05,0-.1-.02-.15-.03.06-.38-.26-.8-.6-.9-.34-.1-.67.06-.87.33-.02-.26-.13-.5-.33-.67-.47-.42-1.02-.04-1.33.37-.09.12.11.28.21.16Zm8.76.3c.32-.1.45.16.66.33-.41.11-.83.2-1.24.26.11-.27.29-.5.58-.59Zm-2.18.7c.07-.23.23-.49.5-.44.23.04.31.27.45.43-.33.03-.66.05-.99.06.02-.01.03-.02.04-.05Zm-1.08-.57c.15.02.27.12.35.25.09.13.09.28.21.38-.39,0-.79-.03-1.18-.06.06-.31.27-.61.61-.56Zm-2.19.3c.08-.24.26-.53.55-.46.31.08.29.44.42.65-.33-.04-.67-.1-1-.17,0-.01.02-.01.02-.03Zm-1.06-.64c.28.07.31.29.35.52-.33-.08-.67-.17-1.01-.27.16-.2.4-.32.66-.25Z"/>
    <path class="cls-1" d="m37.89,44.35c-.16.04-.32.05-.49.05.15.02.32,0,.49-.05Z"/>
    <path class="cls-1" d="m48.79,49.17c-1.4-1.29-3.59-1.63-5.63-1.67,1.3-.38,2.54-1.45,3.37-2.35.1-.11.03-.3-.12-.3-1.12-.02-2.12.44-3.04,1.04.73-1.28,1.11-2.79,1.05-4.25,0-.1-.1-.2-.21-.16-1.28.5-2.68,2.14-3.26,3.83-.07-4.1.24-8.01,1.39-12.2.03-.12-.03-.21-.11-.24.03-.05.06-.11.09-.16.13-.21.34-.54.28-.81-.17-.73-1-1.52-1.77-1.48-.58.02-.98.35-1.05.66-.16-.09-.33-.17-.49-.22-.41-.15-.91-.23-1.32-.05-.42.18-.4.81-.06,1.05.07.05.17-.02.17-.1-.01-.24-.21-.55.1-.66.31-.11.68-.02.98.08.29.09.65.25.82.53.21.34-.3.61-.53.74,0,0,0,.01-.02.02-.63-.19-1.26-.27-1.92-.28.12-.39.06-.8-.22-1.1-.19-.2-.58-.33-.85-.21,0-.03,0-.05,0-.08,1.82-.45,3.91-2.39,4.26-4.14.02-.11-.05-.2-.16-.21-.97-.1-2.09.45-2.96,1.28.57-.78,1-1.74,1.12-2.59.02-.12-.1-.26-.22-.17-.55.38-1.27,1.01-1.78,1.74.24-1.66.55-3.3.54-4.99,0-.16-.25-.21-.28-.04-.36,1.98-.92,4.32-1.14,6.61-.04-.04-.1-.06-.17-.03-1.46.78-1.52,3.15-3.37.76-.27-.34-.33-.33-.68-.27-.13.02-.49.54-.36.39-.56.66-1.35,2.72-2.86.46-.46-.69-1.08-.83-1.73-.16-1.07,1.11-2.52,1.57-3.33-.01-.15-.3-.52-.58-.86-.58s-.66.11-.9.36c-.35.36-.65.75-.97,1.15-.67.83-1.14.64-1.46.18.03,0,.06-.03.07-.06.15-.67.14-1.4.22-2.08.02-.19-.26-.19-.29,0-.08.61-.22,1.29-.14,1.91-.12-.22-.21-.46-.28-.68.02-.01.04-.03.05-.06.07-.28.02-.6.02-.89,0-.34.02-.67.01-1.01,0-.03-.01-.05-.03-.07.21.17.43.39.69.68.62.71,1.16.68,1.94.25.87-.49,2.06-1.16,2.84-.03.27.38.45.39.86.5.67.18,1.23-.9,1.48-1.3.7-1.11,2.69.89,3.7.83,1.6-.09,1.37-2.24,3.84-.94.92.49,1.38-.26,1.82-.99.09-.15-.13-.28-.23-.14-1.03,1.5-2.67-.17-3.92.43-.35.17-.65.65-.91.93-1.56,1.71-1.75-.63-2.43-1.01-.73-.41-1.25-.29-1.83.28-.47.46-1.16,2.6-2.39.86-.16-.23-.44-.7-.73-.79-1.22-.39-3.15,1.87-4.07.54-.51-.74-1.22-.88-2.01-.64-.14.04-.48.3-.78.54h0c0-.16-.23-.16-.23,0,0,.06,0,.13,0,.2-.15.13-.27.23-.28.24-1.13.87-1.87-.7-2.49-1.19-.59-.47-1-.44-1.47-.06-.12-1.58-.34-3.15-.61-4.63.56.03,1.18-.17,1.63-.56-.19.28-.33.6-.36.93-.09.92.58,1.57,1.46,1.54.6-.02,1.27-.47,1.32-1.08.06.49.3.97.66,1.35.73.77,2.14.72,2.58-.37.32-.76-.59-1.32-1.18-1.46-.59-.14-1.4.3-.86.98.07.08.21.01.21-.09,0-.18-.12-.44.1-.53.19-.08.41-.02.6.03.37.11,1.01.47.8.96-.36.87-1.45.75-2.01.23-.66-.62-.87-1.74-.12-2.36.12-.1-.04-.33-.17-.23-.44.34-.62.79-.63,1.25-.02-.09-.04-.18-.09-.27-.31-.66-1.37.18-1.14.78.04.1.18.12.22,0,.06-.2.11-.35.25-.51.18-.2.32-.14.42.17,0,.25-.16.44-.34.57-.47.35-1.15.27-1.55-.14-.76-.79.32-2.15,1.05-2.42.13-.05.08-.26-.06-.22-.29.09-.57.25-.8.46.14-.23.24-.49.27-.79.02-.17-.23-.16-.25,0-.12.94-1.19,1.62-2.07,1.47-.01-.06-.02-.13-.03-.19-.04-.21-.38-.17-.37.05-.17-.09-.32-.22-.44-.4-.41-.58-.1-1.47.53-1.71.55-.21,1.91.56,1.16,1.11-.11.08-.05.26.09.23,1.1-.26.08-1.38-.46-1.62-.83-.36-1.74.27-1.82,1.17-.08.89.37,1.4.97,1.58.18,2.28.2,4.63.36,6.94-.13-.45-.29-.88-.47-1.31-.51-1.21-1.48-2.01-2.11-3.14-.08-.14-.25-.06-.26.07-.14,1.2.16,2.83.89,4.05-.98-.67-2.44-1.28-3.33-.64-.09.07-.11.18-.03.27.83.96,2.04,1.39,3.25,1.51-.8.24-1.55.84-1.81,1.63-.02.05,0,.11.04.15.63.61-.94-.29-1.08-.32-.5-.11-.78-.03-1.17.3-.36.3-.52.74-.46,1.11-.48.08-.99.49-1.26.98,0-.01-.01-.03-.02-.04-.11-.18-.36-.02-.27.17.05.1.09.2.13.31-.08.41.03.83.46,1.16,1.25,3.53,1.45,7.35,1.46,11.1-.06-.04-.13-.05-.2,0-.02,0-.04.02-.06.03,0-.04,0-.09-.04-.13-1.48-1.16-2.97-2.4-3.22-4.42-.13-.21-.08-.22.15-.03.23.14.45.3.66.48.39.31.72.69,1.03,1.07.65.79.95,1.72,1.43,2.6.03.05.12.03.12-.03-.11-1.03-.74-1.98-1.35-2.78-.38-.5-1.46-1.78-2.17-1.71-.06,0-.12.05-.12.12.05,2.32,1.6,3.68,3.34,4.91,0,0,0,0,0,0-.16.08-.32.17-.47.25-.71.1-1.46.06-2.16-.05-.42-.07-.82-.19-1.2-.39-.22-.11-.91-.87-.34-.94,1.07-.14,2.48.77,3.4,1.28.09.05.17-.07.11-.14-.48-.57-3.53-2.27-4.02-1.17-.32.73.71,1.32,1.2,1.51.66.25,1.43.34,2.18.31-1.03.48-2.09.86-3.24,1.05-.13.02-.2.19-.17.3.03.08.06.15.09.23,0,0,0,0-.01.01-2.76,5.85,11.1,6.03,14.04,6.53,2.69.45,5.42.67,8.15.72,0,.02,0,.04,0,.06,0,.07.01.13.02.2-.05.03-.09.1-.06.18.03.06.06.11.09.16.03.31.05.62.04.93-.03-.05-.08-.08-.15-.07-1.19.12-8.13.42-7.44,3.01.46,1.72,4.79,1.44,6.01,1.46,2.53.06,5.03.27,7.56.04.88-.08,3.36-.26,3.68-1.48.62-2.32-5.73-3-6.89-2.77-.23.04-.18.44.06.42,1.34-.12,2.6.18,3.88.56,1.25.37,3.2,1.78.84,2.44-1.78.49-3.6.48-5.43.4.03-.01.07-.02.1-.03.09-.03.11-.19,0-.21-1.17-.2-2.43-.07-3.61-.14-1.28-.08-4.15-.08-5.01-1.37.48-.53,1.45-1.05,2.02-1.22,1.4-.41,2.89-.34,4.29-.71.04-.01.07-.04.09-.06-.02.25-.04.49-.11.74-.02.08,0,.18.06.23.46.38.99.63,1.58.59.51-.03,1.09-.46,1.05-1.03-.01-.13-.14-.18-.23-.1-.32.27-.46.59-.92.64-.37.03-.74-.14-1.05-.36.1-.37.13-.75.11-1.13.16.19.36.39.58.47.11.04.2-.1.15-.2-.13-.23-.39-.4-.57-.58-.07-.08-.14-.16-.21-.24-.01-.09-.03-.18-.05-.27.1.09.2.17.31.25.17.14.35.39.57.39.05,0,.1-.04.1-.1,0-.2-.19-.34-.34-.46.03.02.06.04.09.05.2.1.48.24.7.15.07-.03.11-.12.05-.18-.18-.16-.45-.19-.67-.29-.2-.09-.39-.22-.58-.36.58,0,1.15,0,1.73-.02,0,0,0,0,0,.01-.15.43-.32,1.2-.02,1.6.06.09.16.09.22,0,.15-.2.15-.46.15-.7,0-.26.02-.52.08-.78.01-.05,0-.1,0-.14,2.85-.08,5.7-.33,8.52-.75,3.44-.51,6.83-1.54,10.25-2.2,1.64-.32,3.34-.8,4.01-2.52.07-.19-.14-.33-.29-.3.3-.18.6-.38.89-.65.1-.09.1-.28,0-.37Zm-12.18-21.69c.35-.8,1.08-1.55,1.7-2.03-.37,1.19-1.12,2.09-1.8,3.12.02-.36.06-.72.1-1.09Zm3.73-.72c-.46,1.72-2.24,2.95-3.84,3.64.22-1.72,2.12-3.65,3.84-3.64Zm-22.94,34.3c-.18-.03-.36-.06-.54-.09-.84-.18-1.02-.51-.86-.88.3.48.83.78,1.4.97Zm28.57-15.83c-1.03,1.02-2.19,1.73-3.57,1.98.16-.18.32-.36.47-.55.02-.02.05-.04.07-.05.9-.67,1.91-1.26,3.03-1.37Zm-2.54-2.88c.39-.35.67-.61.66.07-.02.84-.26,1.66-.58,2.43-.27.65-.65,1.2-1.07,1.71-.08.06-.16.12-.24.19-.01.01-.09.07-.18.16.25-.49.44-1.02.55-1.47.05-.18-.22-.26-.27-.08-.16.52-.4,1-.66,1.48-.14.25-.32.48-.5.71-.01,0-.02,0-.03,0-.54-1.81,1.12-4.1,2.32-5.19Zm.43,7.61c-1.03-.29-2.07-.84-2.74-1.71.42.06.86.07,1.27.2.73.23,1.31.75,1.47,1.51Zm-6.82-18.63c.24.21.26.56.17.85h0c-.25.01-.5.03-.77.05,0-.36-.01-.71-.02-1.06.21.04.42-.02.61.16Zm-18.35-3.76c-.07-.03-.17,0-.17.1-.01.36-.1.81-.1,1.22-.02-.03-.03-.06-.04-.08.04-.15.05-.31.06-.45.02-.29.05-.57.05-.86,0-.14-.2-.14-.21,0,0,.28-.03.56-.09.83-.02.08-.03.16-.05.23-.05-.04-.1-.08-.15-.11.02-.32-.01-.65-.02-.95,0-.15-.23-.15-.23,0,0,.27-.03.56-.02.84-.08-.02-.16-.05-.23-.05,0-.23-.01-.48-.01-.7,0-.18-.27-.18-.27,0,0,.24-.03.5-.01.75-.03.01-.06.02-.09.03,0-.05,0-.11,0-.17,0-.21-.01-.41-.02-.62,0-.02-.01-.03-.02-.05.4-.37.87-.56,1.63.03Zm-1.77.11c0,.15,0,.29-.01.44,0,.14-.03.27,0,.4-.01.01-.03.02-.04.03-.04.05-.09.1-.14.15-.01-.16-.06-.32-.09-.48-.01-.07-.02-.14-.03-.22.1-.11.2-.22.3-.32Zm-.56.58c.02.21.08.42.22.55,0,0,.02.01.03.01-.1.1-.2.2-.31.3,0-.24-.03-.5-.03-.74,0-.02-.01-.02-.01-.04.04-.03.07-.06.11-.09Zm-.36.26c0,.26,0,.55.14.75-.07.06-.14.11-.22.17.05-.25.02-.53.02-.78,0-.04-.02-.06-.04-.09.03-.01.06-.03.1-.05Zm-.73.09c.14.03.26.04.38.03,0,0,0,.01,0,.02,0,.27-.04.57.03.84,0,.03.02.05.04.06-.07.04-.13.08-.19.11.01-.22-.01-.44-.01-.65,0-.2-.3-.2-.3,0,0,.23-.03.49,0,.73-.04,0-.08.02-.13.01.01-.12,0-.24,0-.37,0-.28-.02-.55-.02-.82,0-.02-.01-.03-.02-.05.08.04.15.07.23.09Zm-.36-.17c-.06,0-.11.05-.11.13,0,.24-.02.48-.02.72,0,.13-.01.27,0,.4-.07-.04-.14-.08-.21-.15.07-.26.02-.56.1-.83.06-.21-.26-.3-.32-.09-.04.13-.07.29-.09.45-.06-.11-.11-.22-.17-.33,0-.01.02-.02.03-.04.05-.18.03-.38.03-.57,0-.21-.31-.21-.31,0,0,.04,0,.09,0,.14-.01-.02-.02-.04-.03-.06,0-.21-.02-.43-.02-.61,0-.18-.26-.18-.27,0,0,.06,0,.12,0,.19-.04-.05-.08-.11-.13-.16-.04-.04-.09-.08-.13-.11,0-.12-.01-.25-.01-.37,0-.03-.01-.05-.03-.07.59.3,1.15,1.03,1.72,1.37Zm-1.73-1.38c-.06-.04-.16-.01-.16.08,0,.1,0,.19,0,.29-.04,0-.08,0-.11,0,0-.07,0-.14,0-.21,0-.15-.23-.15-.23,0,0,.11,0,.21,0,.31-.18.12-.34.31-.48.51-.01-.3-.03-.61-.05-.91.36-.27.71-.25,1.05-.09Zm-1.42,5.23s.02.05.04.07c0,.03,0,.06.01.1,1.58,3.01,6.64,2.51,9.41,2.69.28.02.55.03.83.04.02,0,.03,0,.05,0,3.11.15,6.2.05,9.3-.42,1.41-.22,3.59-.18,4.03-1.9.05-.2-.23-.27-.29-.08-.07.22-.2.41-.38.58,0,0,0,0,0,0-.21-.23-.64-.15-.88-.02-.26.14-.35.44-.37.72-.38.13-.8.24-1.24.33.05-.19.14-.37.31-.49.25-.17.39.12.6.19.07.02.15-.04.14-.11-.02-.36-.47-.52-.77-.42-.36.12-.54.53-.6.89-.55.09-1.1.15-1.6.19.05-.43.39-.53.77-.44.16.04.61.35.64.02,0-.06-.03-.11-.08-.14-.55-.4-1.38-.34-1.6.31-.15-.17-.39-.28-.59-.28-.36,0-.59.33-.71.64-.07,0-.14,0-.19.02-.36.04-.72.06-1.08.08.05-.19.14-.38.33-.45.24-.1.39.21.56.32.1.06.19-.04.18-.14-.06-.37-.49-.58-.82-.49-.33.1-.48.46-.53.78-.54.03-1.08.04-1.62.05.09-.21.22-.4.41-.51.29-.17.46.19.67.31.1.05.19-.03.17-.14-.06-.38-.52-.6-.85-.49-.35.11-.53.5-.62.84-.03,0-.06,0-.08,0-.03-.35-.39-.61-.71-.61-.36,0-.66.29-.84.59-.06,0-.11,0-.17,0-.07-.31-.46-.55-.74-.57-.37-.03-.64.19-.8.51-.03,0-.07,0-.1,0,.02-.29-.42-.58-.66-.6-.34-.03-.54.23-.64.53-.07,0-.13,0-.2,0,.01-.02.03-.03.03-.06.03-.41-.5-.67-.84-.69-.43-.02-.79.32-.98.69-.11,0-.21,0-.32-.01,0-.29-.37-.56-.6-.64-.38-.12-.73.17-.9.49,0,.01,0,.03,0,.04-.01,0-.03,0-.04,0,.08-.39-.36-.78-.7-.83-.4-.06-.7.22-.86.57-.05-.01-.1-.02-.14-.03.11-.39-.26-.89-.57-1.05-.43-.22-.83.02-1.08.38-.03-.02-.06-.03-.08-.05.05-.1.08-.22.1-.32.03-.25,0-.49-.13-.71-.25-.48-.75-.33-1.05,0-.01.02-.01.03-.02.05-.07-.09-.15-.18-.22-.28-.01-.02-.03-.02-.04-.03,0,0,0,0,0-.01.18-1.18.24-2.42.22-3.69.53-.81.95-.62,1.32-.11,0,0,0,0,0,.01.01.03.03.05.05.07.47.69.87,1.85,1.33,1.97,1.17.31,2.88-2.87,3.56-.44.18.63.81,1.49,1.56,1.07.69-.39,2.3-2.91,3.2-1.14.21.4.51,1.17,1.05,1.28.31.06.79.23,1.11,0,.54-.38,2.02-2.51,2.69-1.56.34.49,1.54,2.12,2.24,1.22.63-.8,1.24-2.37,2.17-1.14.23.29.78,1.08,1.26,1.1,1.11.05,1.15-1.94,2.03-2.42,0,0,0,0,0,0-.07.75-.09,1.49-.06,2.22-.03.04-.03.1,0,.14.04.88.17,1.72.42,2.51.06.18.33.15.32-.04,0-.26-.01-.51-.02-.77,1.02.12,2.01.17,3.02.42.98.24-2.76,1.71-1.92,1.36-1.75.73-3.55,1.22-5.4,1.59-3.3.65-6.8.69-10.17.46-.02-.01-.04-.03-.07-.02-.03,0-.05,0-.08.01-.44-.03-.88-.07-1.31-.1-2.85-.26-5.75-.51-8.56-1.11-.62-.13-1.22-.32-1.83-.52.49.16-2.89-1.45-2.02-1.53,1.29-.13,2.48-.57,3.58-1.27.02.15.04.3.06.44Zm.61.5s.05,0,.07-.03c.23-.25.5-.31.64.06.05.15.05.31.03.46,0,.04-.02.08-.04.12-.25-.18-.49-.38-.69-.61Zm1.23.94c.21-.24.51-.35.8-.19.15.08.25.24.31.39.03.09.05.18.07.27-.42-.13-.81-.28-1.17-.48Zm1.89.66c.11-.2.29-.36.54-.32.27.05.33.29.45.49-.34-.04-.67-.1-.99-.17Zm1.58.23c.15-.2.36-.31.61-.23.15.05.22.18.29.29-.3-.02-.6-.04-.91-.07Zm1.85.1c.15-.21.36-.36.62-.38.35-.03.47.27.72.42-.43-.01-.88-.02-1.34-.04Zm1.99.06c.07-.15.18-.26.36-.22.13.03.22.15.3.25-.12,0-.24,0-.35-.02-.1,0-.21-.01-.31-.01Zm1.45.07c.12-.14.27-.23.47-.19.16.03.25.12.33.23-.27-.01-.53-.02-.8-.04Zm1.72.07c.12-.13.25-.24.42-.28.24-.06.36.13.49.3-.3,0-.61,0-.91-.01Zm4.98-.18c.1-.16.24-.28.43-.3.19-.02.29.12.4.24-.31.02-.59.04-.83.06Zm4.75-.79c.04-.15.12-.28.27-.34.13-.06.27-.03.4-.02-.19.14-.42.26-.68.37Zm-12.14,4.62c.04.12.18.16.27.07.6-.57,1.82-1.13,2.64-1.01.11.02.32.17.37.32-.02.05-.03.11-.04.16,0,0,0,0,0,0-.16.11-.33.21-.49.32-.47.29-.96.57-1.44.84-.86.47-2.08.76-2.69-.26-.64-1.06.29-1.94,1.21-2.29,1.37.09,2.76.14,4.16.13-.23.18-.42.43-.55.7-.02-.02-.03-.04-.05-.06-.64-.72-2.38.16-3.13.74-.05-.18-.1-.36-.14-.55-.03-.15-.24-.11-.25.03,0,.32.05.54.14.85Zm3.53-.32c.04-.07.06-.16.06-.24.12-.4.33-.76.59-.96.07-.05.07-.13.04-.19.86,0,1.71-.04,2.57-.1-.37.14-.62.41-.58.88.01.15.24.2.27.04.19-1.09,1.91-.71,2.55-.36,1.24.68-.24,2.74-.92,2.21-.37-.29-.77-.39-1.18-.6-.44-.24-.93-.07-1.36.17-.52.3-1.23,1.25-1.88.35-.22-.31-.26-.76-.17-1.19Zm-10.54-2.16c-.35.07-.68.44-.85.88-.14-.47-.48-.92-.86-1.16,0,0,0,0-.01,0,.57.11,1.14.2,1.72.28Zm-5.86-10.97c0-.14.29.41.39.55.37.5.79.94,1.11,1.47.54.87.76,1.86,1.01,2.84,0,0-.02,0-.02-.01,0,0,0,0,0-.01-.13-.85-.82-1.66-1.28-2.35-.08-.12-.25-.01-.18.11.21.38.43.76.65,1.14.18.32.33.67.54.97-1.48-.85-2.18-3.12-2.22-4.72Zm-.29,4.19c.11.04.22.08.33.12-.87-.18-1.71-.54-2.35-1.19,1.14-.57,2.43.83,3.47,1.14.1.12.2.24.32.34-.04,0-.08,0-.12,0,0-.02,0-.04-.02-.05,0,0-.02-.01-.02-.02-.02-.03-.05-.06-.09-.07-.17-.11-.36-.17-.56-.23-.3-.1-.59-.19-.89-.29-.16-.05-.22.2-.07.25Zm-3.81,18.02c-.1.31-.15.64-.14.91,0,.15.21.15.22,0,.03-.31.12-.58.24-.86.07-.17.17-.33.22-.51,0,0,.01,0,.02-.01.04-.03.06-.06.07-.09h0c-.09.44-.1.89-.23,1.34-.18.6-.54,1.12-1.02,1.5-.5-.7,0-1.65.61-2.27Zm-1.2,5.63c-.21-.24-.45-.46-.65-.69-.36-.42-.7-.86-1.01-1.32-.09-.13-.29-.01-.21.13.25.41.51.8.8,1.18.1.13.21.27.32.41-.08-.03-.15-.06-.23-.1-.22-.25-.46-.49-.65-.77-.36-.52-.63-1.11-.79-1.71-.04-.16-.27-.09-.24.07.14.66.4,1.24.76,1.81.02.03.04.06.06.1-.92-.67-1.46-1.59-1.1-2.87.46.84,1.19,1.43,2.03,1.88-.06.04-.09.12-.04.2.28.52.55,1.04.89,1.52.04.06.09.13.14.2-.03,0-.05-.02-.08-.03Zm1.6.45c.05,0,.09-.06.08-.11-.07-.28-.39-.49-.58-.7-.24-.27-.46-.57-.67-.87-.11-.17-.38-.01-.26.16.2.3.41.59.63.87.17.2.39.51.66.62-.23-.06-.47-.12-.7-.18-.04-.04-.09-.07-.13-.11-.22-.2-.4-.44-.57-.69-.26-.38-.46-.78-.68-1.18.47.22.96.4,1.46.55-.01.04-.01.08.02.12.29.41.58.82.91,1.21.12.14.26.3.41.44-.19-.04-.38-.08-.58-.12Zm28.68,1.32c-5.7,1.09-11.77.97-17.51.3-2.23-.26-4.49-.56-6.73-.89,0-.04,0-.08-.03-.12-.28-.33-.71-.51-1.02-.81-.14-.14-.35.08-.21.22.15.15.31.28.48.4.1.08.21.16.32.24-.17-.03-.35-.05-.52-.07.02-.03.03-.07,0-.11-.17-.23-.42-.37-.63-.55-.24-.2-.46-.42-.65-.66-.12-.14-.3.06-.2.2.19.25.41.47.64.68.15.13.32.29.5.39-.34-.05-.68-.1-1.02-.15-.26-.04-.55-.09-.87-.14-.23-.3-.58-.51-.83-.79-.27-.3-.51-.64-.75-.97.59.17,1.17.31,1.71.44,4.64,1.13,9.31,2.26,14.07,2.63,5.1.4,10.15-.12,15.15-1.18.55-.12,1.1-.24,1.65-.38,0,.08.07.14.15.1.08-.04.14-.11.2-.19.43-.11.87-.22,1.3-.34-.14.09-.28.18-.43.26-.26.15-.58.2-.81.4-.03.03-.01.08.02.09.56.2,1.3-.42,1.73-.72.07-.05.08-.13.06-.19.32-.09.63-.18.95-.27-.04.04-.08.07-.13.11-.32.24-.74.4-1.01.7-.04.05-.01.13.05.13.41-.02.79-.32,1.11-.55.23-.17.45-.37.65-.58.4-.12.8-.24,1.2-.36-.13.13-.27.27-.42.38-.29.23-.72.35-.95.63-.03.04-.03.12.03.13,0,0,.02,0,.03,0-2.42.53-4.83,1.13-7.27,1.6Zm8.53-1.87c-.26.05-.51.11-.77.17.2-.1.4-.25.56-.37.05-.04.1-.09.15-.14-.03.05-.07.1-.09.16-.02.07.05.14.11.12.32-.11.59-.42.87-.63.29-.21.57-.43.83-.68,0,0,.02,0,.02,0,.3-.1.59-.18.88-.25-.17.18-.34.37-.52.55-.34.34-.75.75-1.25.77-.06,0-.08.07-.05.12.02.02.04.03.05.05-.28.05-.55.1-.8.15Zm5.42-2.55c-.47,1.11-1.46,1.65-2.57,1.97.12-.1.24-.21.35-.3.27-.22.53-.46.79-.68.15-.13-.06-.33-.21-.21-.25.2-.49.4-.73.6-.22.18-.49.36-.65.6-.03.04-.02.08,0,.12-.23.06-.47.1-.7.15.52-.38,1.07-1.07,1.39-1.46.83-.21,1.62-.42,2.36-.83-.01.02-.03.03-.04.05Zm-1.05-.02c-.35.15-.71.26-1.08.36-.05-.04-.11-.05-.17,0-.02.02-.03.03-.05.05-.82.2-1.66.34-2.45.59-.51.16-1.02.32-1.53.47-.04-.01-.08,0-.11.03-5.2,1.57-10.52,2.61-15.95,2.79-5.88.19-11.6-1.07-17.29-2.39-1.85-.43-3.7-.82-5.42-1.67-1.16-.58-2.11-1.73-.37-2.2.63-.17,1.24-.46,1.83-.79-.54.76-.79,1.76-.14,2.45.05.05.14.07.2.03.6-.43,1.19-1.25,1.4-2.09.06,0,.12-.03.13-.11.11-.65.19-1.34.24-2.06.34.02.69.22,1.02.51,0,.05.02.1.03.15.02.09.13.1.18.04.43.43.84.99,1.24,1.49.03.16.08.32.19.45.03.04.1.02.11-.03,0-.01,0-.02,0-.04.26.31.5.57.74.73,1.06.72,2.45-.18,3.36-.71,2.5-1.45,4.01,1.99,6.23,2.32,2.21.33,3.1-3.12,5.69-1.32,1.07.75,2.15,1.43,3.38.68,1.53-.93,1.35-2.53,4.05-1.26.63.3,1.13.44,1.83.46.41.01.74-.36,1.01-.6,1.27-1.13,1.87-.26,3.07-.51,1.09-.22,1.73-.58,1.85-1.74.02-.18-.28-.22-.3-.04-.36,2.34-3.06.9-4.44,1.65-1.06.57-2.2.78-3.39.22-.28-.13-.9-.35-1.23-.27-1.84.45-2.77,2.83-5.09,1.51-.9-.51-2.07-1.78-3.24-1.01-1.11.73-2.07,2.03-3.62,1.8-.99-.15-1.87-1.26-2.61-1.89-.43-.36-.85-.58-1.28-.68-.02-.16-.07-.33-.1-.49-.05-.25-.1-.51-.15-.76-.03-.16-.27-.09-.24.07.04.25.08.51.12.76.02.12.03.24.05.37-.07,0-.14-.02-.22-.02,0-.37-.22-.74-.31-1.09-.05-.17-.3-.1-.26.07.04.19.1.37.16.55.05.16.09.33.16.48-.08,0-.17.02-.25.03,0-.13-.04-.27-.06-.4-.05-.27-.11-.55-.16-.82,0-.04-.03-.07-.05-.08,1-.48,2.02-.47,3.19.66.69.66,1.23,1.31,2.08,1.74,1.33.68,2.38-.62,3.12-1.53,1.7-2.08,3.29.25,4.49,1.03.63.41,1.33.18,1.95-.07,1.09-.43,2.1-1.89,3.39-.92.7.53,1.33.7,2.18.74.29.01.77-.25.96-.45,1.04-1.09,1.57-1.67,3.29-1.18,1.03.29,1.44-1.02,1.52-1.77.02-.16-.24-.19-.27-.04-.19.96-.61,1.17-1.12,1.16.01-.12.05-.42.14-.31.04.05.08.07.13.09.05.02.13-.03.12-.09-.02-.17-.12-.34-.3-.31-.31.06-.35.33-.35.6-.71-.1-1.54-.46-2.14.15-1.08,1.11-2.23,2.4-4.01,1.12-.45-.32-.64-.44-1.16-.5-.64-.07-1.47.7-1.92,1.02-2.28,1.6-3.29-.77-4.75-1.52-1.29-.66-2.56,1.22-3.23,1.97-1.76,1.98-4.13-1.85-5.71-2.4-1.12-.39-2.25.64-3.18,1.37-.08-.07-.22,0-.19.12,0,0,0,.01,0,.02-.13.1-.25.19-.37.26-2.74,1.73-2.95-5.31-5.26-3.64,0-.53-.02-1.06-.06-1.6.06.01.12,0,.15-.08,1.14-.51,2.03-.64,2.69-.42,0,0,0,0,0,0-.19.33-.26.73-.02,1.05.18.25.67.42.9.17.07-.07.03-.17-.05-.2-.21-.09-.41.03-.6-.17-.17-.18-.1-.52,0-.72,0-.02,0-.04,0-.06.43.21.74.59.93,1.15.18.39.47.98.77,1.27.29.28.62.68,1.05.74,2.18.27,3.58-2.72,5.94-1.67,1.2.53,1.89,2.19,3.32,2.3,1.8.13,2.74-1.26,4.09-2.25,1.87-1.36,3.21,1.94,4.99,1.82.74-.05,1.39-.84,2.04-1.6,0,0,0,0,0,0,.2.27.59.6.9.3.28-.26.22-.83-.13-.99-.08-.04-.17.02-.15.12.04.19.17.35.12.55-.08.29-.45-.05-.53-.15-.02-.02-.04-.02-.06-.03.99-1.17,1.96-2.16,3.14-.22.58.96,1.27,1.37,1.95,1.4-.89-.12-1.52-1.36-1.9-1.98-.16-.27-.45-.63-.74-.75-1.24-.5-2,.21-2.75,1.19-1.14,1.49-2.81,1.81-4.11.43-.41-.44-.87-.63-1.43-.78-1.31-.35-2.69,1.42-3.55,2.09-2.52,1.98-3.48-1.57-5.48-1.97-1.48-.3-2.59.56-3.81,1.34-3.12,2-2.82-2.52-4.75-3.17-1.18-.4-2.27-.22-2.92.89-.17-2.12-.61-4.25-1.35-6.09.72.19,1.56-.04,1.77-.85.21-.82-.64-.96-1.13-.59-.1.07-.04.27.09.22.44-.19.92-.06.63.56-.28.58-1.03.43-1.54.23-.18-.42-.39-.82-.61-1.2.27-.41.8-.82,1.12-1.14.09.26.3.47.67.52.13.02.25-.1.18-.24-.17-.3-.44-.42-.72-.42.08-.09.14-.18.15-.25.21-1.5,1.51-.46,2.19-.32.35.07.5,0,.76-.25.07-.07.05-.19-.03-.24-.79-.46,1-1.41,1.25-1.51.95-.34,1.88.03,2.15,1.06.02.06.06.09.11.1,0,.05.01.1.02.14-1.44.65-2.74,1.03-4.29,1.24-.13.02-.26.11-.25.26.02.4.35.77.83,1.1-.99.15-1.77.93-1.97,1.97-.19,1.02.57,2.05,1.55,2.17.66.08,2.09-.06,1.96-1.08-.07-.51-.38-.88-.88-.94-.4-.04-.61.38-.54.73.01.07.12.09.15.02.32-.75,1.04-.19.92.42-.06.3-.47.41-.71.47-.62.15-1.24.02-1.71-.43-1.23-1.17.24-2.96,1.51-3.16.97.57,2.32.98,2.96,1.17-.48.01-.95.12-1.35.34-.09.05-.01.18.08.14,1.06-.5,3.24-.2,3.62,1.12.29,1-.72,1.49-1.46,1.7-.39.11-.86.15-1.24-.02-.38-.17-.34-.64.02-.77.22-.08.5-.02.72.05.09.03.17-.11.1-.17-.69-.56-1.9.06-1.24.96.66.91,2.44.17,3.08-.4.13-.11.22-.24.28-.37,0,0,0,0,0,0,.23.71.65,1.33,1.43,1.22.37-.05.74-.29,1.07-.45.89-.44,1.09.18,1.63.73,1.19,1.2,2.43-.87,1.47-1.97-.64-.74-2.8-1.27-2.33.39.05.19.31.11.28-.08-.14-1.05.86-.7,1.24-.52.55.25.79.75.81,1.35-.69.74-1.17.84-1.42.3-.06-.11-.13-.22-.2-.32-.08-.12-.22-.27-.36-.33-.46-.19-.87-.04-1.3.15-.65.29-1.21.79-1.8-.08-.21-.31-.28-.65-.2-1.02.04-.31.59-1.55,1.15-.47.09.17.32.02.24-.15-.13-.29-.29-.46-.46-.54,1.43.18,2.86.28,4.28.42.52.05,1.05.1,1.58.14-.79.43-1.33,1.24-.98,2.27.47,1.39,2.12,1.22,3.13.68.62-.33,1.24-.69,1.83-1.08-.01.66.25,1.29.86,1.6.18.09.47.07.65-.03.57-.31.99-.73,1.62-.95.74-.26,1.4.85,2.06.85s1.2-.95,1.42-1.49c.26-.65-.22-1.32-.75-1.61-.23-.12-.61-.23-1.03-.28,3.8-.39,7.52-1.38,10.74-3.38.2-.12.13-.38-.06-.46-.2-.09-.4-.16-.6-.23.34-.19.66-.5.51-.93,0-.01-.01-.02-.02-.04.1.02.21.03.35.02.14,0,.19-.24.03-.27-.32.04-.46-.12-.42-.48.59-.23,1.11-.1,1.55.38.84.74,0,1.55-.28,2.23-.31.75-1.15,3.17-2.15,2.19-.29-.29-.72.13-.91.32-.19.19-.26.56-.33.8-.96.75-1.63.72-2.01-.09-.21-.32-.29-.7-.35-1.07-.03-.19-.28-.12-.3.04-.03.18-.03.36-.01.53,0,.09.1.1.14.04.06.17.12.33.21.49-.82-.53-2.58-.31-2.73,1.07-.02.14.19.18.25.07.36-.65.71-1.1,1.49-1.11.5,0,1.27.32.98.96-.38.84-1.63,1.28-2.45,1.23-1.25-.08-1.65-1.29-1.23-2.36.05-.13-.16-.22-.22-.1-.53,1.15-.22,2.34,1.03,2.73,1.08.34,2.71-.31,3.2-1.4.08-.18.1-.34.08-.49.53.6,1.26.85,1.98.11.19-.2.27-.57.34-.82.44-1.56.76-.25,1.17-.19.81.11,1.3-1.01,1.62-1.71-.62,2.01-1.06,4.25-1.25,6.51-.22.77-.56,1.47-1.04,2.12-.42.57-.81.86-1.16.97.87-.2,1.67-1,2.14-2.06-.12,2.55.11,5.08.8,7.23.05.16.32.15.31-.04-.02-.27-.03-.53-.05-.79.75.87,1.86,1.41,2.95,1.67.1.02.23-.05.22-.17-.07-.81-.47-1.4-1.14-1.81-.16-.1-.37-.2-.59-.28,1.01.07,2.02.1,3.02.25.81.12,4.03.7,1.17,1.92Zm-40.74-4.87c.02-.42.04-.85.05-1.29.37-.23.73-.17,1.07.07,0,0,0,0,0,.02-.07.49-.17,1.06-.15,1.59-.27-.22-.58-.38-.95-.38Zm1.3-.03c0-.34.02-.67.04-1.01.12.11.23.24.34.38-.07-.02-.15.01-.15.1,0,.31-.02.62-.03.92,0,.19-.02.4,0,.6-.07-.09-.15-.18-.22-.27.02-.24,0-.49.01-.73Zm.5.52c0-.35-.02-.7-.03-1.05.37.5.71,1.12,1.01,1.65-.05.03-.08.09-.06.16.09.35.16.7.24,1.05.04.19.08.4.15.6-.12-.11-.25-.23-.36-.36-.02-.16-.06-.32-.08-.47-.05-.35-.09-.71-.14-1.06-.02-.12-.21-.09-.2.03.04.35.05.71.08,1.07,0,0,0,.01,0,.02-.05-.07-.1-.13-.15-.2.04-.23.01-.46,0-.7-.02-.33-.02-.66-.03-.98,0-.19-.28-.19-.28,0,0,.38-.06.86,0,1.28-.02-.02-.03-.04-.05-.06-.06-.07-.11-.15-.17-.22.09-.23.07-.5.06-.75Zm2.26,2.97c-.11-.03-.21-.07-.31-.12.03-.01.05-.04.05-.07.03-.23-.06-.47-.12-.69-.03-.11-.05-.22-.08-.33.09.07.18.12.28.16-.01.02-.03.04-.03.07,0,.29.03.73.21,1Zm-.42-.17c-.06-.03-.12-.07-.18-.11,0,0,0,0,0,0,.02-.31-.15-.65-.22-.95-.04-.18-.08-.37-.12-.55.05.08.1.15.15.22.06.45.1,1.06.38,1.4Zm1.94-1.18c.06-.04.12-.07.18-.11.02.09.04.19.06.28.05.2.1.42.27.54.06.04.13-.02.14-.08.02-.18-.09-.36-.14-.53-.04-.11-.06-.23-.1-.35.11-.08.22-.15.32-.23.06.34.13.71.31.98-.45.23-.9.52-1.34.72-.09-.32-.21-.62-.3-.94.11-.04.23-.09.34-.14.03.28.11.58.34.73.05.03.13,0,.12-.07-.04-.28-.19-.51-.2-.8Zm1.45-.93s-.02-.02-.03-.03c.06-.04.13-.08.19-.11,0,.01,0,.03,0,.05.05.24.09.48.14.72.03.16.05.33.11.48-.07.02-.14.03-.21.05-.13.04-.26.1-.39.16-.03-.18-.1-.35-.15-.52-.05-.18-.09-.36-.13-.54.08-.05.15-.11.23-.16.03.15.06.3.09.46.04.19.03.39.1.57.04.1.16.1.19,0,.11-.35-.06-.79-.15-1.13Zm-2.01,2.25c-.05.02-.1.04-.16.05-.07-.34-.25-.66-.34-.99.07,0,.13-.02.2-.03.07.32.15.68.3.97Zm-.41.09c-.1,0-.2,0-.3,0,0-.16-.08-.3-.13-.46-.06-.19-.08-.38-.09-.58.07.01.13.02.2.02.05.33.13.72.31,1.02Z"/>
    <path class="cls-1" d="m24.56,44.1s-.03.07,0,.1c.15.17.56.07.58.39.01.32-.37-.01-.44-.09-.1-.11-.3.04-.21.16.14.19.31.38.56.39.19,0,.33-.16.38-.33.06-.2-.03-.42-.18-.55-.16-.15-.55-.27-.7-.07Z"/>
    <path class="cls-1" d="m19.18,46.47s-.08.04-.07.1c.04.2.3.37.07.56-.25.2-.37-.08-.38-.31,0-.17-.26-.18-.26,0,0,.46.31.86.77.59.17-.1.27-.28.28-.48,0-.21-.17-.48-.4-.45Z"/>
    <path class="cls-1" d="m17.34,44.29c-.16-.1-.38-.1-.53.02-.21.17-.24.46-.24.72,0,.16.23.16.24,0,.01-.24.14-.72.44-.46.05.04.08.09.11.14.02.04.04.07.06.11,0,.02,0,.03,0,.05-.09,0-.16.03-.22.12-.03.05,0,.11.05.13.17.06.52.12.52-.17,0-.25-.25-.54-.44-.66Z"/>
    <path class="cls-1" d="m10.95,45.21c-.08-.05-.16.04-.15.12.03.17.13.33.09.5-.01.07,0,.05-.02.03-.07-.09-.09-.21-.11-.32-.03-.13-.23-.1-.22.03.01.25.13.82.5.58.31-.2.18-.76-.08-.94Z"/>
    <path class="cls-1" d="m8.54,43.51c-.38-.26-.68.18-.79.51-.05.18.21.25.27.08.04-.12.19-.48.36-.32.14.13-.06.39-.06.55,0,.06.05.09.1.08.37-.07.4-.7.11-.89Z"/>
    <path class="cls-1" d="m27.1,46.41c-.05.07.02.15.09.16.11.01.3-.09.39,0,.06.06.02.19,0,.26-.02.07-.07.19-.14.22-.09.04-.19-.24-.22-.3-.07-.15-.3-.04-.26.11.06.23.21.53.48.52.23-.01.37-.24.44-.44.07-.2.06-.44-.08-.61-.18-.2-.56-.12-.7.08Z"/>
    <path class="cls-1" d="m32.61,45.16c-.08.1.09.24.17.14.06-.08.36-.4.38-.14.01.18-.14.3-.21.45-.04.09.02.2.13.17.31-.1.48-.58.3-.86-.23-.35-.61.03-.77.24Z"/>
    <path class="cls-1" d="m36.59,44.66c-.17-.02-.32.08-.5.07-.23,0,.09-.26.14-.29.14-.1.02-.33-.14-.24-.21.12-.59.46-.31.73.24.23.72.16.91-.11.05-.08-.02-.16-.09-.17Z"/>
    <path class="cls-1" d="m40.26,49.19c-1.95,2.12-4.96,1.09-7.27,2.26-.73.37-4.86.99-5.6.79-1.2-.34-1.78-.35-2.96.18-2.26,1.01-3.13-.04-5.11-.25-1.1-.12-1.73.12-2.91-.22-.41-.12-1.12-.47-1.55-.51-1.24-.11-2.71.09-3.87-.44-.54-.25-1.03-.67-1.56-.95-1.33-.7-2.71.14-3.77-1.43-.09-.13-.3-.02-.22.13.45.8.9,1.06,1.77,1.26.95.21,1.71.16,2.62.64.52.27.99.8,1.58.92.85.17,1.66.16,2.53.15,1.21-.02,2.05.67,3.18.8,1.21.14,2.27-.07,3.48.26.6.16,1.12.55,1.77.55.66,0,.89.04,1.53-.26,1.39-.65,2.83-.14,4.16-.28.95-.1,1.73-.5,2.69-.59.69-.07,1.13.08,1.81-.13,2.37-.75,6.14-.61,7.94-2.62.14-.16-.09-.4-.23-.24Z"/>
    <path class="cls-1" d="m3.32,43.83c-.07-.11-.23-.01-.17.1.32.61.83,1.36,1.43,1.71.07.04.14-.04.1-.1-.15-.28-.4-.51-.61-.74-.27-.31-.53-.62-.75-.96Z"/>
    <path class="cls-1" d="m38.5,28.17c-.58.42-1.29.94-1.64,1.59-.04.08.04.16.11.12.28-.16.5-.4.73-.63.3-.29.61-.58.94-.84.14-.11,0-.35-.14-.24Z"/>
    <path class="cls-1" d="m21.76,60.59c2.22.31,4.7.42,6.83-.43.09-.03.05-.16-.04-.14-2.31.4-4.46.48-6.79.46-.07,0-.07.1,0,.11Z"/>
    <path class="cls-1" d="m5.92,52.4c-.14-.14-.36.08-.22.22.23.24.47.46.7.7.11.11.27-.03.21-.17-.14-.32-.46-.52-.7-.76Z"/>
    <path class="cls-1" d="m15.16,46.94c.07.25.06.55.23.76.06.08.2.02.19-.08-.02-.25-.08-.51-.15-.75-.05-.18-.32-.1-.27.08Z"/>
  </g>
  <path class="cls-1" d="m7.45,22.74c-.6,0-.6.96,0,.96s.6-.96,0-.96Z"/>
  <path class="cls-1" d="m4.69,18.81c-.39,0-.39.63,0,.63s.39-.63,0-.63Z"/>
  <path class="cls-1" d="m4.01,22.27c-.07,0-.07.12,0,.12s.07-.12,0-.12Z"/>
  <path class="cls-1" d="m5.21,23.25c-.18,0-.18.29,0,.29s.18-.29,0-.29Z"/>
  <path class="cls-1" d="m2.45,23.78c-.11,0-.15.1-.12.18-.04,0-.08,0-.13,0-.29.06-.47.39-.48.67-.01.16.15.25.28.22.11-.02.17-.06.25-.14.03-.04.06-.08.09-.12,0,0,0,0,0,0,.27-.06.3-.38.16-.54.13-.05.12-.28-.04-.28Z"/>
  <path class="cls-1" d="m41.76,22.84c-.25,0-.25.39,0,.39s.25-.39,0-.39Z"/>
  <path class="cls-1" d="m40.04,22.77c-.28,0-.43.23-.43.45,0,0-.01,0-.02,0-.12.08-.12.26,0,.34.06.04.13.07.2.09.06.02.12.02.16,0,.03,0,.05.02.08.02.57,0,.57-.91,0-.91Z"/>
  <path class="cls-1" d="m40.72,20.66c-.53,0-.53.85,0,.85s.53-.85,0-.85Z"/>
  <path class="cls-1" d="m41.93,20.5c-.28,0-.28.44,0,.44s.28-.44,0-.44Z"/>
  <path class="cls-1" d="m41.41,23.6c-.34,0-.4.45-.17.61-.1.12-.16.25-.15.41.01.19.13.26.29.31.09.03.16-.07.14-.15-.03-.12-.06-.27.02-.37.05-.06.05-.14.03-.2.25-.14.2-.62-.15-.62Z"/>
  <path class="cls-1" d="m38.66,22.44c-.53,0-.53.85,0,.85s.53-.85,0-.85Z"/>
  <path class="cls-1" d="m38.14,24.07c-.5,0-.5.8,0,.8s.5-.8,0-.8Z"/>
  <path class="cls-1" d="m43.31,26.4s-.03.04,0,.04.02-.04,0-.04Z"/>
  <path class="cls-1" d="m44.86,24.29c-.22,0-.22.35,0,.35s.22-.35,0-.35Z"/>
  <path class="cls-1" d="m46.07,23.8c-.38,0-.38.61,0,.61s.38-.61,0-.61Z"/>
  <path class="cls-1" d="m46.24,27.26c-.29,0-.29.46,0,.46s.29-.46,0-.46Z"/>
  <path class="cls-1" d="m46.59,28.47c-.55,0-.55.89,0,.89s.56-.89,0-.89Z"/>
  <path class="cls-1" d="m45.38,16.51c-.16,0-.16.25,0,.25s.16-.25,0-.25Z"/>
  <path class="cls-1" d="m45.9,15c-.48,0-.48.77,0,.77s.48-.77,0-.77Z"/>
  <path class="cls-1" d="m41.59,14.62c-.51,0-.51.82,0,.82s.51-.82,0-.82Z"/>
  <path class="cls-1" d="m44.69,20.48c-.31,0-.31.5,0,.5s.31-.5,0-.5Z"/>
  <path class="cls-1" d="m49.34,19.02c-.57,0-.57.91,0,.91s.57-.91,0-.91Z"/>
  <path class="cls-1" d="m6.76,20.4c-.19,0-.19.31,0,.31s.19-.31,0-.31Z"/>
  <path class="cls-1" d="m5.73,24.93c-.54,0-.54.86,0,.86s.54-.86,0-.86Z"/>
  <path class="cls-1" d="m4.69,25.33c-.48,0-.48.76,0,.76s.48-.76,0-.76Z"/>
  <path class="cls-1" d="m1.94,19.44c-.71,0-.71,1.14,0,1.14s.71-1.14,0-1.14Z"/>
</svg>