<?xml version="1.0" encoding="UTF-8"?>
<svg id="_Слой_1" data-name="Слой 1" xmlns="http://www.w3.org/2000/svg" viewBox="0 0 50.47 61.46">
  <defs>
    <style>
      .cls-1 {
        fill: #39180e;
        fill-rule: evenodd;
        stroke-width: 0px;
      }
    </style>
  </defs>
  <path class="cls-1" d="m40.93,25.24c.05-.17-.18-.3-.3-.18-1.41,1.44-4.64.16-6.47.53-1.6.32-3.42,2.01-4.88.11-.44-.57-.68-.57-1.41-.56-.26,0-.26.39,0,.4.94.05,2.14,1.33,3.24,1.53,1.34.23,2.66-.99,3.97-1.09,1.33-.1,5.29,1.12,5.85-.75Z"/>
  <path class="cls-1" d="m23.35,26.07s.02-.04.02-.07c.54-.1,1.09-.29,1.67-.62.25-.14.03-.49-.22-.38-.79.34-1.48.46-2.12.44-.03-.02-.07-.03-.11-.01,0,0-.01,0-.02,0-.23,0-.46-.04-.68-.08.01-.05-.04-.1-.08-.08-.03.01-.06.03-.09.05-1.32-.27-2.52-.95-4.17-1.08-1.66-.13-3.12.25-4.63.94-.2.09-.06.41.15.34,1.87-.57,3.34-.78,4.95-.54-.78.28-1.42,1-1.97,1.59-.1.1.05.25.15.15.61-.56,1.45-1,1.93-1.68,0-.01,0-.03,0-.04.15.02.3.05.45.09-.76.38-1.37,1.19-1.93,1.76-.07.07-.06.16-.01.23-.04.04-.09.08-.13.12-.12.14.07.34.21.21.26-.27.55-.43.86-.51.06.11.21.17.32.06.05-.04.1-.09.14-.13.18,0,.37,0,.56.03,0,0-.01.02-.02.03-.12.16.16.37.28.22.05-.06.1-.11.15-.16.22.05.44.12.66.2-.02.02-.04.04-.06.06-.13.13.07.33.21.21.05-.05.11-.1.17-.15,1.99.75,4.11,2.04,5.24-.21.06-.12-.07-.29-.2-.2-.75.5-1.29.87-2.08.87.4-.3.78-.64,1.07-1.04.03-.05-.03-.11-.08-.08-.47.33-.86.77-1.33,1.09,0,0,0,0,0,0-.09-.01-.18-.02-.28-.04-.12-.03-.24-.07-.36-.1.38-.58.98-.95,1.41-1.5Zm-5.48.34c-.13.03-.26.06-.39.11.13-.13.25-.26.38-.39.35-.34.77-.61,1.14-.92.06.01.11.03.17.05-.49.3-.91.74-1.3,1.16Zm1.09.03c-.14-.03-.27-.06-.41-.07.37-.32.74-.64,1.08-.99.15.05.31.11.47.16-.43.2-.82.53-1.15.89Zm.93.28c-.16-.07-.32-.12-.48-.16.35-.3.73-.57,1.11-.86.17.06.34.12.51.16-.07.07-.15.14-.22.21-.26.24-.51.48-.76.73-.05-.02-.11-.05-.16-.07Zm.48.21c.19-.17.39-.35.58-.51.17-.14.36-.29.53-.45.12.03.24.04.36.06-.05.05-.1.1-.16.16-.31.31-.62.61-.92.92-.13-.06-.26-.12-.39-.18Zm1.2.52c-.13-.05-.26-.1-.39-.15.24-.24.48-.48.72-.72.16-.16.33-.32.48-.49.22,0,.43,0,.65-.02-.59.31-1.12.81-1.45,1.38Z"/>
  <path class="cls-1" d="m27.41,27.12c2.56,2.52,4.86,2.12,8.08,1.16,2.08-.63,6.1,1.84,6.9-1.08.05-.19-.22-.31-.32-.13-.36.67-1.05.9-1.86.94.04-.05.09-.1.12-.16.05-.07-.04-.16-.11-.11-.13.08-.25.18-.37.28-.32,0-.65-.03-.98-.07.23-.14.44-.29.65-.47.24-.21.59-.47.68-.79.02-.08-.06-.16-.13-.14-.29.08-.52.38-.74.57-.29.26-.61.49-.96.67-.03.02-.05.04-.07.07-.1-.01-.2-.03-.29-.04.33-.32.66-.64.98-.97.04-.05-.01-.1-.06-.08-.51.21-.91.6-1.29.99-.26-.04-.51-.08-.75-.1.25-.22.51-.43.79-.63.05-.03.04-.12-.03-.12-.49.04-.86.38-1.2.72-.05,0-.1,0-.14,0,.22-.18.43-.38.6-.6.05-.06-.03-.14-.1-.12-.49.14-.87.52-1.28.82-.63.14-1.26.39-1.86.59-2.36.77-4.18.1-6.01-1.46-.18-.15-.43.09-.26.26Z"/>
  <path class="cls-1" d="m41.14,25.46c.34-.19.62-.5.89-.78.17-.17-.1-.44-.27-.27-.27.27-.59.55-.78.89-.05.1.05.21.15.15Z"/>
  <path class="cls-1" d="m50.21,48.61c.27-.02.37-.44.08-.48-.86-.13-1.73-.21-2.59-.27,0-.02,0-.03,0-.05-.67-3.94,1.77-10.66-1.4-13.87-.67-.68-1.43-1.07-2.24-1.3.98-.5,1.78-1.26,2.48-2.14.64-.81,1.8-2.27,1.82-3.34,0-.19-.21-.3-.37-.21-1.24.67-2.41,1.5-3.44,2.46-.41.39-.93.97-1.18,1.6-.04-.05-.08-.1-.12-.15.05-2.03-.13-4.2-.39-6.17-.23-1.75-.84-3.52-2.47-4.39.53-1.22.74-2.77.17-3.91.68,1.09,1.51,2.07,2.52,2.85.19.14.4-.06.42-.24.2-1.83-.28-3.58-1.46-4.78.31.03.62.03.94-.01.23-.03.24-.32.12-.46-.56-.66-1.3-1.07-2.12-1.26.95-.46,1.65-1.4,1.54-2.64-.13-1.41-1.45-1.62-2.62-1.28.85-1.2,1.44-2.77.32-3.66-1.09-.87-2.48-.19-3.37.89.15-.89.12-1.8-.26-2.58-.09-.19-.34-.14-.44,0-.73.96-.8,2.12-.43,3.2-.1-.08-.21-.15-.34-.19-.13-.04-.26-.05-.38-.04.47-.8.62-1.86.29-2.64-.07-.16-.31-.17-.41-.05-.53.56-.84,1.19-.9,1.9-.54-1.02-1.41-1.96-2.15-2.72-.12-.12-.34-.1-.42.05-.84,1.45.26,2.82,1.36,3.83-.1,0-.2,0-.29.02-1.46-1.4-3.18-2.1-5.15-1.37-.23.09-.27.36-.07.51,1.13.8,2.49,1.33,3.87,1.47-.11.1-.21.22-.31.34-2.09.14-4.16-.03-6.23-.21.2-.8.3-1.72.39-2.11.33-1.4,1.06-3.69.33-5.07-.05-.1-.21-.15-.31-.08-1.36.94-2.06,2.09-1.9,3.79,0,.03.01.05.02.07,0,0,0,0,0,0-.92-1.31-3.33-3.46-4.45-1.84-.72,1.05.02,2.53.76,3.31.64.67,1.41,1.19,2.18,1.71-.2-.01-.41-.02-.61-.03-1.53-.05-3.81,0-5,1.2-2.45,2.46-1.39,6.51-1.49,9.79-.78-1.72-1.51-3.74-3.35-4.5-.14-.06-.33.09-.32.24.15,1.54.76,3.36,2.01,4.31-.69-.18-1.46-.18-2.09-.18-.19,0-.37.24-.24.41.41.54,1.01.84,1.67.99-2.31.66-3.87,2.14-3.56,5.23.02.17.3.24.33.04,1.2-8.25,10.07-3.9,15.64-4.71-.92.68-1.57,1.57-1.29,2.71.56,2.28,2.58,1.32,3.82.07,0,.05-.01.1-.02.14-.72.31-1.17,1.29-1.45,1.95-.42,1.02-.49,2.29.19,3.2.1.13.32.22.45.06,1.03-1.27,1.11-2.7,1.21-4.18.14.22.34.41.59.59.22.15.48-.19.29-.37-.8-.72-.85-1.53-.43-2.48.13-.3-.28-.56-.45-.26-.03.05-.06.09-.08.13-.03.03-.06.06-.07.1,0,0,0,0,0,0-.36.56-.8,1.04-1.33,1.44-.4.3-.88.52-1.4.43-.71-.12-.96-1.17-.83-1.73.17-.78.93-1.41,1.78-1.9.57-.06,1.15-.29,1.64-.59.05.08.11.17.19.24.09.09.19.16.3.22.07.25.21.46.39.64-.04.03-.07.08-.08.15-.11,1.27.46,2.58,1.32,3.49.25.26.62.48,1.01.6.65.78,1.47,1.25,2.24.54.68-.62.94-1.65.67-2.52.03-.05.05-.1.08-.15.93,1.11,2.29,1.83,3.76,1.57.14-.02.25-.21.2-.34-.6-1.43-2-2.22-3.52-2.16.41-.32.68-.77.85-1.27,1.3.05,2.52-.04,3.81.32.32.09.43-.37.13-.48-1.18-.47-2.55-.42-3.81-.35.29-1.7-.6-3.65-2.33-3.15-.16.05-.14.25,0,.3.52.19.99.25,1.4.67.41.41.54,1.05.55,1.61,0,.22-.03.44-.08.65-.09.06-.13.18-.09.28-.06.16-.13.32-.23.47.05-.5,0-1.02-.2-1.48-.37-.84-1.44-1.06-2.22-.7-.16.08-.07.31.09.32.7.03,1.42-.05,1.71.73.21.57.11,1.23-.07,1.81-.19.12-.41.22-.64.28-.51-.64-1.25-1.18-2.02-.99-.1.02-.12.17-.03.22.52.32,1,.53,1.41.89-.12.1-.08.33.11.34.07,0,.14,0,.21,0,.06.08.13.17.19.26.05.08.09.17.13.27-.18.24-.39.45-.64.6-.74.43-1.35-.37-1.67-.94-.14-.24-.5-.03-.37.22.4.77,1.07,1.58,2.03,1.29.31-.09.57-.28.8-.51.05.61-.16,1.25-.66,1.61-.34.25-.71.15-1.07-.12.41-.04.78-.24.99-.68.05-.1-.03-.22-.15-.19-.47.13-.81.43-1.33.34-.02,0-.04-.01-.06-.02-.52-.65-.92-1.51-1.02-1.88-.06-.22-.38-.13-.34.09.06.31.23.75.47,1.22-.06-.06-.12-.12-.17-.19-.63-.72-1.07-1.81-1.06-2.78.09.05.19.1.3.13.63.19,1.76-.25,1.62-1.06.02,0,.05,0,.07-.01.6-.3,1.22-1.33.79-1.98-.2-.3-.54-.44-.89-.49,0,0,.01,0,.02-.02.45-.72.09-1.88-.57-2.36.43.06.83.25,1.14.57.5.51.49,1.25.6,1.91.03.16.26.14.3,0,.5-1.69-.99-3.08-2.61-2.97-.29.02-.56.09-.82.19-.3.03-.6.1-.86.2-.03.01-.06.02-.09.04.2-.21.39-.43.56-.62.45-.5.79-1.06,1-1.7.07-.24-.2-.42-.4-.31-.56.31-.99.78-1.34,1.3-.09.13-.19.29-.28.47,0-.07,0-.14,0-.2.03-1.3-.12-2.59-.45-3.85-.05-.21-.36-.26-.47-.06-.73,1.33-.92,2.92-.61,4.41-.98-1.99-2.54-3.66-4.88-3.89-.14-.01-.26.13-.26.26.02,1,.27,1.94.69,2.79-.85-.05-1.75.06-2.6.04-1.14-.02-2.27-.11-3.41-.11,0-.94.07-1.88.28-2.81.57-2.5,3.46-3.07,6.71-3.03.03.01.06.01.1,0,.5.36.98.73,1.4,1.19.08.08.17.1.25.07.05.05.12.06.18.03.29-.15.49-.62.64-1.17,2.26.18,4.45.49,5.94.5-1.27,2.27-.71,6.37,1.66,6.36.02.17.06.34.11.5.27.85,1.21,1.36,2.12,1.38,0,0,0,.02,0,.03.18.69.59,1.17,1.25,1.44.55.23,1.6.23,2.01-.25.06-.08.05-.22-.06-.24-.5-.11-1.01.14-1.53.06-.61-.09-1.01-.51-1.21-1.07.31-.06.61-.18.85-.38.02-.02.03-.04.04-.06,1.26,1.06,3.27,1.18,4.3-.32,0-.01.01-.02.02-.03.02.03.04.06.05.09-.04,0-.07.02-.1.05-.31.28-.54.61-.74.95-.09-.03-.2-.02-.26.08,0,.01-.01.02-.02.03-.09-.05-.21-.05-.31.05-.49.49-1.08.97-1.46,1.56-.07.11-.01.22.08.28-.12.23-.23.48-.32.73-.08.22.21.45.41.31.63-.45,1.02-1.04,1.39-1.67-.2,1.13.03,2.35.68,3.37.12.18.36.17.48,0,.12-.18.24-.38.35-.59,3.19,2.1,1.96,6.24,2.36,9.55-.42-.29-.9-.48-1.41-.55-.25-.03-.41.17-.31.4.26.6.74,1.12,1.17,1.6.22.25.45.49.7.72-.7-.07-1.43-.08-2.17-.07-3.17.04-6.52-.27-9.64.34-.28.05-.15.45.11.41,2.66-.37,5.29-.02,7.96-.15,3.06-.14,6.47-.44,7.78,3.01.7,1.85.66,3.87.51,5.9-.04-.03-.09-.06-.15-.05-4.11.42-8.13-.23-12.24-.14-.26,0-.25.38,0,.4,4.03.19,8.3.95,12.3.18.02,0,.04-.02.06-.03-.15,1.91-.34,3.83-.06,5.64-2.61-.14-5.24-.04-7.86-.12-4.28-.12-8.56-.1-12.84-.04-7.51.09-15.02.3-22.53.4,0-.01,0-.02,0-.03.01-.8-.03-1.59-.1-2.38,2.58.05,5.17.16,7.76.27.06.03.12.04.19,0,1.86.08,3.72.17,5.58.25.07.12.24.18.36.06.01-.01.03-.02.04-.04.2,0,.4.01.59.02.04.05.09.08.17.08.1,0,.19-.03.28-.06,2.14.08,4.27.15,6.4.17,2.85.03,5.69-.35,8.53-.48.06.05.15.07.24.01.01,0,.02-.01.03-.02.69-.03,1.37-.04,2.06-.02,3.37.08,6.56.63,9.92.05.22-.04.17-.42-.05-.4-1.87.21-3.69.22-5.51.15.1-.07.21-.14.32-.2.19-.1.37-.16.53-.32.03-.03.03-.07.03-.1,1.55-.02,3.09-.04,4.63-.06.32,0,.32-.49,0-.5-5.16-.04-10.34.03-15.5.08-.22,0-.22.33,0,.34,1.32.08,2.65.13,3.98.16-.15.09-.29.19-.43.29-1.81.05-3.61.27-5.41.42.3-.66.44-1.37.48-2.08.48.23,1.12.32,1.62.28.72-.07,1.47-.32,1.9-.93.14-.2.2-.42.21-.64.14.05.28.09.45.08.63-.01,1.12-.59,1.38-1.11.21-.43.32-.95.2-1.42.29.01.58,0,.84.02.79.07,1.59.18,2.37.3.21.03.38-.12.34-.34-.32-1.7-1.84-1.88-3.3-1.67.95-.78,1.64-1.89,1.99-3.09.06-.21-.14-.38-.33-.33-1.01.23-2.54.74-3.44,1.61-.07-.4-.27-.79-.54-.98-.61-.44-1.45-.33-2.12-.12-.64.2-1.35.59-1.68,1.19-.14.25-.16.49-.09.7-.43-.81-1.1-1.41-2.12-1.43,1.55-.51,3.1-1.28,3.78-2.7.09-.19-.02-.39-.23-.4-1.26-.08-2.74.1-3.95.69.08-.18.15-.36.22-.52.33-.81.42-1.75-.13-2.49-.07-.1-.23-.18-.35-.09-.94.7-1.38,1.71-1.41,2.82-.51-.88-1.49-.82-2.31-.44.08-.4-.03-.78-.56-.96-.6-.2-1.07.13-1.4.6-.15-.26-.31-.51-.47-.7-.68-.87-1.7-1.17-2.68-.62-.07.04-.12.09-.18.13-.02-1.11-1-1.99-2.23-2.01.37-.86.38-1.85-.16-2.65-.51-.76-1.38-1.13-1.95-.73-.26-1.56-1.83-1.92-3.42-1.13-.75.38-1.26.94-1.42,1.51-.12-.01-.25-.02-.39,0-.56.09-1.01.59-1.27,1.08-.03-.31-.06-.61-.09-.88-.07-.85-.26-1.67-.62-2.46-.08-.18-.36-.16-.45,0-.42.81-.52,1.77-.34,2.66-1.18-1.38-2.74-2.43-4.37-3.24-.19-.09-.36.02-.39.22-.3,2.62,2.08,4.91,4.57,5.66-1.86.27-3.6,1.45-4.39,3.17-.08.17,0,.44.24.41,1.42-.16,2.93-.75,4.1-1.69-.79,1.4-.92,3.42-.46,4.75.08.23.38.28.51.07.41-.66.57-1.38.65-2.1.18,1.12.27,2.26.65,3.34.08.24.45.27.52,0,.25-.99.36-2.7-.66-3.32-.03-.14-.05-.28-.08-.41,0,0,0,0,0,0,.81,1.03,2.23,1.42,3.36.98-.19,1.09-.07,2.3-.06,3.33,0,.23.31.38.48.2.84-.93,1.02-2.05,1.04-3.22.14.14.29.27.49.37.79.41,1.74.13,2.47-.28.52-.3.97-.77,1.23-1.27.08.02.16.04.25.05-.88.66-1.27,1.87-1.08,3.17.21,1.43,1.69,2.85,3.09,2.55-.09.97.49,2.05,1.33,2.67-4.92-.31-9.79.19-14.71-.46-.08-.01-.12.05-.13.11-.19-2.04-.2-4.07.51-6.12.08-.24-.3-.4-.41-.17-1.8,3.83-.31,8.65-.05,12.68,0,.01,0,.02,0,.04-.85.01-1.69.03-2.54.03-.09,0-.15.04-.19.09,0,.01-.01.03-.02.04,0,.01-.02.03-.02.04,0,0,0,.01,0,.02-.06.23,0,.44.19.61-.29.32-.47.72-.42,1.18.07.57.48,1.01.96,1.28.5.27,1.1.32,1.62.1.51-.22.72-.75.83-1.27-.07,1.95,3.05,2.18,4.02.63.7,1.64,3.21,1.57,3.64.16.52.6,1.28.96,2.13.82.93-.15,1.43-.82,1.35-1.62.46,1.02,1.51,1.79,2.68,1.58.86-.16,1.6-1.16,1.25-1.99.02,0,.04,0,.06,0,0,.02-.01.05,0,.08.16,1.36,1.27,2.25,2.63,2.22.74-.02,1.32-.43,1.55-1.01.17,2.17.02,4.22-.45,6.4-.02.07,0,.13.03.18-.35.01-.7.03-1.05.05-2.22.16-3.33.65-4.34,2.35-.56.11-1.12.23-1.67.33-.12.02-.18.14-.19.25-.05.37.03.52.28.8.11.12.37.04.35-.14-.02-.16.05-.31.2-.43-.05.15.06.36.25.38.14.02.28.02.42.03.03.08.11.14.23.12.17-.02.35-.04.53-.07,3.01.14,6.01-.42,9.03-.19,2.63.2,5.2.61,7.82.08.24-.05.24-.37.06-.49-1.56-1.06-4.14-.71-5.91-.7-3.81.02-7.48.33-11.26.8,0-.06-.02-.13-.06-.18.06-.1.13-.19.2-.29,2.05-.41,5.53-.28,6.23-.19.24.03.35-.31.1-.37-1.97-.52-4.01-.24-6.01.14,2.05-2.31,6.01-2.1,9.51-1.78.01.01.02.03.03.04.1.12.25.08.33,0,1.2.11,2.32.22,3.29.23.56.21,1.03.44,1.49.84.37.33.7.85,1.16,1.05.18.08.34-.08.26-.26-.23-.53-.88-1-1.32-1.36-.37-.3-.82-.57-1.29-.67-.04-.04-.09-.07-.17-.07-1.15-.03-2.3-.1-3.45-.17-1.18-1.91-.9-4.09-.79-6.23.41.5,1.03.79,1.75.61.45-.11.85-.46,1-.89.03-.1.06-.21.07-.32.54.65,1.36,1.06,2.21,1.07.99.01,1.9-1.06,1.5-2.03.03,0,.06,0,.1,0,0,.01,0,.02,0,.03.04,1.06.66,2.2,1.86,2.14.95-.05,1.77-1.21,1.54-2.14.04,0,.09,0,.13,0-.06.05-.1.13-.09.23.18,1.24,1.2,2.06,2.45,1.75.45-.11.87-.41,1.08-.83.41.67,1.22,1.03,2.05.73.46-.17.8-.52.96-.98.03-.08.05-.19.05-.3.62.82,1.69,1.38,2.7,1.43.8.04,1.17-.51,1.18-1.13.31.62.9,1.04,1.67.87.85-.2,1.34-1.44.8-2.15.05,0,.11,0,.16-.01.16-.01.27-.15.23-.31-.11-.42-.1-.42-.24-.68ZM28.03,5.55c.58-.13,1.12-.12,1.65,0-.15.1-.18.34,0,.47.21.15.44.31.66.46-.81-.19-1.6-.5-2.31-.93Zm-16.57,12.92c.29.01.58.03.87.08.35.06.66.19.96.34-.65.02-1.32-.1-1.83-.42Zm-.09-4.26c.97.58,1.57,1.65,2.07,2.74-.03-.03-.05-.07-.08-.1-.23-.24-.58.12-.36.36.18.21.34.43.48.67-1.22-.73-1.88-2.26-2.11-3.68Zm14.73,13.09c-.64-1.24.09-2.54.89-3.58-.1,1.26-.17,2.51-.89,3.58Zm8.02-4.96c.14.22.43.31.69.35,0,0,0,0,0,0h0s.05,0,.07.01c.27.03.32-.27.19-.45.62.23,1.15.64,1.49,1.23-1.08.05-2.02-.53-2.76-1.31.1.05.2.1.3.16Zm-19.19-3.46c.13-1.15.1-2.32.06-3.48.08-.02.17-.03.25-.05.04.03.08.04.13,0,.02-.01.04-.03.07-.05.39-.08.78-.12,1.17-.14.07.1.24.13.33,0,0,0,.02-.02.02-.03,1.7-.07,3.41.16,5.08-.22.01,0,.02-.01.03-.02.44.48.95.91,1.51,1.25-1.26-.27-2.72-.28-3.78.13-.2.08-.26.29-.12.46.86,1.04,2.66,1.21,4.15.9-.09.15-.16.31-.21.49-.13.53.12.98.5,1.27-2.27-.1-5.97-.71-9.2-.53Zm9.65-1.98c-1.25.44-3.13.52-4.16-.23.77-.19,1.55-.13,2.35-.01.6.09,1.21.28,1.82.25Zm6.09.92c.47.38-.33,1.17-.5,1.62,0,.01,0,.02,0,.03-.04,0-.07,0-.1.02-.4.3-.52.79-1.13.69-.18-.03-.32-.1-.45-.2.11-.09.15-.27-.01-.36-.09-.05-.18-.1-.26-.15.04-.04.07-.09.07-.15.05-.46.37-.99.9-.74.06.03.14.08.16.11.04.06.04.07.03.08-.12.25-.53.22-.7.45-.06.08-.02.24.07.28.38.18,1-.16,1.13-.55.12-.33-.1-.63-.37-.8-.31-.19-.72-.21-1.05-.05-.24.11-.4.31-.5.53-.06-.03-.12-.04-.18-.02-.03-.08-.1-.16-.18-.18.29-.44,1.01-.63,1.5-.73.46-.09,1.2-.17,1.57.13Zm-4.15-1.57c.07-.04.13-.12.13-.21.08-.16.15-.34.19-.52.17-.13.37-.24.57-.32-.29.44-.36.99-.06,1.59-.28-.08-.75-.23-.89-.5.02,0,.04-.02.06-.04Zm-.05.65c.28.16.6.27.86.33.21.05.32-.18.25-.32.13-.03.24-.17.16-.33-.38-.79.06-1.36.71-1.65.33-.02.66.02.95.18.75.42.43,1.28.59,1.95,0,.01.01.02.02.03-.2,0-.4,0-.57.01-.71.07-1.46.29-2.01.75-.25.21-.37.46-.39.72-.44.17-.93.38-1.41.63-.29.04-.59.04-.88-.03-1.37-.32-.39-1.58.21-1.8.68-.24,1.21.19,1.37.84.08.31.55.18.47-.13-.12-.5-.41-.84-.77-1.04.05,0,.1.02.14.03.15.02.26-.08.29-.19Zm-.32-6.26c.18.98.24,1.96.21,2.94-.13-.08-.33-.02-.33.17,0,.23,0,.45-.01.68-.34-1.24-.32-2.59.14-3.79Zm-5.34.15c2.4.36,3.84,2.58,4.63,4.78-.75-.93-1.67-1.71-2.69-2.33-.24-.14-.44.22-.21.37,1.08.72,1.96,1.62,2.73,2.64-2.41-.98-4.25-2.67-4.46-5.46Zm-1.48,3.03c.62.01,1.24-.01,1.81-.2.18.33.4.63.64.92-.73-.01-1.48-.03-2.24-.04-.02-.07-.07-.12-.16-.12s-.13.05-.16.12c-.17,0-.34,0-.51,0,.23-.14.44-.29.61-.48.05-.06.04-.14,0-.2Zm-3.21-.13c.75.03,1.49.07,2.24.09.23,0,.47.02.71.03-.48.2-.88.54-1.38.71-.04,0-.07,0-.11,0,0,0,.01,0,.02-.02.25-.17.55-.3.72-.55.05-.07-.02-.16-.09-.16-.49-.01-1,.38-1.35.79-.19.02-.38.04-.57.07.17-.13.33-.25.5-.39.05-.04-.01-.12-.07-.09-.35.18-.68.37-1,.58-.26.05-.51.12-.76.19,0-.06,0-.13,0-.19.05,0,.1-.01.15-.06.22-.22.43-.43.65-.65.12-.12.26-.23.35-.37Zm-.56-.02s-.06.07-.09.1c-.17.17-.34.35-.52.52,0-.21-.01-.43-.02-.64.21,0,.42.02.63.02Zm3.9-10.14c-.13-.43-.18-.87-.2-1.31.04-.03.09-.05.13-.07-.07.05-.11.13-.08.24.15.52.23,1.06.31,1.59-.05-.15-.12-.3-.16-.45Zm2.59,3.26c-.13-.42-.31-.82-.4-1.26-.08-.39-.12-.78-.17-1.17.17.67.3,1.34.47,2.01.04.13.07.28.12.44-.01,0-.02-.01-.03-.02Zm1.12.36c-.08-.33-.18-.66-.25-.98-.17-.7-.31-1.39-.41-2.1-.03-.22-.42-.17-.39.05.07.55.13,1.15.23,1.75-.16-.6-.29-1.21-.46-1.81-.07-.24-.38-.19-.44,0-.02-.16-.04-.32-.06-.48-.04-.25-.47-.19-.44.06.06.46.07,1.1.14,1.73-.06-.18-.13-.35-.16-.48-.18-.82-.3-1.65-.52-2.45-.08-.27-.49-.16-.42.12.22.88.32,1.79.5,2.68.03.13.06.33.11.53-.09-.07-.19-.15-.28-.22.02-.02.03-.04.03-.06.08-.45-.11-.9-.18-1.34-.11-.63-.2-1.25-.4-1.86-.03-.1-.11-.15-.2-.16.36-.05.83.12,1.26.36.8.46,1.56,1.18,2,2.01-.05.05-.08.11-.06.19.15.79.21,1.7.47,2.49-.02,0-.05,0-.07,0Zm1.33-2.82c-.06-.63-.11-1.27-.2-1.9-.03-.22-.43-.17-.4.05.08.61.12,1.23.15,1.84.03.46,0,.96.17,1.4-.04.12-.09.25-.14.38.04-.45-.03-.89-.1-1.36-.09-.67-.16-1.35-.32-2.01-.01-.04-.03-.08-.06-.1.13-.63.39-1.2.85-1.75.04-.05.08-.1.12-.14-.02.04-.04.09-.02.15.08.34.11.67.13,1.02-.02-.1-.03-.21-.05-.31-.05-.27-.46-.15-.41.11.12.65.18,1.3.25,1.96.01.11,0,.49.13.65-.02.1-.05.21-.07.31-.01-.1-.03-.2-.04-.3Zm11.79-.44c.2.74.03,1.44-.18,2.14-.2-.72-.15-1.46.18-2.14Zm-1.36.31c.07.56-.2,1.03-.46,1.51,0-.56.15-1.05.46-1.51Zm-3.24-.9c.44.47.86.96,1.23,1.49.42.59.67,1.24,1,1.87-.03.03-.06.05-.08.08-.02-.01-.03-.02-.05-.03-.03,0-.05-.01-.08-.02-.91-.8-2.43-2.06-2.02-3.38Zm7.92,9.04c-.38-.57-.89-.95-1.43-.86.24-.44.28-.98.02-1.54-.78-1.68-3.66-1.1-3.4.81-.04-.02-.09-.03-.14-.02-.66.11-1.15.52-1.19,1.21-.04.66.39,1.32.83,1.77.45.46,1.08.81,1.74.68.72-.14,1.3-1.14,1.14-1.83-.02-.1-.1-.12-.18-.12.23-.08.43-.19.61-.32.03.01.06.02.1.01.05-.01.1-.01.15-.02.43.37.93.58,1.44.64.03.04.05.09.08.14-.17-.07-.4.05-.33.27.17.51.37,1.02.59,1.51-.08.34-.24.65-.49.9-1.07,1.05-3.04.27-3.76-.79-.16-.23-.53-.02-.38.22.13.2.28.38.44.55-1.08-.11-2.3.43-2.76-.98-.03-.09-.04-.19-.06-.29.06-.01.11-.02.17-.04.15-.04.18-.3,0-.33-.08-.01-.14-.03-.21-.05,0-.99.54-2.03,1.13-2.73.18-.21-.12-.52-.31-.31-.72.78-1.29,1.83-1.35,2.91-1.38-.47-1.88-1.61-1.78-3.27.05-.88.38-1.84.93-2.53.07-.03.11-.09.13-.15.25-.27.54-.49.87-.63.07,0,.13,0,.2,0,.09,0,.15-.05.19-.11.22-.04.46-.05.72-.01.02.02.04.03.05.05.04.03.07.05.11.05-.39.53-.66,1.19-.58,1.84.1.78.86,1.52,1.67,1.34.14-.03.15-.22.04-.3-.5-.32-1.12-.42-1.19-1.13-.05-.55.21-1.13.55-1.55.26-.32.71-.77,1.17-.69.3.05.48.31.6.61-.05.25-.09.51-.09.77,0,.15.18.23.29.16,0,.06.01.12.02.17.02.26.44.27.42,0,0-.08-.01-.16-.02-.24,0-.01.02-.01.02-.03.27-.86.55-1.56,1.14-2.26.7-.83,2.62-1.26,2.7.28.05,1.03-.74,2.2-1.53,2.98-.16.11-.29.24-.4.37-.01,0-.02.02-.03.03,0,0,0,0,0,0-.01.02-.03.03-.05.05-.2.26.21.51.43.33.15-.12.32-.28.5-.47.97-.65,2.68-.83,2.81.65.08.82-.75,1.68-1.38,2.05-.31.18-.65.26-.98.25Zm-2.21-2c-.06-.13-.25-.17-.37-.1-.22.13-.4.26-.5.49-.09.21-.04.44-.09.66-.02.09,0,.17.07.23-.03,0-.07.02-.11.02-.58.06-.96-.38-1.06-.9.02-.18.05-.36.09-.53.02-.07,0-.12-.02-.17.45-.91,2.29-.67,2.44.57.05.41-.15.75-.44,1,.1-.16.17-.35.18-.56.01-.25-.09-.49-.19-.71Zm-.48,2.12s-.05.03-.07.06c-.33.45-.33,1.18-.97,1.35-.45.11-.92-.24-1.21-.53-.66-.65-1.11-1.88.12-2.13.01,0,.02,0,.03-.01.01.33.1.65.33.91.37.42.96.53,1.49.44.1-.02.2-.05.29-.08Zm2.7,8.07c-.7-1.39-.62-3.03.32-4.28.4,1.5.44,2.92-.32,4.28Zm.6-6.32c.09.16.18.32.28.47.26.41.54.93.97,1.18.14.08.32-.05.27-.21-.14-.46-.53-.84-.8-1.23-.16-.22-.3-.45-.45-.68,1.77.9,2.52,2.71,2.46,4.65-1.15-1-2.05-2.32-2.73-3.71.02-.15.02-.31,0-.48Zm3.11,18.13c-.52-.69-1.21-1.28-1.7-2,.39.15.74.37,1.05.69,0,0,.01.02.02.03.04.18.09.36.14.53.05.14.19.16.28.09.03.05.06.1.08.15.01.16.05.32.13.47,0,.01.02.01.03.02-.01,0-.03,0-.04.02Zm4.34-4.67c-.11.21-.26.42-.34.59-.31.57-.66,1.11-1.03,1.64-.56.79-1.25,1.49-2.07,1.99.16-.16.31-.34.45-.49.32-.33.64-.68.95-1.01.18-.2-.1-.48-.3-.3-.34.32-.68.63-1.01.95-.17.16-.36.32-.53.51.34-1.7,2.37-2.98,3.88-3.87Zm-8.11,17.77c.22-.13.49-.21.7-.36.14,0,.29,0,.43,0-.28.12-.53.34-.73.53-.02.02-.03.03-.03.05-.22,0-.43-.02-.65-.03.09-.07.18-.13.28-.19Zm-1.44-.08c.22-.08.44-.13.63-.27.16,0,.32,0,.48,0-.23.15-.44.33-.61.48,0,0,0,.01-.01.01-.3-.02-.6-.04-.9-.06.13-.06.26-.12.4-.17Zm-2.77-.26c.31,0,.63,0,.94,0-.16.09-.32.18-.49.24-.03.01-.06.03-.09.05-.26-.01-.52-.03-.78-.03.14-.08.29-.17.43-.27Zm-2.15,15.57c1.56.23-2.09.24-2.4.23-1.63-.05-3.27-.29-4.89-.42-.21-.02-.42-.01-.63-.02,2.66-.18,5.33-.17,7.93.21Zm-28.73-15.65c-.09.03-.14.09-.15.16-.17,0-.33,0-.5,0-.02-.24-.05-.47-.08-.71.64.01,1.28.03,1.92.05-.38.19-.76.38-1.19.5Zm2.65-.35c-.31.11-.63.14-.95.15.11-.08.21-.17.3-.28.29,0,.58.02.87.03-.07.04-.14.07-.22.09Zm.86.55c.39-.09.76-.27.96-.58.36.02.73.03,1.09.05-.29.18-.56.38-.84.58-.4-.01-.81-.03-1.21-.04Zm3.81.15c-.63-.03-1.27-.06-1.9-.08.26-.17.5-.36.71-.58.65.03,1.29.06,1.94.08-.27.16-.52.37-.75.58Zm2.26,0s-.06.07-.08.11c-.51-.03-1.03-.05-1.54-.08.29-.22.59-.41.92-.58.2,0,.4.01.6.02-.12.07-.25.14-.37.22-.21.15-.02.49.2.35.22-.13.44-.24.67-.33-.14.09-.28.19-.4.28Zm1.44.19c-.28-.01-.55-.03-.83-.04.18-.12.37-.23.56-.33.23-.11.46-.19.7-.29.03,0,.05,0,.08,0-.16.11-.31.21-.47.32-.13.09-.12.24-.04.34Zm.78.04c-.16,0-.32-.02-.48-.02.27-.18.54-.36.8-.53.06-.04.12-.08.19-.12.13,0,.25,0,.38,0-.29.14-.56.32-.8.48-.08.05-.1.13-.09.2Zm1.41.07c-.3-.01-.61-.03-.91-.04.2-.12.4-.24.62-.35.25-.12.51-.2.74-.34.16,0,.32,0,.48,0-.33.21-.65.46-.94.73Zm14.42-2.82c-.31.39-.89.54-1.37.59-.44.05-1.25,0-1.61-.28,0-.18,0-.35-.01-.53,0-.06-.03-.1-.05-.14.03-.06.08-.12.13-.18.19-.23-.12-.56-.34-.33-.01.02-.02.03-.04.04-.02-.02-.04-.04-.08-.04-.63-.1-1.2.23-1.79-.16-.41-.27-.55-.82-.55-1.28,0-.46.18-.97.56-1.25.45-.34,1.02-.18,1.48.06-.01.02-.03.04-.04.06-.25.38-.37.89-.06,1.27.13.16.29.26.48.34.04.44.31.83.91,1.02.87.27,1.63.03,2.23-.47.07.13.16.25.25.36.11.31.13.63-.09.92Zm-4,.08c-.46.64-.97,1.26-1.61,1.69.2-.38.46-.73.74-1.05.27-.3.56-.47.87-.64Zm-1.66-.54c-1.37.02-3.02.07-4.08-.77,1.46-.39,2.88-.13,4.08.77Zm11.34-2.7c-.69-.11-1.37-.2-2.07-.26-.3-.03-.79-.14-1.15-.04-.17-.17-.4-.27-.65-.31,1.36-.23,3.29-.86,3.87.62Zm-1.35-4.18c-.49,1.29-1.41,2.41-2.66,2.96.16-.19.32-.39.48-.58.2-.23.45-.46.55-.75.08-.23-.23-.36-.38-.22,0,0,0,0,0,0-.44.37-.84.84-1.21,1.32-.02-.07-.06-.14-.09-.2.03-1.4,1.99-2.16,3.31-2.52Zm-3.26,4.04c.39.02.83-.03,1.07.31.25.35.11.89-.05,1.24-.16.35-.44.71-.82.82-.27.08-.5-.06-.69-.27-.08-.19-.18-.36-.29-.53.37-.46.64-1.01.79-1.58Zm-2.27-3.69c.48-.15,1.07-.22,1.52.03.58.33.23.97.31,1.47-.03.07-.05.14-.07.22-.3-.17-.68-.23-1.13-.16-.5.08-1.02.28-1.51.55.03-.08.02-.18-.09-.25-1.26-.75.1-1.6.96-1.86Zm-1.17,2.23s.04.01.06.02c-.16.1-.32.21-.46.32-.07-.31-.17-.61-.29-.89.16.24.41.43.69.56Zm-.69,1.36c.17.09.45,0,.42-.24,0-.05-.01-.1-.02-.15.71-.63,1.84-1.28,2.77-1.11.2.04.33.14.41.27.01.13.04.26.08.4,0,.03.02.04.03.06,0,.05,0,.11,0,.16-.01.02-.03.04-.04.06-.07.1-.06.2,0,.28-.09.56-.3,1.11-.65,1.54-.17-.06-.36.14-.34.33-.16.13-.34.25-.55.34-.5.2-1.48.26-1.74-.22.26.03.53.03.75.03.27,0,.26-.39,0-.41-.19-.01-.5-.03-.79-.09,0-.03,0-.06.02-.08.07-.22.32-.53.63-.78-.04.07-.07.14-.1.2-.08.17-.02.35.17.42.52.18,1.62.44,1.76-.38.1-.59-.48-1.07-1.01-1.13-.9-.09-1.75.71-1.98,1.53-.08-.06-.15-.14-.18-.24-.08-.27.14-.57.35-.8Zm-.29-1.06c-.74-.53-1.42-1.14-1.78-1.99,1.03.13,1.52,1.02,1.78,1.99Zm-3.81-4.37c.11.02.22-.04.21-.19-.06-1.08.22-2.16,1.04-2.88.58,1.12-.34,2.26-.98,3.3-.13.12-.26.25-.37.39.06-.2.09-.41.1-.62Zm-.1,1.57c.05-.11.12-.2.19-.3,0,0,.01,0,.01,0,.37-.21.66-.58.91-.99,1.09-.79,2.6-1.06,3.94-1.04-.83,1.27-2.33,1.67-3.74,2.14.14-.12.27-.25.43-.36.39-.27,1.01-.41,1.29-.8.07-.09,0-.22-.1-.25-.53-.15-1.2.39-1.61.67-.41.29-.82.64-1.11,1.06-.08-.04-.16-.07-.24-.1,0-.01.02-.02.03-.04Zm-.1.61c.05.1.15.18.28.15,0,0,0,0,0,0,.01,0,.03.01.04.01.28.16.51.39.62.74.21.64-.2,1.36-.58,1.83-.4.49-.95.91-1.57,1.04-.63.13-.89-.35-1-.88.01-.25-.01-.51-.09-.76-.09-.3-.56-.25-.55.07,0,.24.03.51.08.77-.05.91-.74,1.62-1.81,1.47-1.09-.15-1.88-2.01-1.41-2.87.31-.05.61-.13.85-.27.04-.03.07-.06.11-.09.02-.02.04-.05.05-.08.24.51.77.73,1.41.61.94-.18,1.8-.94,2.15-1.84.17-.03.34-.08.5-.16.3.08.63.16.92.27Zm-5.11.62s0,.04.01.07c-.02,0-.05-.02-.07-.02-.41-.04-.74.1-.99.34-.16.02-.32.05-.49.05-.36.02-.72-.02-1.06-.15-.45-.17-.71-.59-.7-1.01,0-.37.26-.71.64-.82.66-.18,1.31.37,1.82.71.06.04.12.05.17.03,0,0,0,0,0,0,.05.41.32.65.67.79Zm4.68-3.28c.2.34.13.77-.04,1.1-.17.36-.47.57-.76.79,0,0-.01,0-.02,0,.04-.47-.06-.95-.38-1.39-.26-.36-.61-.51-.98-.53.68-.49,1.68-.85,2.19.03Zm-2.79-1.29c.77-.07.21.83-.02,1.07-.08.09-.09.18-.06.27-.2.05-.39.13-.58.21.02-.29-.04-.6-.15-.89.16-.34.42-.62.81-.66Zm1.32,2.5c.25.84-.06,1.53-.7,2.08-.47.4-1.65,1.05-1.93.15.11.02.23.03.33.04.31.02.3-.45,0-.48-.11-.01-.24-.03-.38-.06.05-.51.42-.89.94-.89,0,0-.01,0-.02.01-.21.25-.08.64,0,.92.03.11.14.21.27.2.48-.04,1.49-.28,1.1-.99-.29-.53-1.02-.76-1.59-.71-.69.07-1.08.61-1.21,1.23-.11-.09-.19-.21-.18-.38.02-.44.5-.86.81-1.12.67-.56,2.19-1.24,2.54-.01Zm-5.43-3.1c.69-.86,1.78-.15,2.28.49.21.28.35.56.45.87-.08.21-.13.42-.16.6-.03.21.17.34.33.31,0,.06.01.12.02.18-.2.13-.38.26-.53.39-.11.1-.23.22-.34.34-.02-.03-.05-.05-.08-.07-.84-.36-2.8-2.08-1.96-3.12Zm-.46,1.43c-.27-.02-.53-.02-.77.02.2-.18.38-.4.52-.6.05.19.14.39.25.59Zm-10.23-5.43c.17-.39.47-.77.88-.92.11-.04.22-.05.33-.03.06.47.39.91,1.06,1.21-.78.1-1.49.73-1.75,1.47-.24-.07-.45-.18-.6-.46-.2-.38-.09-.9.08-1.27Zm-1.34-2.87c.19.62.27,1.27.32,1.92.02.25.02.52.01.79-.47-.81-.59-1.81-.34-2.71Zm-.89,10.21c-.16-.99.07-1.87.42-2.74-.07.93-.09,1.88-.42,2.74Zm-3.49-2.82c.68-1.1,1.78-1.9,3.02-2.25-.12.06-.23.12-.35.17-.3.13-.59.26-.86.44-.25.17-.02.57.24.41.29-.18.6-.3.92-.43.28-.12.58-.23.75-.5.06-.1.01-.18-.07-.23.2-.03.39-.05.59-.06-1.01,1.3-2.64,2.16-4.24,2.45Zm3.86-4.24c-.6-.47-1.22-.91-1.78-1.43-.21-.19-.51.11-.31.31.5.51,1.04.96,1.6,1.4.21.16.41.35.62.53-2.19-.72-4.47-2.4-4.45-4.76,1.98,1.09,3.64,2.42,4.82,4.34-.17-.13-.34-.26-.51-.39Zm4.44,5.65c-.37.29-.76.52-1.31.53-.72.02-1.36-.43-1.81-.95-.95-1.1-.97-2.79.39-3.5.17.14.36.25.57.3-.07,1.44,1.08,2.4,2.48,2.48.04,0,.08,0,.11-.02,0,.17.03.35.05.52-.08,0-.17.03-.22.11-.1.17-.19.34-.26.52Zm.26,3.28c-.01-.98,0-1.95.24-2.89.06-.05.12-.09.18-.15.02.05.04.09.06.13,0,1.01-.02,2.03-.47,2.91Zm5.33-3.81c.15-.67-.12-1.31-1.12-1.61-.21-.06-.38.14-.33.33.13.57.36,1.17.8,1.52-.25.44-.72.86-1.13,1.1-.53.31-1.23.48-1.82.23-.36-.15-.6-.45-.76-.8,0-.16,0-.33-.01-.49,0-.09-.04-.15-.09-.18,0-.01.02-.03.02-.04.08-.17-.06-.31-.21-.28-.03-.16-.05-.33-.06-.48-.02-.18-.2-.25-.33-.19-.02-.1-.09-.19-.22-.21-1.11-.11-1.97-.83-1.96-1.97.07-.01.14-.03.21-.06.14-.06.22-.28.05-.36-.06-.03-.12-.05-.19-.07.11-.31.31-.6.57-.79.51-.38,1.06-.2,1.64-.25.18-.02.26-.24.09-.35-.18-.11-.38-.18-.57-.21.05-.11.03-.27-.12-.33-.15-.06-.27-.12-.38-.19.16-.02.32-.21.21-.38-.2-.3-.45-.55-.74-.7.15-.49.7-.97,1.33-1.29.52-.26,1.16-.4,1.73-.27.85.2.86,1.21.78,1.9-.03.3.45.35.52.07.39-1.52,1.68.2,1.89.9.17.55-.1,1.1-.47,1.61-.03,0-.06,0-.09.02-.11.03-.15.15-.11.25-.23.29-.48.56-.68.81-.04-.2-.12-.4-.24-.58.26-.24.43-.53.48-.89.1-.78-.63-1.46-1.2-1.87-.59-.42-1.38-.8-2.12-.68-.85.13-.62,1.09-.36,1.62.13.27.51.03.39-.23-.16-.38-.33-.91.23-.9.58,0,1.18.36,1.63.69.41.3.9.78.88,1.33,0,.23-.11.4-.26.54-.02-.02-.04-.05-.07-.07-.22-.2-.54.11-.34.32-.16.07-.32.14-.48.2-.04-.2-.13-.41-.26-.59.04-.26-.04-.52-.29-.76-.22-.2-.53-.28-.82-.19-.23.08-.39.26-.49.47,0,0,0,0,0,0-.6.49-.78,1.62-.06,2.07.5.31,1.27.2,1.68-.21.05-.05.1-.11.13-.16.32-.04.66-.21.93-.38.23.43.18.89-.27,1.3-.59.53-1.31.39-2.01.31-.25-.03-.29.32-.12.44.78.52,1.96.14,2.59-.44.27-.25.41-.53.46-.83.51-.25.94-.65,1.26-1.12.66.09,1.37.13,1.8.71.36.5.18,1.17-.09,1.66-.25.46-.67.87-1.18.99-.09.02-.17.02-.25.01Zm-4-2.92c.15-.08.29-.19.41-.31.02.09.04.17.05.26,0,.01,0,.02-.01.03,0,0-.02.02-.03.03-.02.02-.03.05-.04.08-.2.23-.62.26-.88.19-.44-.12-.41-.55-.27-.9h0c.1,0,.2-.04.23-.17.02-.08.05-.18.09-.28.06-.04.13-.06.21-.06-.04.31-.13.61-.14.93,0,.2.22.31.39.22Zm4.72,8.4c-.67-.34-1.01-1.09-1.17-1.78-.41-1.76.67-3.29,2.52-3.15.12,0,.2-.05.23-.14.57.81,1.44,1.52,1.98,1.74-.07.11-.12.23-.15.35-.54-.58-1.4-1.01-2.19-.82-.6.14-.98.68-1.05,1.26-.08.63.31,1.22.84,1.52.37.21.8.28,1.22.3.04,0,.08,0,.12,0-.37.2-.63.47-.79.76-.52.14-1.01.24-1.57-.05Zm-12.17,3.11c0,.07.02.14.09.15,4.8,1.09,10,.9,14.89.52.1,0,.14-.07.15-.14.57.32,1.22.42,1.86.16.18-.08.17-.34-.05-.36-1.08-.06-1.93-.41-2.57-1.32-.36-.51-.47-1.06-.33-1.53.19-.11.38-.25.56-.44.1-.11.02-.25-.11-.26.06-.05.12-.1.18-.14,0,.02,0,.04,0,.06-.07,1.1.35,2.09,1.33,2.64,1.23.69,2.39.06,2.87-.97.19.27.46.46.85.52.87.12,1.71-.51,2.26-1.12.6-.65,1.03-1.57.8-2.47-.08-.31-.25-.57-.48-.79.2-.05.41-.11.62-.17-.04.06-.05.13-.03.2.33,1.16,1.17,1.93,2.11,2.59-.54-.24-1.14-.32-1.68,0-.58.34-.84,1.05-.89,1.69-.02.27.02.55.11.81-1.26-.58-3.13-.43-4.18-.05-.2.07-.26.29-.12.45,1.26,1.48,3.67,1.23,5.41,1.2.03,0,.06,0,.09-.02-.07.07-.14.13-.21.2-.59.58-1.05,1.33-1.3,2.12-.06.19.14.42.34.34.92-.38,1.58-1.05,2.16-1.8-.1.69-.16,1.39-.05,2.09,0,.01.01.02.02.03-.96.07-1.92.12-2.88.11-1.98-.03-3.96-.12-5.94-.21-.01,0-.02-.02-.04-.02-.09-.02-.18,0-.26,0-.21,0-.42-.02-.63-.03.27-.21.55-.41.82-.63.05-.04.07-.08.07-.13,1.67,0,3.34-.04,5-.17.23-.02.23-.36,0-.36-6.84.03-13.73-.69-20.56-.36,0,0-.01,0-.02,0-.1-.81-.2-1.62-.27-2.42Zm.05,8.18c.02.98-.83,1.53-1.72,1.12-.35-.16-.65-.44-.76-.81-.11-.36.06-.69.28-.97.5.25,1.28.43,2.22.56-.02.03-.02.07-.02.11Zm.94-.02c1.02.09,2.15.14,3.3.15-.22,1.75-3.56,2.02-3.3-.15Zm3.79.16c.96,0,1.91,0,2.79-.03,0,.03,0,.05.02.07,0,.01,0,.02,0,.03,0,0,0,.01,0,.02.53,1.93-2.62,2.06-2.82-.1Zm5.29,1.32c-.82.09-1.54-.39-1.92-1.07-.02-.1-.03-.19-.06-.3,1.2-.03,2.24-.08,2.92-.11.26.77-.08,1.38-.94,1.48Zm4.88-.59c-.15.33-.52.49-.86.53-.97.12-1.8-.61-2.15-1.46,1-.02,2.01-.02,3.01-.03.04.32.15.62,0,.96Zm3.14.81c-1.04.03-1.91-.76-2.1-1.75,0,0,0-.01,0-.02,1.11,0,2.22,0,3.33.02,0,.02,0,.03,0,.05.12.96-.12,1.66-1.22,1.7Zm5.7,6.19c-1.35-.08-2.7-.13-4.05-.11,0-.01.02-.03.03-.05.69-1.91.9-4.36.52-6.46.39.34.92.53,1.45.49.47-.04.87-.28,1.14-.65.11-.15.19-.37.23-.6.02.14.05.28.1.42-.31,2.19-.62,5.01.58,6.96Zm-3.72-7.93c.84.01,1.68.02,2.52.04-.03.22,0,.45-.07.67-.11.34-.45.51-.77.57-.88.19-1.43-.56-1.69-1.28Zm5.84,1.18c-.07.34-.35.57-.67.66-.81.25-1.29-.42-1.57-1.08,0-.02,0-.04,0-.06,0-.07-.04-.12-.09-.15-.03-.08-.06-.16-.08-.23-.05-.18-.29-.19-.38-.07,0-.07,0-.13-.03-.19.88.02,1.76.03,2.64.05.03.37.26.68.18,1.08Zm3.5.2c-.25.29-.65.32-1,.29-.84-.06-1.6-.71-1.99-1.41-.04-.08-.11-.11-.17-.11,0-.01-.01-.03-.02-.05,1.19.02,2.39.04,3.58.06-.14.42-.08.85-.39,1.21Zm3.5-.13c-.16.3-.47.52-.8.56-.92.12-1.31-.91-1.41-1.64.83.01,1.66.02,2.49.02-.09.35-.09.71-.27,1.05Zm3.84-.18c-.1.31-.47.5-.75.59-.98.3-1.65-.48-1.88-1.35-.01-.05-.04-.08-.06-.11.88,0,1.76,0,2.64,0,0,0,0,0,0,0,0,.3.15.56.06.87Zm2.98-.19c-.06.32-.32.54-.6.68-.87.43-1.49-.36-1.75-1.09-.03-.09-.12-.14-.21-.15-.03-.04-.05-.09-.09-.13.84,0,1.69-.02,2.53-.04.04.24.16.48.11.73Zm.09-1.15c-.07-.02-.12.02-.16.07-1.81.07-3.62.08-5.43.02-4.74-.14-9.48-.28-14.23-.33-4.67-.05-9.33.11-14,.15-.76,0-6.28-.04-7.83-.63.04-.06.05-.13.02-.19,7.86.02,15.73-.27,23.59-.41,3.85-.07,7.7-.08,11.56-.04,4.24.05,8.68-.2,12.9.38,0,.03.01.07.03.11.33.6-4.69.85-5.1.87-.4.02-.81.04-1.21.06-.04-.02-.08-.05-.13-.06Zm6.47.1c-.1.6.18,1.38-.6,1.61-.71.22-1.16-.56-1.28-1.14-.05-.24-.34-.2-.43-.02-.03-.07-.06-.13-.09-.2-.14-.23-.46-.07-.41.17.07.38.29.82.09,1.19-.16.3-.67.23-.93.19-.83-.15-1.68-.7-2.17-1.39-.07-.09-.16-.11-.25-.09,0,0,0-.02,0-.03,2.03-.06,4.06-.15,6.09-.3,0,0,0,0,0,0Z"/>
  <path class="cls-1" d="m16.99,25.1c.05-.05.03-.13-.04-.15-.34-.11-.72.13-1,.31-.39.25-.7.63-.97,1-.11.15.14.34.26.2.27-.32.57-.6.92-.84.26-.17.62-.28.83-.52Z"/>
  <path class="cls-1" d="m33.22,27.07c.07-.14-.07-.28-.21-.21-.23.11-.4.29-.6.44-.2.15-.44.25-.67.34-.22.08-.13.43.1.35.51-.16,1.14-.41,1.39-.91Z"/>
  <path class="cls-1" d="m32.97,27.85c.21-.23.42-.45.63-.68.02-.03-.01-.06-.04-.04-.23.2-.45.42-.68.62-.06.06.03.15.09.09Z"/>
  <path class="cls-1" d="m47.2,33.77c.82,1.01,1.34,1.99,1.78,3.21.04.11.2.09.21-.03.05-1.33-1.01-2.42-1.82-3.35-.1-.12-.27.05-.17.17Z"/>
  <path class="cls-1" d="m1.37,39.75c.21-.79.29-1.61.51-2.4.22-.79.52-1.56.82-2.33.06-.15-.19-.25-.26-.11-.7,1.42-1.63,3.21-1.29,4.83.02.11.19.11.22,0Z"/>
  <path class="cls-1" d="m.56,39.92c.16-.98.07-1.97.33-2.94.04-.15-.19-.21-.24-.07-.34.97-.49,1.98-.32,3,.02.11.21.11.23,0Z"/>
  <path class="cls-1" d="m42.07,20.71c.66.93.92,1.95,1.2,3.04.02.09.17.1.19,0,.24-1.19-.38-2.36-1.11-3.25-.13-.15-.39.05-.27.21Z"/>
  <path class="cls-1" d="m44.23,24.29c.07.13.24.05.25-.07.13-1.02-.52-2.15-.98-3.01-.09-.18-.34-.02-.26.15.24.54.43,1.1.59,1.66.13.43.19.87.4,1.27Z"/>
  <path class="cls-1" d="m41.04,4.82c.17.33.25.69.43,1.01.06.11.21.05.22-.06.09-.84-.54-1.64-1.18-2.1-.15-.11-.34.14-.2.26.3.25.54.54.72.89Z"/>
  <path class="cls-1" d="m14.86,7.48c-.4.49-.86,1.23-.95,1.86-.01.09.07.14.14.08.41-.33.63-.9.91-1.34.37-.57.84-1.01,1.53-1.15.21-.04.17-.41-.05-.38-.67.09-1.16.4-1.58.92Z"/>
  <path class="cls-1" d="m14.1,8.12c.26-.6.53-1.21,1.12-1.55.18-.1.02-.37-.16-.28-.7.35-1.11,1-1.18,1.77-.01.12.18.17.23.06Z"/>
</svg>