<?xml version="1.0" encoding="UTF-8"?>
<svg id="_Слой_1" data-name="Слой 1" xmlns="http://www.w3.org/2000/svg" viewBox="0 0 58.76 43.41">
  <defs>
    <style>
      .cls-1 {
        fill: #39180e;
        fill-rule: evenodd;
        stroke-width: 0px;
      }
    </style>
  </defs>
  <g>
    <path class="cls-1" d="m34.11,35.33c-4.1.01-17.78-.98-17.15-7.88.02-.22.32-.22.33,0,.37,6.53,12.44,7.27,16.82,7.42,4.37.15,15.55.39,17.37-4.99.04-.11.19-.07.17.05-.95,5.87-13.66,5.38-17.54,5.4Z"/>
    <path class="cls-1" d="m11.38,22.58c-.9-1.91-1.13-4.1-1.33-6.19,0-.11.17-.14.19-.03.29,2.09.81,4.1,1.29,6.15.02.09-.1.15-.14.06Z"/>
    <path class="cls-1" d="m9.43,17.1c.75,2.21,1.33,4.48,2.19,6.65.02.05-.06.09-.09.04-1.21-2.03-1.67-4.37-2.32-6.63-.04-.15.17-.2.22-.06Z"/>
    <path class="cls-1" d="m9.54,19.56c.44,1.6,1.01,3.11,1.64,4.64.06.14-.11.24-.19.12-.95-1.37-1.37-3.06-1.67-4.7-.03-.15.18-.21.22-.06Z"/>
    <path class="cls-1" d="m8.93,20.18c.4,1.3.96,2.53,1.39,3.82.02.07-.07.12-.11.07-.88-1.06-1.17-2.51-1.46-3.83-.03-.12.14-.17.18-.05Z"/>
    <path class="cls-1" d="m7.9,18.33c.27,1.71.72,3.33,1.34,4.94.02.05-.05.07-.08.04-1.02-1.44-1.28-3.21-1.51-4.94-.02-.14.22-.18.24-.03Z"/>
    <path class="cls-1" d="m7.2,18.2c.37,1.44.74,2.88,1.15,4.31.03.11-.12.18-.18.08-.73-1.3-.91-2.86-1.23-4.32-.04-.17.21-.25.26-.07Z"/>
    <path class="cls-1" d="m6.48,14.92c.05,1.96.36,3.83.65,5.76.01.07-.08.13-.12.05-.83-1.76-.81-3.89-.78-5.81,0-.17.24-.17.25,0Z"/>
    <path class="cls-1" d="m5.76,14.8c.02,1.68.14,3.36.45,5.01.02.12-.13.16-.17.05-.6-1.63-.52-3.34-.5-5.06,0-.15.22-.15.22,0Z"/>
    <path class="cls-1" d="m29.65,27.54c.05-.19.33-.11.29.08-.09.38-.3,1.18-.7,1.3-.08.02-.14-.04-.14-.11-.02-.19.09-.31.19-.47.16-.25.29-.51.37-.8Z"/>
    <path class="cls-1" d="m23.4,30.14c-.05,0-.08-.03-.1-.08-.07-.17.03-.3.13-.43.2-.27.4-.54.5-.87.07-.23.41-.13.35.1-.08.31-.23.59-.41.85-.12.18-.24.44-.48.43Z"/>
    <path class="cls-1" d="m22.84,29.92c-.08.01-.16-.03-.16-.13,0-.23.17-.38.2-.61.02-.21.33-.22.32,0-.01.26-.07.69-.36.74Z"/>
    <path class="cls-1" d="m22.22,29.32c-.18,0-.18-.29,0-.29s.18.29,0,.29Z"/>
    <path class="cls-1" d="m49.96,31.6c-.09.04-.2-.05-.14-.15.2-.34.45-.62.59-1,.18-.48.18-1,.09-1.5-.03-.15.19-.22.23-.06.23.88.16,2.26-.77,2.71Z"/>
    <path class="cls-1" d="m48.39,32.3c-.06,0-.09-.06-.04-.1.77-.61,1.3-1.5,1.25-2.53,0-.09.14-.11.15-.02.14,1.02-.21,2.48-1.36,2.66Z"/>
    <path class="cls-1" d="m47.09,32.8c-.06.01-.09-.05-.06-.1.44-.56.99-.99,1.38-1.6.06-.1.21-.01.16.09-.35.64-.75,1.43-1.48,1.61Z"/>
    <path class="cls-1" d="m46.36,32.94c-.05,0-.1-.07-.07-.12.12-.19.33-.29.51-.41.26-.16.47-.38.66-.62.08-.1.25.04.18.14-.27.39-.76,1.03-1.28,1Z"/>
    <path class="cls-1" d="m44.82,33.41c-.05,0-.07-.06-.04-.1.32-.4.89-.55,1.27-.9.1-.09.24.05.15.15-.35.37-.86.82-1.38.84Z"/>
    <path class="cls-1" d="m42.91,33.8c-.07-.01-.06-.11-.02-.14.53-.37,1.13-.54,1.61-1,.11-.1.27.06.17.17-.44.47-1.07,1.08-1.76.97Z"/>
    <path class="cls-1" d="m41.63,34.03c-.06,0-.08-.09-.03-.11.4-.21.81-.31,1.15-.62.08-.07.19.04.12.12-.34.36-.75.6-1.24.62Z"/>
    <path class="cls-1" d="m32.51,38.14c-1.37.1-2.85.02-4.17-.4-.09-.03-.08-.18.02-.17,1.39.05,2.73.43,4.14.34.15,0,.15.23,0,.24Z"/>
    <path class="cls-1" d="m27.29,38.23c-.08-.03-.07-.16.02-.16,2.15.04,4.2.53,6.36.22.13-.02.19.19.06.21-2.08.34-4.41.42-6.44-.27Z"/>
    <path class="cls-1" d="m32.04,39.33c-1.8,0-3.59-.04-5.34-.53-.05-.01-.04-.09.01-.09,1.78.21,3.54.44,5.33.46.1,0,.1.15,0,.15Z"/>
    <path class="cls-1" d="m26.7,39.45c-.07-.02-.06-.14.02-.14,2.17.02,4.33.52,6.51.56.15,0,.15.25,0,.25-2.13,0-4.48.02-6.53-.67Z"/>
    <path class="cls-1" d="m29.08,40.38c-1.2-.03-2.36-.34-3.55-.5-.02,0-.02-.03,0-.03,1.19.13,2.35.47,3.55.49.02,0,.02.04,0,.03Z"/>
    <path class="cls-1" d="m26.84,40.32c1.98.44,4,.7,6.03.82.09,0,.09.15,0,.14-2.04-.14-4.06-.35-6.05-.9-.04-.01-.03-.08.02-.07Z"/>
    <path class="cls-1" d="m25.19,40.54c2.35.56,4.71.88,7.09,1.25.05,0,.04.09-.01.09-2.37-.33-4.85-.35-7.12-1.21-.08-.03-.05-.16.04-.14Z"/>
    <path class="cls-1" d="m22.58,36.3c.69.45,1.48.7,2.26.93.08.02.04.15-.03.12-.81-.24-1.54-.55-2.24-1.04,0,0,0-.02,0-.01Z"/>
    <path class="cls-1" d="m21.76,36.61c.99.18,1.89.77,2.85,1.06.13.04.08.25-.06.22-.96-.24-2-.61-2.84-1.16-.06-.04-.02-.13.05-.12Z"/>
    <path class="cls-1" d="m19.78,35.73c1.32.62,2.45,1.75,3.7,2.53.16.1.02.34-.14.25-1.28-.68-2.66-1.56-3.66-2.64-.07-.08.02-.19.11-.14Z"/>
    <path class="cls-1" d="m35.35,23.8c-.04.13-.25.11-.24-.03.39-3.83,2.82-8.01,6.21-9.7.14-.07.27.14.13.22-3.6,2.14-4.87,5.64-6.1,9.51Z"/>
    <path class="cls-1" d="m26.03,26.5c-.92-2.88-1.05-6.51.46-9.19.08-.14.28-.02.21.13-1.32,2.95-1.19,5.89-.48,9,.03.13-.15.18-.19.06Z"/>
    <path class="cls-1" d="m20.53,21.36c-.71,1.01-1.3,2.1-2.04,3.08-.06.08-.18-.02-.14-.11.58-1.08,1.29-2.09,2-3.08.08-.11.25,0,.17.1Z"/>
    <path class="cls-1" d="m5.4,22.39c1.75,4.14,4.92,8.69,9.74,8.49.07.31.17.63.31.93-.22,10.05,15.35,12.34,22.16,11.42,5.05-.68,17.35-4.26,15.39-12.03-.01-.05-.04-.08-.06-.11.08-.35.11-.72.06-1.11-.15-1.15-.82-2.11-1.77-2.91.11-.09.19-.22.18-.35-.03-.25-.11-.4-.26-.57-.1-.24-.3-.42-.63-.42s-.52.18-.62.42c-2.16-1.24-4.97-1.92-6.87-2.13,1.25-1.38,1.85-3.44,1.82-5.31-.02-1.27-.19-3.34-1.59-3.84-1.82-.66-3.62,1.43-4.55,2.75-1.64,2.33-3.4,5.87-3.58,8.85-.96.33-1.92.69-2.86,1.09.3-3.52.39-6.97,2.56-9.94,1.42-1.95,4.74-6.42,7.4-4.53.07.05.14.05.2.02.21.12.41.24.6.4.44.38.8.83,1.1,1.33.16.26.6.1.5-.22-.09-.26-.23-.54-.4-.81,2.07-.28,4.09-1.18,5.94-2.18.04,0,.08,0,.12.01.2.01.37-.19.37-.39,0-.04,0-.08,0-.12,0-.24-.19-.38-.4-.37-.2-.64-1.63-4.17-2-5.1.03,0,.06,0,.09-.01.33-.05.24-.58-.08-.59-1.58-.05-3.16.24-4.72.45-1.16.15-2.37.18-3.51.49-.2.05-.23.42,0,.45,0,0,.01,0,.02,0,0,1.68.03,3.5.33,5.14.05.31.55.31.6,0,.26-1.62-.08-3.45-.34-5.09,1.16.05,2.34-.2,3.48-.35.92-.12,1.84-.22,2.76-.33-.56.51-1.15.99-1.74,1.46-.56.45-1.18.89-1.64,1.47-.27-.35-.55-.68-.87-.98-.41-.38-.91-1.08-1.48-1.12-.09,0-.19.09-.18.19.06.61.78,1.04,1.19,1.42.49.45.98.9,1.41,1.41-.51.83-1.2,1.56-1.46,2.51,0,0,0,0,0,0-.11-.02-.23-.02-.34-.02-2.26-1.03-5.08,1.88-6.36,3.55-.06.08-.12.17-.18.26-2.55-4.38-8.87-4.11-11.05.59-.64,1.39-1.13,3.54-1.22,5.76-.04-.01-.08-.02-.12.02-.29.3-.59.59-.9.87-.22.2-.47.4-.65.64-.13.02-.25.04-.38.07.42-.38.71-1,1.02-1.44.06-.09-.08-.17-.14-.08-.22.3-.43.61-.65.91-.16.22-.36.43-.5.66-.44.09-.88.21-1.31.36.21-.29.42-.58.62-.85.57-.75,1.13-1.48,1.85-2.09.08-.06-.03-.2-.1-.14-.74.58-1.38,1.26-1.97,2-.35.44-.75.88-1.1,1.35-.67.28-1.29.63-1.84,1.04.12-.2.24-.4.36-.6.02.08.12.12.17.03.8-1.33,1.78-2.51,2.65-3.78.11-.16-.14-.31-.25-.15-.31.45-.65.88-.99,1.32.29-.47.58-.94.87-1.42.09-.15-.14-.29-.23-.14-1.15,1.76-2.79,3.55-3.5,5.61-.1.12-.2.25-.29.38.14-.93.77-2.02,1.08-2.65.47-.96.96-1.91,1.52-2.82.1-.16-.15-.31-.25-.15-.39.61-3.14,4.98-2.73,6.32-.09.23-.17.46-.21.7-.09-.16-.19-.32-.28-.49.15-.05.27-.19.23-.4-.69-3.64-2.06-8.21-1.91-12.4,0,0,0,0,.01,0,.22-.31.32-.71.46-1.07.17-.42.36-.82.55-1.23.09-.18-.18-.35-.27-.16-.2.4-.49.89-.68,1.39.2-1.93.78-3.75,1.97-5.31,3.89-3.13,11.05.43,10.16,5.81-.03.21.24.3.32.09,1.58-4.62-5.16-8.97-9.17-7.3,2.2-2,5.17-3.49,8.14-3.36,4.9.21,6.93,3.42,7.45,8.28.04.37.55.39.57,0,.45-8.4-8.01-11.26-14.28-7.32-7.73,4.87-6.04,13.91-4.21,21.65-2.22-4.84-3.26-11.13-1.36-16.02C15.4,3.5,24.92.1,30.72,5.11c.19.16.47-.11.28-.29-.17-.15-.36-.29-.54-.43C24.51-3.46,10.59.12,6.15,7.99c-2.5,4.44-2.75,9.66-.75,14.39Zm44.25-11.7c-.74-.15-1.48-.31-2.23-.42-.11-.02-.22-.03-.33-.05.05-.06.1-.12.15-.18.17-.22-.09-.51-.3-.31-.16.15-.34.3-.53.44-.11,0-.22.02-.32.06-.47-.25-.94-.51-1.4-.79-.12-.08-.25-.17-.39-.26,0-.03.02-.06.03-.09.02-.09-.01-.15-.06-.2.58-.37,1.12-.85,1.63-1.29.67-.56,1.24-1.19,1.77-1.88.04,0,.08,0,.11-.01-.61,1.15-1.3,2.52-1.38,3.82-.01.19.26.32.38.17.77-.98.98-2.45,1.32-3.68.6,1.53,1.19,3.08,1.56,4.69Zm-6.03,2.36c.7-.4,1.36-.93,1.99-1.42.3-.23.59-.47.85-.73.45.09.95.08,1.36.16.39.07.77.15,1.16.23-1.64.74-3.33,1.28-5.06,1.8-.07.02-.11.06-.15.1-.05-.05-.09-.09-.14-.14Zm-1.03-.75c.63-.7,1.16-1.54,1.49-2.45.16.08.32.16.45.24.37.22.73.43,1.11.59-.89.59-1.83,1.16-2.44,1.99-.2-.15-.4-.29-.62-.38Zm-19.62,11.45s-.02,0-.03,0c-.15,0-.31,0-.47,0,.11-.18.22-.35.32-.53.07-.12-.1-.21-.18-.11-.13.18-.37.41-.5.65-.1,0-.2.02-.3.03.13-.11.24-.24.36-.35.27-.28.53-.56.79-.84,0,.39-.01.78,0,1.16Zm9.03-.4s-.11-.06-.18-.07c-1.08-.11-2.24-.16-3.32-.06-.52.05-1.06.08-1.53.28-.07-.9-.05-1.82.07-2.76.1-.78.42-1.9.91-2.97.02-.01.05-.03.07-.05.96-.96,1.92-1.67,3.12-.57.03.03.06.07.1.1-.02.04-.04.08-.04.13-.04.81-.2,1.71-.55,2.44-.3.64-.81,1.19-1.07,1.83-.11.27.12.54.39.41,1.29-.65,1.86-2.66,1.83-4.17.44.6.73,1.27,1.07,1.98.04.08.09.12.14.14-.44,1.07-.77,2.19-1,3.33Zm.17-8.51c.12.52.15,1.06.19,1.59.03.38.01.8.19,1.14.03.05.08.06.13.05,0,.11.03.21.04.32-.2-.3-.42-.59-.68-.86,0-.01.02-.02.02-.03.12-.35.04-.75-.01-1.11-.06-.4-.14-.79-.21-1.18-.03-.16-.3-.13-.28.04.05.4.09.79.13,1.19.02.26,0,.54.05.8-.04-.03-.07-.07-.11-.11.05-.43-.14-.94-.23-1.32-.06-.24-.42-.14-.36.1.06.27.13.53.17.8,0,.04,0,.07.01.11-.08-.05-.16-.11-.24-.16-.01-.2-.07-.4-.11-.61-.05-.27-.09-.54-.1-.81,0-.05-.02-.09-.05-.11.45-.13.93-.11,1.43.09,0,.02-.01.04,0,.06Zm-1.69-.04c0,.35,0,.82.11,1.21-.08-.04-.17-.08-.25-.11,0-.28-.17-.59-.28-.81-.01-.03-.04-.04-.06-.05.16-.11.32-.19.49-.26,0,0-.01.01-.01.02Zm-1.5,12.59c-.17.33-.42.82-.46,1.25-.76-1.39-1.26-2.85-1.47-4.38.7-.04,1.41-.24,2.13-.25.88-.01,1.77.07,2.65,0,.02,0,.04-.01.06-.01-.18,1.09-.26,2.2-.23,3.33-.06-.03-.12-.04-.17.02-.09.12-.21.26-.33.41.12-.2.26-.39.41-.57.12-.13-.07-.33-.19-.2-.29.29-.56.62-.76.98-.07.13-.14.26-.2.4-.07.03-.14.07-.21.1.17-.31.3-.66.43-.95.07-.15-.14-.29-.22-.13-.23.43-.59.88-.75,1.35-.29.14-.58.27-.86.42-.02-.04-.04-.08-.07-.13.13-.19.17-.43.22-.66.07-.29.15-.57.26-.84.07-.17-.16-.31-.24-.15Zm11.77-11.11c-.01.12-.02.23-.04.35-.12.02-.25.06-.4.12-.26.12-.13.47.07.55.76.31,1.13.47,1.04,1.44-.08.82-.31,1.63-.6,2.4-.46,1.21-1.02,2.36-1.72,3.43-.23.34.27.71.54.44,0,.05.03.09.08.1-.04.03-.08.07-.12.1-1.01.22-2.03.48-3.05.79.14-.09.27-.19.42-.28.14-.08.02-.28-.12-.21-.36.17-.74.35-1.02.63.17-.51.32-1.02.47-1.52.35.06.75-.03,1.09-.06.5-.04,1.02-.06,1.53-.05.26,0,.32-.42.06-.48-.59-.13-1.2-.26-1.81-.25-.21,0-.43,0-.63.02.44-1.48.93-2.94,1.81-4.33.43-.67,1.35-2.21,2.4-3.19Zm11.56,13.8c-.53,4.99-12.66,5.84-16.17,6.14-4.59.39-9.8,0-14.18-1.64-2.45-.92-9.15-4.96-5.1-8.22,1.76-1.42,3.89-1.92,6.08-1.81.03,0,.05,0,.08-.01.17,1.8.67,3.46,1.62,4.61-.05.02-.09.06-.11.12-.09.26-.2.51-.35.74-.08.14-.2.25-.18.42,0,.07.05.12.12.12.4.02.64-.78.76-1.13.02.02.03.04.05.05-.02.03-.04.05-.04.09-.01.25-.07.51-.21.72-.08.11-.09.16-.07.29,0,.05.06.08.11.08.37.03.49-.55.53-.92.09.08.18.16.28.23-.13.26-.33.52-.33.82,0,.09.1.17.18.11.23-.18.31-.48.43-.74.02.01.04.03.07.05.3.17.61-.23.37-.49-2.65-2.91-2.89-7.53-1.85-11.27,1.39-5.02,7.61-6.91,10.52-2.01,0,0,0,.01.01.02-.2.28-.38.58-.55.87.01-.05.03-.09.04-.14.04-.13-.16-.19-.2-.06-.09.28-.21.54-.34.8,0,0,0,0,0,0,.11-.49.18-1,.18-1.5,0-.13-.18-.13-.19,0-.03.54-.24,1.09-.37,1.6-.06.25-.19.53-.08.78.02.04.08.05.11.03.02-.01.03-.04.05-.06-.08.16-.17.31-.24.47-.05-.18-.12-.36-.2-.53.02,0,.04,0,.05-.02.23-.27.22-.69.26-1.04.06-.53.11-1.07.17-1.6.02-.15-.23-.19-.26-.04-.08.53-.17,1.06-.26,1.59,0,.05-.02.09-.03.14.05-.78-.09-1.6-.19-2.34-.02-.14-.24-.11-.23.03.02.17.02.35.02.53-.05-.36-.12-.72-.22-1.07.2.07.43-.2.24-.37-2.57-2.18-4.9,1.69-5.85,3.83-1.46,3.27-.97,8.37,1.31,11.16-.6.33-1.19.66-1.77,1.01,0,0,0-.02.01-.03.07-.18-.17-.34-.26-.16-.09.17-.16.36-.28.51-.03.02-.06.03-.09.05-.27.17-.1.66.22.55,4.99-1.75,9.56-4.3,14.69-5.71.44-.12.25-.78-.19-.7-.11.02-.22.05-.33.07,0-.02-.01-.04-.03-.06.62-.23,1.22-.82,1.64-1.26.16-.16-.08-.41-.24-.25-.32.31-.65.59-1.03.82-.19.12-.4.22-.59.36.09-.11.17-.22.25-.34.4-.1.78-.56,1.07-.85.35-.35.69-.71,1-1.1.13-.17-.09-.41-.23-.24-.35.42-.74.8-1.14,1.16-.04.03-.08.06-.12.1.1-.19.2-.39.3-.59.13-.14.24-.29.36-.43.34-.39.69-.76,1.07-1.1.16-.15-.07-.39-.24-.25-.21.18-.41.38-.61.57.56-.59.95-1.41,1.44-2.05.12-.16-.09-.4-.22-.23-.33.41-.68.84-.99,1.29.09-.33.17-.65.22-.95-.02.09-.04.17-.03.26,0,.07.07.11.13.08.39-.22.55-.77.72-1.18.2-.47.39-.95.58-1.43.07-.19-.23-.32-.31-.14-.22.52-.45,1.03-.69,1.53-.13.26-.31.54-.39.82.02-.09.04-.19.05-.28.03-.22.04-.48.03-.75.01.09.1.11.15.04.25-.34.36-.81.5-1.21.13-.37.25-.75.36-1.14.04-.14-.16-.19-.21-.06-.26.68-.83,1.53-.81,2.29-.02-.29-.06-.59-.14-.86.1-.21.15-.44.22-.66.11-.39.2-.79.26-1.2.03-.18-.23-.26-.27-.08-.08.4-.2.79-.33,1.18-.03.08-.06.16-.09.24-.05-.09-.11-.17-.18-.24.15-.25.2-.61.21-.89.01-.25-.36-.25-.38,0-.01.22-.11.44-.15.66-.06-.03-.12-.06-.19-.08,0-.2-.02-.41-.02-.59,0-.02-.01-.02-.02-.03.59-.47,1.21-.72,1.79-.52,1.38.48,1.42,2.72,1.28,3.94-.19,1.62-.74,3.14-1.78,4.37-.06.07-.08.15-.08.22-.18.14-.11.53.19.57,1.41.19,5.03.95,7.47,2.32.1.17.27.3.52.32,1.18.78,1.97,1.73,1.85,2.86Zm-36.79.62s0,0,0,0c.2.36.46.73.79,1.11,2.91,3.32,7.65,4.76,12.4,5.2,1.75.64,3.75.78,5.58.64.14,0,.14-.22,0-.22-.98.02-1.93-.12-2.89-.27,2.15.04,4.23-.08,6.05-.3,2.49-.3,12.66-1.1,15.05-4.79-.3,7.69-11.77,10.5-17.46,10.56-.11,0-.23,0-.35,0,.03-.05.01-.12-.06-.12-.49,0-.97-.02-1.45-.05.05,0,.1,0,.14,0,.14,0,.14-.23,0-.23-1.23.03-2.41-.09-3.57-.29-1.45-.32-2.89-.73-4.34-1.12-.06-.01-.08.05-.04.09-.07.03-.1.13-.02.17.55.29,1.13.51,1.72.7-4.77-1.19-9.09-3.77-10.7-8.66.33.32.69.58,1.07.73.08.03.17-.08.12-.16-.35-.53-.87-.91-1.26-1.41-.09-.12-.17-.24-.26-.37-.03-.15-.07-.29-.1-.45-.03-.15-.14-.2-.25-.18-.08-.18-.15-.37-.2-.56ZM5.19,15.82c.03-.16-.17-.23-.24-.11.05-3.32.97-6.52,2.89-8.77C12.94.94,22.07-1.2,28.54,3.27c-4.73-2.07-11.4-.65-14.43,3.61-2.59,3.64-3.29,8.85-2.48,13.67-.44-2.04-.54-4.05-.19-6.22.02-.15-.17-.21-.22-.06-.88,2.64-.54,5.87.73,8.32.03.05.08.06.12.04.62,2.33,1.6,4.5,2.89,6.26.01.35.1.72.24,1.1-.07.01-.14.06-.14.17,0,0,0,0,0,0-2.01-.14-3.74-.92-5.17-2.12.05.01.09.03.14.03.77,0,.77-1.24,0-1.24-.5,0-.67.52-.52.88-2-1.84-3.38-4.54-4.06-7.46,0,0,0,0,0,0,.06.11.21.03.19-.08-.29-1.48-.74-2.83-.44-4.36Z"/>
    <path class="cls-1" d="m18.77,19.04c-1.15,1.85-1.98,3.89-3.12,5.75-.04.07-.17.03-.14-.06.75-2.05,1.88-4,3.04-5.82.09-.13.29-.01.21.13Z"/>
    <path class="cls-1" d="m21.45,17.07c-.91,1.1-1.82,2.2-2.74,3.3-.05.06-.14-.02-.1-.08.82-1.19,1.77-2.27,2.72-3.35.07-.08.18.04.12.12Z"/>
    <path class="cls-1" d="m20.19,16.5c-1.09,1.27-1.96,2.7-3.02,3.99-.05.06-.12-.02-.1-.08.69-1.52,1.84-2.88,2.91-4.13.12-.14.32.07.2.21Z"/>
    <path class="cls-1" d="m18.9,15.97c-1.07,1.52-1.82,3.26-2.91,4.75-.04.06-.13,0-.1-.06.77-1.68,1.71-3.34,2.77-4.83.1-.14.33,0,.23.14Z"/>
    <path class="cls-1" d="m18.78,12.9c-1.04,1.46-1.91,3.02-2.86,4.53-.07.12-.23.02-.18-.11.71-1.65,1.78-3.13,2.82-4.56.1-.13.32,0,.22.13Z"/>
    <path class="cls-1" d="m16.78,12.79c-.5,1.01-1.12,1.96-1.71,2.92-.05.08-.2.03-.16-.07.41-1.07,1.11-1.98,1.61-3,.09-.18.35-.02.26.16Z"/>
    <path class="cls-1" d="m15.48,12.54c-.61,1.15-1.05,2.35-1.58,3.54-.05.12-.21.03-.19-.08.22-1.27.91-2.5,1.51-3.61.09-.17.34-.02.25.15Z"/>
    <path class="cls-1" d="m13.42,15.83c-.04.09-.17.04-.17-.05-.01-1.23.73-2.58,1.29-3.63.07-.14.28-.02.21.13-.31.59-.57,1.2-.79,1.83-.2.56-.3,1.17-.54,1.71Z"/>
  </g>
  <path class="cls-1" d="m48.24,23.42c.05.05.1.11.13.17.06.11.06.25,0,.36-.04.06-.08.12-.13.17-.29.32-.82.07-.82-.35s.53-.68.82-.35Z"/>
  <path class="cls-1" d="m51.92,22.12c.52,0,.52.84,0,.84s-.52-.84,0-.84Z"/>
  <path class="cls-1" d="m52.4,23.56c.26,0,.26.42,0,.42s-.26-.42,0-.42Z"/>
  <path class="cls-1" d="m53.68,18.61c0-.08.01-.16.02-.25.01-.13.15-.14.2-.06.04-.02.09-.04.15-.04.42,0,.42.68,0,.68-.16,0-.26-.1-.3-.23-.04-.02-.08-.05-.07-.11Z"/>
  <path class="cls-1" d="m49.08,22.51c.34,0,.34.54,0,.54s-.34-.54,0-.54Z"/>
  <path class="cls-1" d="m56.42,23.11c.51,0,.51.82,0,.82s-.51-.82,0-.82Z"/>
  <path class="cls-1" d="m58.55,24.28c.28,0,.28.46,0,.46s-.28-.46,0-.46Z"/>
  <path class="cls-1" d="m49.53,23.08c.06-.21.23-.38.5-.38.65,0,.7.94.17,1.11-.08.13-.21.24-.41.24-.55,0-.63-.73-.27-.97Z"/>
  <path class="cls-1" d="m9.79,33.83c.93,0,.93,1.5,0,1.5s-.93-1.5,0-1.5Z"/>
  <path class="cls-1" d="m12.39,32.03c.72,0,.72,1.17,0,1.17s-.72-1.17,0-1.17Z"/>
  <path class="cls-1" d="m11.68,30.49c.51,0,.51.82,0,.82s-.51-.82,0-.82Z"/>
  <path class="cls-1" d="m8.13,30.09s.04-.02.05-.04c.39-.37.95-.1,1,.43.02.24-.11.46-.3.61-.06.21-.23.39-.51.39-.38,0-.55-.31-.54-.62-.1-.28-.01-.62.3-.77Z"/>
  <path class="cls-1" d="m5.06,28.41s.03.06,0,.06-.03-.06,0-.06Z"/>
  <path class="cls-1" d="m5.53,26.25c.58,0,.58.93,0,.93s-.58-.93,0-.93Z"/>
  <path class="cls-1" d="m7.19,29.03c.49,0,.49.79,0,.79s-.49-.79,0-.79Z"/>
  <path class="cls-1" d="m5.53,30.2c.15,0,.25.06.32.15.04-.02.09-.04.15-.04.42,0,.42.67,0,.67-.06,0-.11-.02-.15-.04-.07.09-.18.15-.32.15-.56,0-.56-.91,0-.91Z"/>
  <path class="cls-1" d="m4.58,32.1s.03.06,0,.06-.03-.06,0-.06Z"/>
  <path class="cls-1" d="m7.42,31.87c.32,0,.32.51,0,.51s-.32-.51,0-.51Z"/>
  <path class="cls-1" d="m1.98,27.64c.68,0,.68,1.1,0,1.1s-.68-1.1,0-1.1Z"/>
  <path class="cls-1" d="m.8,30c.5,0,.5.81,0,.81s-.5-.81,0-.81Z"/>
  <path class="cls-1" d="m1.51,32.66c.26,0,.26.41,0,.41s-.26-.41,0-.41Z"/>
  <path class="cls-1" d="m50.74,18.32c.66,0,.66,1.06,0,1.06s-.66-1.06,0-1.06Z"/>
  <path class="cls-1" d="m53.58,26.44c.65,0,.65,1.05,0,1.05s-.65-1.05,0-1.05Z"/>
  <path class="cls-1" d="m55.24,24.68c.4,0,.4.64,0,.64s-.4-.64,0-.64Z"/>
  <path class="cls-1" d="m52.35,24.84c.4.79-.57,1.64-1.22.97-.81-.84.69-1.99,1.22-.97Z"/>
  <path class="cls-1" d="m50.03,21.5c.68,0,.68,1.1,0,1.1s-.68-1.1,0-1.1Z"/>
  <path class="cls-1" d="m13.81,36.21c.12,0,.12.19,0,.19s-.12-.19,0-.19Z"/>
  <path class="cls-1" d="m14.52,34.41c.52,0,.52.84,0,.84s-.52-.84,0-.84Z"/>
  <path class="cls-1" d="m5.29,34.17c.82,0,.82,1.32,0,1.32s-.82-1.32,0-1.32Z"/>
  <path class="cls-1" d="m2.45,38.2c.7,0,.7,1.12,0,1.12s-.7-1.12,0-1.12Z"/>
  <path class="cls-1" d="m.56,35.21c.75,0,.75,1.2,0,1.2s-.75-1.2,0-1.2Z"/>
  <path class="cls-1" d="m2.69,21.8c.31,0,.31.49,0,.49s-.31-.49,0-.49Z"/>
  <path class="cls-1" d="m14.29,37.96c.7,0,.7,1.12,0,1.12s-.7-1.12,0-1.12Z"/>
</svg>