<?xml version="1.0" encoding="UTF-8"?>
<svg id="_Слой_1" data-name="Слой 1" xmlns="http://www.w3.org/2000/svg" viewBox="0 0 58.48 46.08">
  <defs>
    <style>
      .cls-1 {
        fill: #39180e;
        fill-rule: evenodd;
        stroke-width: 0px;
      }
    </style>
  </defs>
  <path class="cls-1" d="m36.79,34.28c.94-.44,1.83-.97,2.62-1.62.15-.12-.04-.34-.2-.26-.03.02-.06.03-.1.05,4.93-4.88,5.92-13.62.73-18.68-5.02-4.89-14.14-5.98-19.48-1.4-.04,0-.08,0-.13.02-6.17,2.81-5.96,12.48-2.81,17.43,3.93,6.18,13.12,8.22,19.36,4.45ZM18.35,14.85c.06.09.19.15.28.05,5.68-6.34,14.47-6.19,20.84-.74,5.56,4.77,3.61,14.08-1.29,18.49-.27.25-.56.47-.85.69-4.64,2.06-9.23,2.41-14.21.09-7.41-3.46-7.78-12.03-4.77-18.57Zm-.29-.01c-3.14,5.79-2.79,12.81,2.2,17.27-.89-.75-1.69-1.6-2.36-2.55-2.8-3.94-2.97-10.79.16-14.72Z"/>
  <path class="cls-1" d="m22.82,17.49c-.35.43-.48.94-.49,1.48-.66,4.26,3.68,7.79,6.4,10.61.05.08.1.16.15.24,0,0,0,0-.01.01-.24.27.16.67.4.4.05-.06.11-.12.16-.18.01-.01.02-.02.03-.03,2.62-2.95,7.19-8.38,5.64-12.52-1-2.69-5.02-.26-5.87,1.69-.01-.03-.03-.05-.05-.08.01-.04.02-.07.04-.11.05-.14-.1-.21-.21-.16-1.33-1.9-4.56-3.35-6.18-1.35Zm6.2,2.44c.04.08.11.11.19.11-.53,2.08-1.2,4.08-1.94,6.1-.05.14.16.21.23.1.41-.68.73-1.41.98-2.16-.27.91-.51,1.82-.7,2.73-.03.13.16.22.22.09,1.12-2.46,1.64-5.19,2.61-7.72.1-.25-.3-.36-.4-.11-.48,1.23-.95,2.5-1.36,3.78.26-1,.46-2.02.68-3.02,0,0,0-.01,0-.02.08-.06.11-.13.1-.21.1-.13.25-.33.48-.61.3-.37.63-.73.96-1.07.8-.85,2.84-2.11,3.7.21.37,1-.08,2.28-.41,3.23-.36,1.04-.85,2.07-1.43,3.07.36-1.2.76-2.39,1.19-3.57.08-.22-.27-.31-.34-.09-.56,1.54-1.14,3.08-1.47,4.69-.27.42-.56.84-.86,1.24.85-1.9,1.33-4.02,1.85-6,.07-.25-.32-.36-.39-.11-.65,2.39-1.53,4.7-2.2,7.08-.46.58-.93,1.15-1.4,1.68-.05-.06-.1-.11-.15-.17-.78-1.28-1.78-2.45-2.77-3.63.17-.28.31-.57.45-.87-.09.32-.17.64-.25.96-.04.15.18.26.26.11.99-1.84,1.44-3.97,2.1-5.96.03.05.06.1.08.15Zm-3.29-2.68c1.29.26,2.33,1.09,3,2.17-.41,1.05-.84,2.12-1.23,3.2.26-1.05.45-2.13.72-3.1.06-.2-.25-.29-.31-.09-.61,1.91-1.27,3.85-1.81,5.78-.14-.16-.28-.33-.41-.49,1.13-1.78,1.42-4.15,1.73-6.2.04-.25-.33-.36-.38-.1-.39,2.06-1.04,4.01-1.57,6.02-.13-.17-.26-.34-.39-.51.91-1.73,1.11-3.92,1.68-5.75.08-.25-.31-.36-.39-.11-.58,1.76-1.13,3.55-1.66,5.33-.11-.16-.23-.32-.33-.48.8-1.47,1.08-3.32,1.52-4.91.06-.23-.28-.32-.35-.1-.47,1.48-1.19,3.06-1.4,4.63-.1-.18-.22-.35-.31-.53.38-.46.56-1.11.73-1.66.29-.94.41-1.91.6-2.87.03-.16-.2-.22-.24-.07-.18.75-.4,1.5-.61,2.24-.18.63-.51,1.22-.74,1.84-.06-.12-.12-.25-.17-.38.02,0,.05-.01.07-.04.74-.95.92-2.42,1.07-3.58.03-.23-.32-.34-.36-.1-.1.59-.25,1.17-.42,1.75-.16.52-.4,1.04-.51,1.57-.05-.14-.1-.28-.14-.43.13-.31.18-.67.27-.99.16-.55.34-1.09.51-1.63.03-.09,0-.17-.07-.21.5-.29,1.16-.37,1.91-.23Zm-2.8,1.94s-.01.04-.02.05c-.02-.62.18-1.12.53-1.47-.17.47-.35.94-.51,1.42Z"/>
  <path class="cls-1" d="m29.64,24.71c.14-.27.22-.56.35-.83.05-.11-.12-.22-.17-.1-.13.28-.2.57-.32.85-.04.1.09.18.14.09Z"/>
  <path class="cls-1" d="m29.17,27.58c1.56-2.69,2.09-5.83,3.05-8.75.06-.17-.21-.24-.27-.07-1.04,2.9-1.9,5.85-3,8.73-.05.13.16.21.22.09Z"/>
  <path class="cls-1" d="m32.1,20.94c-.71,2.64-1.82,5.13-2.61,7.74-.03.09.1.14.15.06,1.23-2.43,2.11-5.08,2.76-7.72.05-.19-.25-.28-.3-.08Z"/>
  <path class="cls-1" d="m35.19,33.34c2.52-1.3,5.45-3.36,5.91-6.4.02-.14-.18-.26-.25-.1-.6,1.39-1.16,2.56-2.22,3.66-1.03,1.07-2.29,1.9-3.52,2.72-.07.05,0,.16.07.12Z"/>
  <path class="cls-1" d="m17.61,19.78c.92-2.78,2.23-5.02,4.75-6.64.11-.07.04-.27-.09-.21-2.51,1-4.7,4.13-4.9,6.82-.01.15.2.16.24.03Z"/>
  <path class="cls-1" d="m41.5,25.05c.25-.38.3-.91.41-1.35.05-.2-.26-.29-.32-.09-.11.44-.31.93-.27,1.39,0,.09.12.13.18.05Z"/>
  <path class="cls-1" d="m23.07,12.65c.33-.19.77-.33,1.03-.61.11-.11.02-.27-.12-.29-.41-.04-.8.33-1.1.56-.2.15-.02.47.2.34Z"/>
  <path class="cls-1" d="m35.17,37.81c.35.77.59,1.68,1.09,2.36.1.14.3.06.27-.11-.15-.85-.68-1.66-1.16-2.37-.09-.13-.27-.02-.21.12Z"/>
  <path class="cls-1" d="m42.29,6.51c-3.99-3.24-9.12-4.74-14.21-4.67-6.83.1-11.66,3.8-16.13,8.57-.09.1-.08.21-.02.3-6.25,9.03-4.19,21.25,4.59,27.9,9.1,6.9,22.79,5.23,29.82-3.69,6.9-8.74,4.22-21.7-4.05-28.41ZM9.29,18.82c-.14,1.26-.14,2.55-.02,3.83-.07.02-.14.03-.21.05-.04.01-.07.04-.09.06,0-1.31.1-2.64.32-3.95Zm3.86,16.02c-2.79-3.38-4.12-7.56-4.18-11.86.03.05.07.08.14.08.07,0,.13,0,.2-.01.08.73.21,1.46.36,2.18.19,1.19.49,2.36.87,3.5-.13-.26-.26-.51-.4-.77-.08-.15-.33-.04-.27.11.23.6.48,1.22.74,1.84-.15.11-.08.37.12.3,0,0,0,0,0,0,.69,1.58,1.51,3.14,2.59,4.46-.08.02-.15.1-.16.18Zm4.35,3.82c-1.55-.98-2.87-2.13-3.98-3.39.5.46,1.02.93,1.54,1.4.02.09.1.17.2.18.91.8,1.87,1.57,2.88,2.2-.21-.13-.43-.25-.64-.39Zm28-3.49c-6.25,7.91-17.61,8.89-26.15,4.54.19.04.32-.2.14-.33-.09-.07-.18-.14-.27-.2.69.4,1.4.75,2.13,1.06.02.13.17.2.28.11,7.07,2.85,15.69,1.48,21.34-3.61.13.1.27.2.42.26.1.04.23-.08.18-.18-.06-.15-.15-.28-.25-.41,1.01-.96,1.93-2.03,2.71-3.23.46-.72.84-1.49,1.16-2.28.13.03.25.05.38.04.1,0,.14-.11.08-.19-.09-.09-.19-.17-.3-.25,1.48-4.07,1.25-8.91.69-13.01-.69-5.11-3.27-8.81-7.68-11.44-1.02-.6-2.1-1.13-3.23-1.57-.04-.11-.17-.16-.28-.11-8.34-3.15-19.06-1.73-23.18,7.03-.08.16.15.3.24.14.46-.74.95-1.42,1.47-2.05.23.19.46.38.68.58.28.26.56.57.9.75.14.07.29-.07.22-.22-.18-.34-.49-.62-.77-.87-.23-.21-.48-.4-.74-.57,1.64-1.91,3.54-3.32,5.62-4.27.36.9.68,2.06,1.41,2.71.05.04.12,0,.11-.06-.23-.94-.67-1.95-1.14-2.82,2.17-.93,4.51-1.36,6.92-1.38-.04.46-.04.91-.04,1.37,0,.55-.04,1.11.13,1.64.03.11.18.11.22,0,.15-.46.13-.94.13-1.41,0-.53,0-1.06-.04-1.59,2.5.04,5.07.54,7.57,1.44-.51.79-.93,1.76-1.18,2.63-.03.12.12.2.2.12.68-.65,1.01-1.71,1.4-2.59.82.31,1.64.66,2.44,1.06,1.44.71,2.68,1.61,3.74,2.65-.28.18-.52.45-.76.68-.38.35-.96.72-1.2,1.19-.04.07,0,.18.1.17.48-.05.94-.55,1.28-.86.29-.27.65-.55.87-.89,1.36,1.41,2.4,3.08,3.16,4.89-.11-.2-.22-.4-.33-.6-.03-.05-.13-.02-.1.04.29.73.53,1.49.75,2.26-.93.18-1.88.6-2.74.95-.16.06-.1.3.07.26.9-.23,1.95-.39,2.75-.91.19.68.36,1.37.54,2.05.03.13.21.13.26.02.29,1.57.41,3.19.38,4.8-.47-.05-.96.04-1.42.08-.45.04-.88.11-1.29.29-.14.06-.07.32.08.3.46-.05.93-.11,1.39-.15.41-.03.84-.03,1.23-.15-.08,2.47-.5,4.93-1.23,7.2-.26-.12-.54-.23-.78-.35-.59-.28-1.18-.54-1.78-.79-.16-.07-.31.15-.14.25.56.32,1.1.67,1.68.96.27.14.56.3.86.42-.77,2.24-2,4.08-3.53,5.57-.26-.31-.6-.59-.89-.85-.47-.43-.99-.8-1.53-1.14-.22-.14-.41.2-.2.35.54.39,1.02.84,1.51,1.29.24.23.48.49.74.71-3.54,3.21-8.57,4.63-13.55,4.56.05-.89,0-1.82-.05-2.7-.01-.21-.32-.21-.33,0-.06.85-.25,1.87.07,2.69-2.48-.07-4.94-.5-7.18-1.26.14-.28.29-.55.42-.84.14-.33.31-.68.27-1.04-.01-.1-.13-.18-.22-.09-.22.23-.31.53-.43.82-.14.34-.28.68-.42,1.02-.41-.15-.81-.3-1.2-.47-1.64-.71-3.13-1.73-4.44-2.99.59-.54,1.2-1.12,1.58-1.79.07-.13-.08-.32-.22-.22-.62.47-1.15,1.1-1.69,1.69-1.69-1.7-3.07-3.78-4.09-6.05,0,0,0,0,0-.01.28-.08.57-.16.85-.25.42-.13.84-.23,1.18-.52.08-.07.01-.21-.09-.21-.42,0-.81.16-1.21.29-.28.09-.56.2-.83.31-.6-2.29-1.02-4.48-1.19-6.72.13-.03.27-.07.4-.1.51-.13,1.07-.18,1.54-.39.09-.04.05-.17-.03-.19-.41-.15-.84-.05-1.26.05-.23.06-.47.12-.7.18-.03-.57-.05-1.14-.05-1.72.41-1.8.79-3.55,1.3-5.28h0c.03.06.1.08.16.06.21.08.43.15.64.23.43.16.86.36,1.33.38.16,0,.22-.23.08-.3-.41-.22-.86-.35-1.29-.51-.17-.06-.35-.13-.53-.18.75-1.5,1.4-3.07,2.27-4.49.07-.11-.1-.2-.17-.1-1.03,1.4-1.78,2.87-2.36,4.48.31-1.01.66-2.01,1.09-3.03.06-.13-.11-.24-.2-.12-1,1.46-1.73,3.23-2.19,5.08-.08-.03-.17,0-.2.09-.15.56-.27,1.13-.36,1.71.35-2.82,1.33-5.49,3.08-7.69.14-.17-.11-.42-.25-.25-.53.67-.99,1.39-1.38,2.13.32-.72.66-1.42,1.04-2.11.06,0,.13,0,.19-.07,4.49-4.43,8.48-7.74,14.99-8.36,5-.47,10,1.22,14.06,4.05,9.26,6.43,11.07,19.97,4.15,28.72Z"/>
  <path class="cls-1" d="m10.95,10.95c1.21-1.77,2.66-3.24,4.14-4.78.06-.07-.02-.18-.1-.13-1.81,1.15-3.09,3.03-4.15,4.85-.04.07.06.13.11.06Z"/>
  <path class="cls-1" d="m47.22,34.55c-1.29,2.05-2.77,3.82-4.75,5.23-.13.09-.02.27.12.21,2.19-1.03,3.8-3.18,4.87-5.29.08-.16-.15-.3-.25-.14Z"/>
  <path class="cls-1" d="m5.71.91c-.04-.19-.26-.17-.34-.04,0,0,0,0-.01,0-.8.15-.65,2.46-.68,2.97-.13,2.15-.23,4.18-1,6.14-.36-2.98-.17-6.05-.7-8.95-.03-.16-.23-.11-.28,0-.36.85-.27,7.26-.82,8.32C1.67,7.53,2.11.66.27.74c-.14,0-.14.22,0,.22.03,0,.06.01.09.02-.45,2.77.02,5.55.17,8.33.13,2.54,1.78,4.33,1.96,6.91.11,1.51.14,3.04.14,4.57-.05-.1-.09-.21-.12-.33-.07-.3-.49-.17-.45.12.06.39.23.72.56.94,0,0,0,0,0,0,0,.18,0,.36-.01.54-.06-.04-.12-.08-.18-.13-.2-.17-.49.1-.29.29.13.13.29.26.46.35-.07,2.68-.23,5.36-.39,8-.21,3.45-.34,6.91-.09,10.36.1,1.32.13,3.97,1.68,4.49.11.04.23-.04.26-.15,1.05-4.03.64-9.39.11-13.47-.38-2.89-.69-5.98-.77-9.07.29-.02.61-.11.71-.4.02-.07-.03-.15-.1-.17-.21-.04-.42.04-.63.07,0-.19-.02-.38-.02-.56.13-.02.24-.08.3-.19.03-.06.03-.14-.02-.19-.08-.08-.18-.1-.28-.12,0-2.5.16-4.97.6-7.32,0-.05,0-.09-.02-.13,1.26-4.35,2.86-8.09,1.78-12.84Zm-1.68,34.34c.07,1.77-.1,3.54-.06,5.31.01.64.12,5.8-.84,3.5-.89-2.15-.69-4.97-.69-7.25,0-4.7.38-9.4.48-14.09.03,0,.05,0,.08.02.22,4.2.87,8.44,1.02,12.52Zm1.2-26.53c-.47,2.01-1.55,3.78-1.88,5.84,0,.02,0,.04.01.06-.18,1.03-.3,2.07-.37,3.11-.04-1.42-.16-2.84-.52-4.19-.48-1.84-1.46-3.36-1.56-5.43-.11-2.32-.39-4.6-.29-6.93.92,1.27.38,7.54.92,8.61.07.14.21.12.31.04,1.01-.28.86-5.43.88-6.01.03-.63.05-1.27.12-1.9.08,2.77-.29,5.8.47,8.48.02.08.07.11.12.13-.03.06-.05.11-.07.17-.08.16.08.32.24.24,1.25-.65,1.27-3.07,1.4-4.27.11-1.07.16-2.14.22-3.22.03-.55-.02-1.35.2-1.94.35,2.34.35,4.91-.19,7.19Z"/>
  <path class="cls-1" d="m57.19,25.53c.06-.06.12-.12.17-.2.09-.15-.04-.3-.19-.29,0-.09,0-.18-.01-.27,0-.02.03-.04.03-.07.01-.05,0-.09-.04-.11-.06-1.25-.1-2.5-.11-3.75-.03-3.58.17-7.19.32-10.77.14-3.25-.34-6.55.03-9.77.02-.22-.35-.27-.39-.05-.01.06-.02.12-.03.18,0-.14-.17-.3-.34-.21-1.16.54-1.46,1.77-1.77,2.93-.75,2.8-1.36,5.78-1.96,8.62-.25,1.18-.47,2.31-.6,3.44-.11.05-.18.18-.1.29.02.03.04.06.06.1-.1,1.14-.08,2.29.14,3.5.39,2.1,2.37,3.27,3.38,5.06-.09.04-.16.12-.13.23.08.28.22.56.47.7-.01.07-.02.15-.04.22-.1-.01-.2-.04-.3-.07-.28-.09-.37.32-.12.43.1.04.22.07.34.1-.97,5.69-3.24,11.68-1.92,17.41.69,2.98,3.17,1.49,3.38-.81.53-5.64,0-11.23-.28-16.84Zm-1.54-2.63c-.53-.63-1.09-1.22-1.65-1.82-.95-1.02-1.31-2.28-1.39-3.59.22.26.41.59.74.7.08.03.15-.06.13-.13-.1-.34-.39-.64-.64-.89-.08-.08-.17-.07-.24-.02,0-.34,0-.67.01-1.01.02.04.05.07.08.11.15.24.27.55.52.7.06.04.16,0,.17-.07.1-.5-.37-1.04-.71-1.45.05-.5.12-.99.18-1.46.04-.25.09-.49.13-.74.14.48.17,1,.23,1.48,0,.04.07.07.09.02.3-.68.12-1.31-.26-1.91.12-.62.25-1.23.4-1.83.05.25.13.49.28.67.06.08.19.03.22-.06.14-.47-.13-1.04-.27-1.5.11-.4.22-.8.35-1.19.02.34.08.68.3.93.05.05.12.02.14-.04.19-.53,0-1.21-.15-1.74,0-.01-.01-.02-.02-.02.06-.18.11-.36.17-.55.1-.3.17-.67.24-1.08.03.09.05.18.07.26.12.36.18.76.42,1.06.05.07.15.02.18-.05.24-.66-.28-1.52-.55-2.16.05-.42.11-.85.17-1.28.08.36.23.69.53.87.12.07.25-.05.23-.17-.05-.25-.18-.47-.27-.71-.11-.28-.19-.57-.27-.86,0-.02-.03-.03-.04-.05.27-1.23.72-2.31,1.67-2.73.06-.02.09-.06.1-.11-.28,1.72-.17,3.39-.05,5.14.16,2.57-.11,5.18-.18,7.76-.11,3.78-.07,7.49.07,11.21-.07.02-.14.04-.21.06,0-.07,0-.15,0-.22,0-.13-.09-.18-.19-.17-.13-.48-.34-.91-.74-1.38Zm1.52,15.02c0,1.22-.06,2.43-.14,3.64.32,1.84-.49,2.33-2.44,1.48-.24-1-.36-2.01-.36-3.03-.23-4.86,1.91-9.44,2.29-14.22.11,0,.21-.03.31-.06.07,1.62.14,3.25.25,4.89.15,2.42.1,4.87.1,7.29Z"/>
  <path class="cls-1" d="m58.14,39.43c-.18,2.29-.69,4.46-1.57,6.58-.03.06.08.1.11.05,1.15-2.06,1.89-4.25,1.79-6.63,0-.22-.32-.21-.33,0Z"/>
  <path class="cls-1" d="m.55,38.65c.09,1.13.12,2.27.61,3.31.07.14.26.03.23-.1-.19-1.07-.39-2.13-.52-3.21-.02-.2-.34-.21-.32,0Z"/>
  <path class="cls-1" d="m0,40.66c-.03.78.2,1.62.74,2.21.09.09.21,0,.2-.11-.13-.73-.56-1.34-.63-2.09-.02-.2-.3-.2-.31,0Z"/>
  <path class="cls-1" d="m6.29.55c.31.99.44,1.98.61,3,.01.07.14.08.15,0,.14-1.04-.17-2.1-.5-3.08-.06-.17-.32-.1-.26.07Z"/>
  <path class="cls-1" d="m53.72,3.26c.23-.41.3-.91.46-1.35.21-.58.48-1.14.89-1.61.15-.17-.09-.42-.25-.25-.74.74-1.42,2.07-1.35,3.15,0,.12.18.18.24.07Z"/>
</svg>