<?xml version="1.0" encoding="UTF-8"?>
<svg id="_Слой_1" data-name="Слой 1" xmlns="http://www.w3.org/2000/svg" viewBox="0 0 62.82 49.21">
  <defs>
    <style>
      .cls-1 {
        fill: #39180e;
        fill-rule: evenodd;
        stroke-width: 0px;
      }
    </style>
  </defs>
  <path class="cls-1" d="m35.08,38.81c-.27-1.03-1.6-1.81-2.57-1.17-.71.46-1.3,1.11-1.79,1.86-.18-1.07-.12-2.23.13-3.23.19-.77.9-1.7,1.75-2.37.27.45.65.85,1.13,1.16.93.59,2.22.5,2.33-.69.03.1.05.21.07.33.02.11.19.08.18-.03-.12-2.71-1.92-2.26-3.5-1.06-.72-1.29.09-2.89.99-3.98,1.67-2.02,1.68,1.03,3.07,1.43,1.86.54,2.69-2.61,1.81-4.36.86-.19,1.61-1.27,2.05-2.31.27.06.57.07.86,0,.13-.03.07-.22-.05-.19-.9.16-1.59-.49-1.4-1.4.19-.9,1.18-1.12,1.94-.88.38.12.87.5,1.25.96-.49.62-.7,1.47-.38,2.22.03.08.1.13.19.1,1.35-.36,1.28-1.38.68-2.26.21-.24.45-.47.72-.72.06-.06,0-.18-.09-.15-.33.11-.62.31-.87.55-.5-.59-1.21-1.06-1.83-1.14-1.03-.13-1.95.56-2,1.62-.03.62.3,1.02.76,1.21-.19.24-.38.49-.55.75-.2.26-.4.52-.61.78-.68-.07-1.16-.07-1.45-.02-.16-.09-.34-.16-.54-.2-.16-.03-.36.15-.23.3.38.5.77.74,1.14.79.03.02.06.04.09.06.48.76.36,1.86.14,2.67-.35,1.27-1.7,1.67-2.36.47-.18-.33-.32-.69-.51-1.02-.89-1.5-2.62,1.18-2.99,1.82-.62,1.04-.58,2.18-.06,3.11-.88.72-1.66,1.65-1.99,2.33-.34.7-.42,2.36-.13,3.84-1.59,2.93-1.46,7.13,1.43,8.86.2.12.37-.18.18-.31-2.42-1.58-2.5-4.16-1.84-6.69.11-.38.25-.75.4-1.12.44,1.46,1.32,2.48,2.76,1.7,1.44-.78,2.13-1.99,1.71-3.61Zm8.13-13.95c-.13-.7.04-1.2.37-1.65.44.68.53,1.4-.37,1.65Zm-7.24,9.2c-.1-.03-.22,0-.21.14.12,1.65-1.93.5-2.47,0-.17-.16-.31-.34-.42-.52,1.19-.84,2.56-1.09,3.1.37Zm-4.97,6.49c-.05-.14-.09-.28-.13-.42,0-.02.02-.04.02-.05.54-1.44,1.77-1.95,3.69-1.54,1.7,2.37-2.55,4.86-3.59,2.01Z"/>
  <path class="cls-1" d="m27.16,34.55c.41-2.4-1.95-5.13-4.13-6.11h0c-.14-1.78-1.89-3.44-3.67-3.54-.11-2.9-2.94-4.44-5.49-4.93-.26-.05-.37.33-.11.4,1.72.49,3.72,1.16,4.68,2.8.3.51.41,1.14.46,1.74-.48.05-.95.22-1.38.55-.13.1-.14.23-.05.35,1.06,1.36,1.83.82,1.9-.56.22-.03.39-.04.45-.03,1.23.22,2.09,1.55,2.51,2.61.06.15.1.31.14.46-1.13-.22-2.54.12-2.29,1.59.18,1.03,2.12.86,2.53.1.22-.4.31-.81.33-1.23,1.78,1.08,3.99,3.25,3.7,5.49-1.2-.73-2.68-1.06-2.95.4-.21,1.11.78,3.07,2.11,1.97.65-.54,1.03-1.14,1.21-1.78.07.07.15.13.22.21.71.6,1,1.59,1.23,2.45.73,2.64.12,5.73-.25,8.39-.03.19.26.28.3.08.56-3.35,1.27-7.1-.3-10.28-.16-.33-.6-.77-1.13-1.16Zm-9.09-8.68c-.24-.24.3-.43.85-.54.09.58-.19.76-.85.54Zm4.42,3.54c-.13.52-.49.77-1.06.77-.29-.26-.57-.52-.86-.79.56-.73,1.2-1.01,1.93-.86.04.29.05.59,0,.88Zm3.43,6.61c-.57-.13-1.14-.26-1.71-.39.76-1.32,1.58-1.68,2.46-1.1-.11.5-.35,1-.75,1.49Z"/>
  <path class="cls-1" d="m30.8,21.33c-.06-.22-.38-.22-.44,0-.45,1.63-2.22,2.9-3.15.68-.71-1.68,1.22-2.99,2.56-3.43.31-.1.87-.11,1.08-.42.98-1.42.02-4.22-.68-5.57-.14-.27-.53-.03-.4.23.64,1.29.86,2.63.91,4.06.05,1.34-.87,1.11-1.59,1.44-1.26.58-2.16,1.37-2.43,2.77-.24,1.22,1.13,3.31,2.57,2.68.49-.21,1.52-1.01,1.35-1.56.37,1.27.88,5.28-1.54,5.21-.35-.01-.74.19-1.07.28-2.41.66,1.12,5.4,1.87,6.02.17.14.42-.1.25-.25-.22-.19-3.84-5.33-1.79-5.33.51,0,1.19-.19,1.7-.33,2.19-.57,1.17-5.22.79-6.48Z"/>
  <path class="cls-1" d="m53.34,29.33c.21-.07.13-.38-.09-.33-9.67,1.9-17.04,10.14-18.87,19.64-.04.21.27.3.32.09,2.47-10.07,8.97-16.19,18.64-19.39Z"/>
  <path class="cls-1" d="m38.01,13.49c-.12.04-.13.18-.03.25.12.09.27.13.43.15-3.1,4.33-5.13,9.93-6.39,14.95-.03.11.13.15.17.05,1.16-2.94,2.16-5.93,3.44-8.83.95-2.15,2.17-4.14,3.33-6.17.1-.01.21-.03.3-.05.5-.11.91-.45,1.22-.84.16-.2-.11-.48-.29-.29-.26.3-.56.5-.93.62.14-.24.27-.48.4-.73.06-.11-.09-.24-.18-.14-.26.31-.51.63-.75.95-.25,0-.5-.02-.73.06Z"/>
  <path class="cls-1" d="m25.87,27.8c-.25-4.82-3.74-10.8-7.55-13.72-.16-.12-.33.13-.21.27,3.35,3.89,6.89,8.11,7.42,13.45.02.21.34.22.33,0Z"/>
  <path class="cls-1" d="m21.56,13.68c.17-.11.33-.23.49-.36.15-.09.31-.15.47-.19,0,.07.02.13.02.2-.18.31-.35.62-.5.94-.06-.09-.12-.18-.18-.27-.11-.16-.34-.02-.26.15.08.18.17.35.26.53,0,.06.02.11.07.14,1.24,2.47,2.73,4.77,3.36,7.51.03.13.22.07.2-.06-.43-2.69-1.73-5.32-3.21-7.63.16-.22.32-.44.47-.67.13,0,.28-.1.25-.27,0-.03,0-.07-.01-.11.1-.15.19-.3.28-.46.19.06.39.17.57.33.17.15.5,0,.41-.24-.13-.34-.29-.66-.47-.97.1-.17.2-.34.29-.51.13-.22-.12-.46-.34-.34-.12.06-.22.14-.34.22-.19-.29-.38-.58-.57-.87-.11-.17-.4-.12-.4.11.02.49.02.98.03,1.47-.24.2-.49.4-.74.59-.16.1-.33.21-.48.35-.21.19.06.54.3.39Z"/>
  <path class="cls-1" d="m16.3,10.26c.03-.76.2-1.49.54-2.18.16-.33.39-.62.64-.88.2-.2.42-.28.54-.54.04-.09-.01-.17-.1-.18-.66-.08-1.22.87-1.49,1.36-.4.73-.54,1.59-.55,2.41,0,.27.41.27.42,0Z"/>
  <path class="cls-1" d="m16.99,9.25c-.11.22.21.42.34.2.24-.43.53-.8.92-1.1.21-.16.44-.25.7-.26.19,0,.34.04.52-.01.07-.02.09-.09.06-.15-.25-.48-.91-.3-1.3-.12-.57.27-.98.89-1.25,1.44Z"/>
  <path class="cls-1" d="m17.57,10.9c.44-.33.91-.56,1.46-.68.62-.14,1.08.15,1.58.45.08.05.2-.03.17-.13-.49-1.54-2.64-.64-3.45.04-.18.15.06.46.25.32Z"/>
  <path class="cls-1" d="m19.45,11.94c.37.2.64.53.99.74.11.06.28-.04.23-.17-.33-.85-1.41-1.21-2.23-1.36-.23-.04-.34.3-.1.36.39.1.76.23,1.12.43Z"/>
  <path class="cls-1" d="m17.3,11.96c-.18-.17-.43.09-.27.27.25.26.49.52.71.8.17.23.31.65.6.72.08.02.14-.02.17-.09.11-.29-.2-.6-.37-.81-.25-.32-.56-.6-.85-.88Z"/>
  <path class="cls-1" d="m16.04,16.77c1.08-.84,1.02-2.25.53-3.41-.09-.21-.46-.06-.37.16.43,1.12.27,2.08-.38,3.08-.1.15.11.26.22.17Z"/>
  <path class="cls-1" d="m14.13,14.44c.34-.14.6-.39.77-.72.12-.24-.23-.45-.36-.21-.16.28-.37.45-.68.56-.24.08-.52.06-.73.21-.08.05-.08.16,0,.21.28.19.71.07,1-.04Z"/>
  <path class="cls-1" d="m13.6,12.26c.22-.11.03-.42-.19-.33-.26.11-.52.17-.8.16-.27-.01-.49-.2-.75-.25-.07-.01-.14.04-.12.12.2.8,1.36.55,1.87.29Z"/>
  <path class="cls-1" d="m12.84,10.9c.23.08.32-.28.1-.36-.92-.36-1.09-1.12-1.28-1.99-.03-.14-.26-.14-.29,0-.2,1.07.47,2.02,1.46,2.36Z"/>
  <path class="cls-1" d="m14.12,9.86c-.32-.53-.5-1.09-.61-1.69-.1-.54.03-1.07-.05-1.6-.02-.11-.15-.09-.2-.03-.7.95-.02,2.65.54,3.5.13.2.45.02.32-.19Z"/>
  <path class="cls-1" d="m14.75,8.54c-.07-.33-.1-.67-.1-1.01,0-.32.06-.63.01-.95-.01-.09-.14-.09-.18-.02-.39.56-.24,1.46-.1,2.08.06.24.42.14.36-.1Z"/>
  <path class="cls-1" d="m40.73,12.47c.24.1.42-.32.18-.42-.04-.02-.08-.04-.11-.06.04.03.09.05.15.05.71-.02,1.46-.32,1.5-1.12.03-.68-.59-1.21-1.2-1.33-.2-.04-.4-.04-.59,0,.02-.04.03-.08.02-.13-.11-.59-.09-1.17.04-1.75.14-.63.54-1.07.8-1.64.05-.12-.06-.25-.18-.18-1.21.65-1.33,2.51-1.03,3.67.01.05.04.08.07.1-.43.16-.77.49-.84.98-.12.82.47,1.55,1.2,1.84Zm.35-1.76c.06-.24.34-.32.54-.44.18.15.31.35.34.57.05.48-.42.64-.82.68-.07-.27-.12-.54-.05-.81Zm-.11-.66c-.5.33-.41,1.26-.26,1.8.01.05.05.1.09.13-.93-.5-1.11-1.93.17-1.93Z"/>
  <path class="cls-1" d="m41.43,8.94c.17-.59.4-1.15.76-1.65.37-.53.95-.67,1.43-1.06.06-.05.03-.17-.05-.19-.65-.13-1.26.4-1.65.86-.46.55-.69,1.25-.85,1.94-.06.24.3.34.37.1Z"/>
  <path class="cls-1" d="m42.92,9.03c.35-.32.74-.52,1.22-.54.48-.01.79.35,1.2.5.08.03.15-.06.13-.13-.13-.5-.71-.81-1.2-.83-.64-.03-1.19.28-1.63.72-.19.18.09.46.29.28Z"/>
  <path class="cls-1" d="m43.84,9.83c.46.03.87.16,1.23.45.36.29.54.73.78,1.12.07.12.28.08.28-.08-.06-1.18-1.19-1.88-2.28-1.86-.23,0-.23.35,0,.36Z"/>
  <path class="cls-1" d="m44.65,13.19c.02.09.15.1.19.03.45-.86-.1-1.86-.72-2.47-.17-.17-.43.09-.27.27.28.3.48.62.61,1.01.13.38.11.78.18,1.17Z"/>
  <path class="cls-1" d="m41.78,15.22c-.05.06-.03.19.07.18,1.43-.14,1.99-1.89,1.56-3.05-.09-.24-.46-.14-.38.1.17.55.16,1.06-.1,1.57-.26.52-.79.77-1.15,1.2Z"/>
  <path class="cls-1" d="m41.53,12.96c-.18.48-.44.89-.79,1.27-.28.31-.75.49-.97.85-.05.08.01.17.1.17.48.04.96-.48,1.26-.81.35-.39.58-.89.75-1.39.07-.22-.27-.31-.34-.09Z"/>
  <path class="cls-1" d="m38.56,12.45c.27-.05.15-.45-.11-.41-.3.05-.6,0-.84-.21-.21-.18-.25-.48-.36-.72-.06-.12-.21-.06-.25.03-.15.38.06.8.35,1.05.33.3.79.34,1.21.26Z"/>
  <path class="cls-1" d="m37.34,8.83c-.23.39,0,.93.21,1.28.24.39.65.64,1.06.8.21.08.36-.28.16-.37-.34-.15-.62-.35-.83-.66-.22-.32-.19-.74-.39-1.05-.05-.07-.16-.08-.21,0Z"/>
  <path class="cls-1" d="m13.97,11.75c.11.64.72,1.01,1.31,1.14.24.05.35-.31.1-.37-.38-.11-.77-.32-.93-.71-.15-.36.11-.64.43-.76.37-.14,1.01-.22,1.27.16.24.36-.26.6-.47.78-.11.09-.01.25.11.26.58.04,1-.57.84-1.1-.21-.71-1.1-.72-1.68-.59-.56.12-1.08.58-.98,1.19Z"/>
  <path class="cls-1" d="m5.7,31.44c.09.15.19.29.27.44.14.24.56.07.45-.19,0-.02-.02-.04-.03-.06,0,0,0,0,0,0,0,0,0,0,0-.01-.36-.86-.82-1.63-1.39-2.37-.05-.06-.1-.12-.14-.18.38-.29.74-.6,1.08-.94.19-.1.4-.19.62-.26.29-.09.17-.55-.13-.46,0,0,0,0-.01,0-.03-.1-.1-.18-.23-.18-.49,0-.97-.03-1.45-.06-.02-.38-.06-.74-.16-1.12-.01-.04-.03-.07-.06-.09-.03-.12-.05-.24-.08-.37-.05-.21-.42-.23-.45,0-.07.44-.17.98-.22,1.51-.56-.05-1.13-.1-1.69-.16-.23-.03-.28.26-.17.41.45.58.9,1.18,1.37,1.76-.07.31-.21.6-.41.85-.28.22-.56.45-.82.7-.21.2.06.54.31.4.35-.2.64-.45.86-.73.22-.17.44-.35.67-.52.55.61,1.14,1.17,1.82,1.63Zm-.96-3.76c.3.02.59.03.89.04-.02.02-.03.04-.05.05-.3.16-.58.35-.84.57,0-.2-.01-.39-.02-.59.01-.02.02-.05.02-.08Zm-2.15-.2c.2.02.41.05.61.07-.02.05-.03.1,0,.16.08.24.11.47.13.7-.25-.31-.49-.62-.73-.93Z"/>
  <path class="cls-1" d="m59.17,26.48c-.44.08-.87.17-1.31.26.06-.39.15-.78.25-1.17.07-.24-.26-.45-.43-.25-.48.56-.9,1.14-1.31,1.75-.26.06-.51.11-.77.16-.67-.52-1.44-.9-2.4-1.05-.31-.05-.45.43-.13.48.71.11,1.31.37,1.85.71-.39.07-.78.14-1.17.19-.29.04-.31.49,0,.47.58-.05,1.16-.13,1.73-.24.1.08.19.16.28.25-.43.72-.82,1.46-1.17,2.22-.1.21.12.52.35.35.64-.45,1.29-.89,1.92-1.36.37.46.72.94,1.09,1.42h0s.03.04.04.05c.18.24.53-.06.4-.31-.33-.61-.51-1.25-.58-1.9.58-.49,1.13-1.01,1.61-1.6.17-.2.01-.48-.25-.43Zm-3.48,2.99c-.06.05-.13.09-.19.14.17-.34.36-.68.55-1.01,0,.03.03.06.05.08-.14.26-.28.52-.41.79Zm1.25-.91s-.07-.07-.1-.11c.15-.14.26-.32.33-.51,0,0,0,0,0,0,0,0,0,0,0,0,0-.02.02-.04.03-.06.09-.29-.3-.41-.46-.19-.02.03-.03.05-.05.08-.05-.01-.11,0-.16.03.05-.08.1-.16.16-.24.2-.04.4-.09.59-.13-.02.29-.01.58,0,.87-.11.09-.23.19-.35.28Zm.84-.7c0-.19,0-.38.02-.57.25-.06.49-.11.74-.16-.24.25-.5.49-.76.73Z"/>
  <path class="cls-1" d="m32.26,18.81c.31-.35.65-.69.98-1.04,0,0,0,.02,0,.03.07.3.51.17.45-.13-.02-.11-.03-.23-.05-.34.11-.12.22-.24.33-.36.3.03.6.1.89.22.22.09.49-.11.35-.35-.16-.27-.32-.55-.48-.82.17-.24.34-.49.48-.75.13-.24-.2-.53-.4-.31-.14.16-.28.31-.43.46-.27-.5-.52-1.01-.71-1.56-.08-.23-.4-.19-.41.06-.04.82-.16,1.64-.16,2.46-.09.04-.19.08-.28.12-.36.05-.73.13-1.09.23-.28.07-.23.52.07.5.41-.02.79-.11,1.14-.23.06,0,.12-.01.19-.02,0,.03,0,.07,0,.1-.44.46-.87.93-1.23,1.46-.14.21.18.46.36.27Zm1.39-3.81c.12.26.24.51.37.76-.13.12-.27.22-.42.32,0-.36.03-.72.05-1.08Z"/>
  <path class="cls-1" d="m19.32,20.24c.21.13.48-.13.34-.34-.18-.28-.37-.55-.55-.83.1-.22.19-.44.28-.66.09-.23-.26-.43-.42-.24-.09.1-.18.19-.27.29-.24-.35-.49-.7-.76-1.03-.14-.18-.44.01-.37.22.15.48.29.96.41,1.44-.19.13-.38.25-.59.36-.27.08-.54.19-.81.36-.24.15-.08.56.2.46.02,0,.04-.02.06-.03,0,0,0,0,0,0,.25-.09.49-.2.72-.32.2-.05.39-.08.59-.07-.14.27-.28.55-.4.82-.11.25.2.43.37.21.08-.1.14-.21.21-.32.08.25.49.13.44-.16-.02-.15-.06-.3-.09-.45,0,0,.01-.02.02-.03.21.06.42.16.63.29Z"/>
  <path class="cls-1" d="m6.95,28.83c-.21-.02-.25.31-.05.37,9.09,2.42,18.95,8.86,18.42,19.49-.02.3.44.29.46,0,.71-9.98-9.44-18.77-18.83-19.85Z"/>
  <path class="cls-1" d="m12.36,27.62c2.43,1.4,4.63,2.78,6.63,4.78,1.78,1.78,3.28,3.82,4.92,5.72.14.16.36-.07.23-.23-3.14-4.04-6.6-8.85-11.66-10.55-.16-.06-.26.19-.12.27Z"/>
  <path class="cls-1" d="m11.03,28.83c.2-.25.35-.55.46-.87.16.23.31.46.45.7.14.23.49.02.36-.21-.2-.35-.43-.68-.66-.99.05-.22.09-.45.11-.68.14-.04.29-.09.44-.11.27-.05.21-.41,0-.49-.13-.05-.26-.09-.39-.13,0-.3,0-.58-.03-.85-.03-.29-.39-.34-.49-.07-.09.23-.18.46-.27.69-.41-.1-.83-.17-1.25-.24-.26-.04-.41.28-.18.43.32.21.62.47.9.74-.5.3-.95.71-1.3,1.21-.17.24.14.44.35.35.6-.25,1.02-.67,1.35-1.16.08.09.14.17.21.26-.12.43-.29.84-.34,1.28-.02.14.2.24.29.12Z"/>
  <path class="cls-1" d="m50.46,39.29c.26.27.59.49.95.61.27.09.38-.33.12-.43-.18-.07-.34-.16-.48-.26.13-.02.13-.25,0-.26-.1-.01-.2-.02-.3-.03-.04-.05-.08-.1-.11-.15-.2-.32-.2-.73-.25-1.1-.02-.13-.22-.15-.27-.04-.19.44-.14.86.05,1.23-5.96-.34-13.25,4.11-14.32,10.06-.05.28.38.41.44.12,1.33-6.76,8.23-8.87,14.18-9.75Z"/>
  <path class="cls-1" d="m10.86,38.26c-.43-.31-.95-.52-1.42-.6-.25-.04-.36.33-.11.39.42.09.77.26,1.12.51.37.26.61.64.95.94.12.11.33,0,.28-.16-.08-.26-.22-.5-.41-.71,6.29.12,11,3.95,12.38,10.26.06.28.46.16.42-.12-.89-5.96-6.9-11.78-13.22-10.52Z"/>
  <path class="cls-1" d="m9.05,34.08c.03-.09-.05-.16-.13-.16-.43-.05-.81.49-.96.84-.19.43-.17.9,0,1.33.09.24.48.15.39-.11-.12-.37-.12-.73.05-1.08.16-.32.53-.48.64-.82Z"/>
  <path class="cls-1" d="m9.27,36.33c.02-.38.15-.72.43-.99.24-.24.56-.24.84-.39.1-.05.11-.24,0-.29-.4-.19-.87.07-1.17.35-.36.33-.48.85-.48,1.32,0,.25.36.24.38,0Z"/>
  <path class="cls-1" d="m9.64,37.12c.29-.2.59-.34.95-.37.34-.03.6.17.93.19.12,0,.17-.13.13-.23-.15-.35-.6-.42-.94-.44-.46-.02-.92.22-1.28.49-.21.16-.02.51.21.36Z"/>
  <path class="cls-1" d="m9.34,39.2c-.23-.15-.43.21-.21.36,1.11.79,1.04,2.02.49,3.13-.04.09.06.16.13.1,1.25-1.03.84-2.78-.41-3.6Z"/>
  <path class="cls-1" d="m8.29,40.91c-.04.46-.25.83-.65,1.07-.38.22-.8.05-1.19.18-.1.03-.13.15-.06.22.37.41,1.16.21,1.57-.03.5-.3.7-.88.69-1.43,0-.23-.34-.23-.36,0Z"/>
  <path class="cls-1" d="m6.03,40.72c-.27,0-.54-.02-.81-.06-.24-.04-.44-.16-.68-.21-.12-.02-.27.11-.18.23.36.49,1.13.43,1.66.41.24,0,.24-.37,0-.38Z"/>
  <path class="cls-1" d="m4.81,38.87c-.35-.01-.66-.09-.91-.34-.24-.25-.15-.66-.39-.9-.04-.04-.11-.04-.15,0-.29.3-.05.9.18,1.18.31.38.8.48,1.27.48.27,0,.26-.4,0-.41Z"/>
  <path class="cls-1" d="m5.42,37.7c-.19-.28-.35-.58-.46-.91-.12-.36-.03-.75-.17-1.1-.03-.08-.15-.14-.22-.06-.53.64.12,1.79.52,2.34.06.08.15.1.22.09-.19,1.01.9,1.75,1.73,1.99.26.07.36-.31.11-.4-.68-.23-1.54-.82-1.34-1.65.13-.55.67-.91,1.21-.88.39.02.79.28.99.6.25.39-.04.7-.37.89-.12-.26-.11-.57-.29-.81-.07-.1-.21-.06-.22.06-.05.45-.05.88.25,1.24.07.09.2.08.29.04.59-.27,1.09-.79.84-1.48-.23-.61-.89-.95-1.5-1.02-.71-.08-1.33.43-1.6,1.06Z"/>
  <path class="cls-1" d="m6.29,34.81c0-.08-.09-.12-.15-.09-.66.31-.53,1.34-.28,1.87.12.25.47.03.36-.21-.13-.31-.15-.61-.08-.94.05-.22.15-.4.15-.63Z"/>
  <path class="cls-1" d="m53.24,36.12c-.08.23.28.38.4.17.19-.35.41-.66.74-.88.31-.21.73-.25,1.09-.32.11-.02.13-.19.03-.24-.93-.45-1.97.39-2.26,1.27Z"/>
  <path class="cls-1" d="m57.56,36.47c.1,0,.18-.12.12-.21-.5-.77-1.9-.58-2.62-.3-.27.1-.16.54.12.44.38-.14.75-.2,1.16-.19.43.01.8.25,1.22.26Z"/>
  <path class="cls-1" d="m57.21,37.37c-.23-.14-.44.22-.21.36.39.26.68.58.91.99.19.34.25.73.49,1.04.05.07.16.02.19-.05.28-.9-.67-1.92-1.37-2.35Z"/>
  <path class="cls-1" d="m56.92,39.03c.21.31.35.64.43,1.01.07.29,0,.61.11.9.03.08.12.11.19.05.56-.55.02-1.67-.35-2.17-.16-.21-.52-.02-.36.21Z"/>
  <path class="cls-1" d="m56.16,40.65c.12.43.08.8-.13,1.2-.19.36-.52.61-.74.95-.07.11.05.28.17.23.95-.38,1.36-1.55,1.06-2.49-.08-.23-.43-.14-.37.1Z"/>
  <path class="cls-1" d="m54.68,41.84c-.29.33-.62.61-1.01.81-.37.19-.79.14-1.17.26-.11.04-.13.18-.03.24.87.57,1.99-.4,2.49-1.05.15-.19-.11-.46-.27-.27Z"/>
  <path class="cls-1" d="m52.78,42.06c-.4.12-.79.19-1.2.17-.44-.02-.74-.33-1.14-.4-.11-.02-.21.06-.18.18.11.41.58.58.96.66.55.13,1.15,0,1.68-.18.27-.09.16-.52-.12-.43Z"/>
  <path class="cls-1" d="m50.59,39.71s-.11,0-.13.04c-.22.29.09.68.31.87.3.27.71.42,1.1.51.29.07.41-.37.12-.44-.32-.09-.62-.2-.88-.41-.2-.16-.28-.48-.52-.57Z"/>
  <path class="cls-1" d="m51.7,36.67c-.31.17-.28.58-.27.88,0,.24.38.24.38,0,0-.25.02-.48.09-.73.03-.12-.1-.21-.2-.15Z"/>
  <path class="cls-1" d="m54.18,38.9c.12-.13,0-.34-.17-.3-.46.1-.98.52-.98,1.03,0,.42.4.67.74.79.83.3,2.08.02,2.22-.99.2-1.47-1.32-2.45-2.6-1.85-.6.28-1.08.78-1.25,1.43-.2.75.23,1.44.8,1.9.08.07.17.12.26.18.24.16.45-.22.22-.38-.49-.35-.93-.86-.83-1.5.07-.48.43-.87.83-1.11.98-.6,2.15.03,2.11,1.2-.03.71-.94.8-1.47.68-.19-.04-.46-.14-.52-.35-.07-.26.51-.59.65-.74Z"/>
  <path class="cls-1" d="m26.45,7.62s-.04.09-.05.14c-.06.21.22.36.36.23.61.71,1.28,1.41,1.98,2.04,0,.09,0,.18.02.26.03.15.22.11.27,0,0,0,0,0,0,0,.08.06.16.13.23.19,0,.18-.02.36-.01.54,0,.09.15.15.19.05.05-.11.08-.23.13-.34.19.15.38.29.57.42-.02.02-.04.05-.05.07-.15.2.16.41.33.26.03-.03.06-.06.09-.09.16.05.31-.12.28-.27,1.65-1.63,3-3.83,4.03-5.84.56-1.11,1.67-3.58.62-4.73-1.8-1.96-4.85,1.81-5.19,3.59-.07-.13-.15-.26-.23-.4.03-.13-.07-.22-.17-.23-1.41-1.9-4.56-3.44-5.53-.68-.52,1.47.83,3.14,1.66,4.2.15.19.31.39.47.59Zm2.87,2.13s-.06-.05-.09-.08c.16-.64.23-1.33.38-1.96.04-.15.09-.3.13-.45-.19.83-.34,1.67-.42,2.49Zm1.3-5.38c.26-1.2.93-2.13,1.85-2.92.32-.28.69-.5,1.07-.66-.39.46-.7.97-1.13,1.41-.04.04-.05.08-.06.13-.54,1.81-1.12,3.61-1.67,5.42.24-1.29.34-2.63.49-3.88.02-.17-.27-.21-.3-.04-.05.3-.1.59-.15.88-.05-.09-.19-.12-.27-.05,0,0,0-.02-.02-.03-.01-.04-.02-.07-.04-.11.09,0,.19-.04.21-.14Zm-.4,5.8c.19-.27.35-.55.51-.83.05,0,.1-.01.13-.06.98-1.72,1.32-3.82,2.05-5.66.1-.25-.3-.35-.39-.11-.04.09-.07.18-.1.27.1-.45.21-.89.32-1.32.47-.49,1.01-1.08,1.14-1.76,0,0,0-.01,0-.02.06-.02.12-.04.18-.06,1.37-.38,1.3,1.28,1.17,2.12-.29,1.88-1.32,3.56-2.49,5.13.22-.52.41-1.05.59-1.59.04,0,.09,0,.12-.05.57-.84.96-1.81,1.41-2.72.1-.2-.2-.38-.3-.18-.26.5-.53,1.01-.79,1.52.35-1.23.64-2.47.96-3.67.06-.23-.28-.32-.35-.1-.88,2.98-1.72,5.89-3.11,8.66-.28.35-.56.69-.82,1.04-.16-.14-.33-.29-.49-.44.02-.05.04-.1.06-.16.04.07.16.08.21,0Zm-.38-5.82c.07.13.13.27.19.4-.48,1.3-1.19,2.95-1.3,4.45-.12-.12-.25-.23-.37-.35.32-.49.46-1.23.63-1.7.32-.92.6-1.86.86-2.8Zm-.81-1.11c-.42,1.18-.89,2.34-1.3,3.52-.08.23-.29.69-.14.94.13.23.35.02.39-.14,0-.02,0-.04,0-.06,0,0,0,0,.01-.02.06-.11.09-.23.12-.35.13-.44.28-.87.42-1.31.26-.76.51-1.53.75-2.3.09.11.18.23.26.34-.29.96-.61,1.92-.93,2.87-.17.48-.52,1.11-.7,1.69-.31-.32-.62-.64-.91-.97.24-.57.44-1.14.61-1.73,0,0,0,0,0-.01,0,0,0,0,0,0,.17-.55.33-1.11.52-1.65.07-.21-.25-.29-.32-.09-.33.87-.61,1.76-.94,2.63-.08.16-.16.31-.23.47h0c.65-1.45.62-3.34.74-4.88,0-.04-.02-.07-.03-.1.61.24,1.19.66,1.67,1.15Zm-3.34-1.1c-.24.93-.49,2.09-.36,3.1,0,0,0,0,0-.01-.85-1.4-.79-3.76,1.43-3.33.15.03.3.08.45.13-.07.01-.14.06-.15.15-.09.89-.2,1.77-.33,2.65-.09.63-.26,1.26-.34,1.89-.25-.32-.49-.64-.72-.98.11-.43.1-.87.12-1.32.02-.74.08-1.48.23-2.21.04-.2-.26-.29-.31-.09Z"/>
  <path class="cls-1" d="m26.42,5.91c.23-.48.24-1.04.29-1.56.07-.62.09-1.24.09-1.86,0-.25-.38-.25-.38,0-.01.54-.06,1.08-.13,1.62-.07.58-.23,1.19-.12,1.77.02.11.19.13.24.03Z"/>
  <path class="cls-1" d="m8.21,20.82c1.06-.14,2.75-.32,3.66-1.02.13-.02.25-.13.2-.3-.54-1.75-1.29-3.45-2.1-5.1-.56-1.15-1.26-2.63-2.64-2.93-1.91-.41-.37,4.07.12,5.04-.14.03-.29.08-.44.12-.08-.02-.17.01-.22.07-.39.13-.8.29-1.19.49-.01-.02-.03-.03-.04-.05-.15-.17-.37.05-.28.22-1.16.69-1.9,1.69-.63,2.9.93.89,2.41.7,3.57.55Zm-1.17-6.86c-.12-.5-.19-1-.17-1.51.54.95,1.1,2,1.75,2.99-.41-.5-.82-1-1.23-1.49-.13-.16-.34.01-.3.18-.01-.06-.03-.11-.04-.17Zm.05.18s.02.04.03.07c.71.88,1.41,1.76,2.1,2.66.24.31.46.64.69.96-.13-.15-.26-.3-.38-.45-.46-.59-.91-1.18-1.4-1.75-.15-.17-.39.07-.25.25.13.15.25.32.38.49-.15-.09-.39.07-.26.25.69.98,1.44,2.35,2.53,2.92.11.06.28-.07.19-.19-.08-.11-.17-.2-.26-.3.07.06.15.12.22.17.09.06.2-.04.17-.14.08.09.16.19.25.28.12.12.27-.03.21-.16-.29-.68-.75-1.3-1.22-1.89.13.13.26.26.4.38.12.1.3-.02.22-.17-.48-.88-1.19-1.67-1.77-2.49-.66-.93-1.27-1.89-1.86-2.86-.03-.05-.08-.08-.13-.08.32-.45,1.32.44,1.54.73,1.41,1.86,2.32,4.39,3.02,6.62-.58.15-1.15.32-1.72.47,0-.02,0-.04,0-.06-.17-.55-.59-1-.91-1.47-.36-.54-.69-1.09-.96-1.68,0-.03,0-.05-.02-.07.03-.06.04-.13,0-.21-.39-.71-.63-1.48-.83-2.26Zm.55,2.79c.26.57.57,1.11.91,1.64.31.48.61,1.03,1.07,1.37-.16.04-.32.09-.48.13-.19-.47-.53-.91-.79-1.34-.33-.56-.67-1.12-1.01-1.68.1-.04.2-.08.3-.13Zm-.7.27c.34.58.67,1.17,1.01,1.76.13.23.26.48.41.71-.23-.3-.51-.58-.72-.87-.32-.46-.6-.95-.83-1.47-.01-.03-.03-.05-.05-.06.06-.02.13-.05.19-.07Zm-.48.18s0,.06,0,.09c.22.54.48,1.05.78,1.55.02.03.04.06.06.09-.12-.12-.24-.23-.34-.35-.34-.39-.68-.78-1.03-1.18.17-.08.34-.15.52-.22Zm-.92.42s.03-.01.05-.02c.35.44.7.89,1.05,1.33.33.41.73.96,1.22,1.23-.1.01-.21.04-.31.05.02-.04.02-.09,0-.14-.2-.39-.67-.68-.99-.97-.44-.4-.87-.81-1.29-1.22-.02-.02-.04-.03-.06-.04.13-.08.25-.15.34-.2Zm-.63.41s.02.09.06.13c.41.43.83.85,1.25,1.27.28.27.61.64.98.81-.25.01-.5.02-.75,0,.03-.03.04-.08.03-.13-.08-.38-.49-.68-.74-.96-.31-.35-.63-.68-.96-1.01.04-.04.09-.08.14-.11Zm-.41.45c.27.3.53.6.8.9.23.25.48.65.81.83-.05,0-.1,0-.16-.01-.65-.09-1.28-.59-1.5-1.21-.07-.18-.03-.35.05-.51Z"/>
  <path class="cls-1" d="m8.17,13.25c.61,1.06,1.25,2.27,2.05,3.19.07.08.21,0,.18-.1-.4-1.16-1.32-2.2-1.94-3.26-.11-.19-.4-.02-.29.17Z"/>
  <path class="cls-1" d="m45.04,22.76c0,.17.24.25.32.09.03-.06.05-.12.08-.17.04.11.15.21.3.18,2.47-.4,5.07-.65,7.38-1.67.96-.42,2.83-1.12,2.78-2.45-.07-2.01-3.8-1.48-5.24-.8.49-1.08,1.18-2.49.55-3.53-.65-1.08-1.51-1.44-2.66-.84-1.19.61-1.81,2.05-2.23,3.29-.01.01-.02.03-.03.04-.03.03-.03.07-.02.11-.03.08-.06.17-.08.25-.53,1.65-1.16,3.77-1.16,5.51Zm9.32-4.75c.18.07.34.15.47.25-.46.36-.93.7-1.39,1.06-.48.38-1.1.79-1.37,1.36-.07.15.09.37.25.25.48-.32.87-.78,1.32-1.14.5-.4,1.01-.78,1.5-1.18.14.28.08.61-.26.98.02-.18-.15-.38-.33-.24-.66.48-1.4.87-1.95,1.49-.02.02-.02.04-.03.07-.72.28-1.47.49-2.25.66.36-.24.7-.51,1.04-.75.76-.55,1.49-1.15,2.23-1.73.13-.1.04-.29-.09-.34.26-.2.53-.4.79-.58.06-.04.08-.11.07-.17Zm-7.98.75c.5-.32.96-.73,1.41-1.1.74-.61,1.45-1.26,2.12-1.94.17-.17-.09-.42-.26-.26-.62.6-1.28,1.16-1.95,1.71-.39.31-.81.61-1.2.94.08-.4.17-.79.29-1.16,0,0,0,0,0,0,.07-.04.14-.09.2-.13-.09.12-.18.25-.24.39-.05.12.06.27.19.19.52-.33.94-.84,1.39-1.25.53-.48,1.07-.96,1.57-1.47.05-.05.06-.11.05-.16.07-.04.13-.09.2-.13.2-.12.02-.42-.18-.31-.69.38-1.34.82-1.96,1.31-.29.22-.6.45-.9.69.48-1.1,1.27-2.2,2.47-2.34,2.02-.24,1.24,2.37.97,3.13-.11.31-.24.61-.36.92,0,0-.01,0-.02,0-.73.1-1.5.37-2.24.72.03-.03.07-.06.11-.09.86-.69,1.69-1.41,2.48-2.19.2-.2-.11-.51-.31-.31-.71.69-1.47,1.33-2.24,1.95-.53.43-1.15.83-1.68,1.3.02-.13.04-.26.07-.38Zm2.45.07c.07-.04.1-.1.11-.16.4-.16.78-.34,1.14-.56-.02.05-.04.1-.06.15-.04.12.02.2.1.24-1.28.48-2.52,1.25-3.65,1.93-.23.14-.02.49.21.36,1.52-.89,3.18-1.47,4.71-2.32.18-.1.05-.35-.13-.31-.07.01-.13.04-.2.05.68-.31,1.39-.43,2.17-.42.3,0,.59.04.85.11-.2.12-.39.25-.59.37-.01-.02-.03-.03-.06-.02-.4.14-.78.3-1.17.46-.02-.01-.03-.02-.05-.01-1.99.4-3.94,1.56-5.83,2.3-.26.1-.15.52.12.42.57-.22,1.19-.43,1.81-.66-.12.07-.24.13-.36.19-.44.22-.87.45-1.31.67-.25.13-.03.49.22.38,1.66-.78,3.29-1.65,4.89-2.58,0,0-.02.01-.02.02-.9.61-1.89,1.13-2.76,1.8-.12.09-.06.31.11.26.34-.1.68-.25,1.01-.41-.33.22-.66.45-.95.71-1.19.21-2.39.36-3.52.54-.01,0-.02,0-.04.01.27-.66.43-1.4.57-2.15.92-.43,1.8-.92,2.7-1.39Z"/>
  <path class="cls-1" d="m46.36,28.33c-.5.15-.39-.54-.59-.79-.05-.06-.15-.05-.2,0-.27.26-.16.81.08,1.07.23.24.53.29.84.22.58-.13,1.09-.81.62-1.33-.67-.74-1.94-.81-2.67-.15-.34.31-.42.77-.36,1.2.03.18.13.47.27.7-3.1,2.02-6.18,5.84-7.27,9.32-.07.22.28.37.37.16,1.68-3.81,4.37-6.29,7.17-9.21.11.06.24.07.37,0,.07-.04.13-.13.12-.21,0-.22-.24-.35-.35-.53-.03-.04-.07-.07-.1-.08-.15-.39-.14-.8.28-1.09.55-.37,1.28-.16,1.75.23.25.21-.16.45-.35.51Z"/>
  <path class="cls-1" d="m22.62,42.84c.15.23.5.02.37-.21-1.23-2.17-3.31-4.18-5.61-5.18-.15-.07-.26.12-.13.22,2.05,1.55,3.98,2.96,5.37,5.18Z"/>
  <path class="cls-1" d="m16.75,44.55c-.18-.03-.33.23-.14.32,1.76.85,3.94.73,5.15,2.51.1.15.34.02.24-.14-1.08-1.8-3.3-2.36-5.26-2.69Z"/>
  <path class="cls-1" d="m43.12,44.86c-1.02-.15-2.28.56-3.12,1.07-.96.59-1.74,1.44-2.01,2.54-.07.27.34.38.42.12.33-1.07,1.13-1.8,2.06-2.36.85-.51,1.86-.59,2.69-1.06.12-.07.11-.28-.04-.31Z"/>
  <path class="cls-1" d="m13.27,43.44c-.39,1.15.87,2.22,1.91,2.23.24,0,.24-.36,0-.37-.77-.05-1.61-.82-1.48-1.64.11-.71,1.36-1.02,1.87-.57.33.28.35.86.18,1.24-.24.53-.6-.26-.78-.46-.08-.09-.26-.02-.25.1.07.68.8,1.48,1.36.73.42-.56.28-1.53-.23-1.98-.77-.67-2.28-.19-2.59.74Z"/>
  <path class="cls-1" d="m16.52,27.52c.54.52,1.08,1.06,1.61,1.61.14.14.33-.06.21-.21-.47-.6-.96-1.17-1.49-1.72-.47-.48-.98-1.07-1.59-1.35-.12-.06-.29.07-.2.2.37.57.98,1.01,1.46,1.48Z"/>
  <path class="cls-1" d="m35.3,25.01c-.07.17.22.3.3.13,1.12-2.4,2.92-4.18,4.57-6.19.16-.2-.08-.45-.28-.29-1.97,1.65-3.67,3.95-4.59,6.35Z"/>
  <path class="cls-1" d="m41.9,17.93c-.46.38-.64,1.14-.1,1.54.46.34,1.14.02,1.47-.35.67-.74.66-2.1-.34-2.51-.79-.33-1.82-.08-2.42.51-.86.85-.17,1.97.58,2.6.21.17.51-.11.3-.3-.5-.46-1.11-1.18-.64-1.86.34-.49,1.08-.66,1.63-.61.67.06.96.58.85,1.2-.09.5-.39.99-.94,1-.64.02-.24-.76-.15-1.07.05-.16-.15-.24-.26-.15Z"/>
  <path class="cls-1" d="m27.33,18.04c.25-2.01-.2-4.18-1.35-5.87-.09-.14-.33-.05-.28.12.63,1.96,1.36,3.65,1.41,5.75,0,.14.19.13.21,0Z"/>
  <path class="cls-1" d="m34.35,13.01c0,.25.38.25.39,0,.09-1.81.82-3.29,1.3-5,.04-.15-.16-.22-.24-.1-1.02,1.41-1.46,3.39-1.45,5.1Z"/>
  <path class="cls-1" d="m13.2,22.29c-.61,0-.61.95,0,.95s.61-.95,0-.95Z"/>
  <path class="cls-1" d="m10.61,21.86c-.57,0-.57.89,0,.89s.57-.89,0-.89Z"/>
  <path class="cls-1" d="m10.3,45.96c-.56,0-.56.87,0,.87s.56-.87,0-.87Z"/>
  <path class="cls-1" d="m6.8,46.36c-.44,0-.44.69,0,.69s.44-.69,0-.69Z"/>
  <path class="cls-1" d="m10.3,43.91c.13,0,.13-.2,0-.2s-.13.2,0,.2Z"/>
  <path class="cls-1" d="m8.47,23.35c.37,0,.37-.57,0-.57s-.37.57,0,.57Z"/>
  <path class="cls-1" d="m32.45,21.38c.56.32,1.02-.15.7-.7-.42-.74-1.44.28-.7.7Z"/>
  <path class="cls-1" d="m33.78,19.61c-.34,0-.34.52,0,.52s.34-.52,0-.52Z"/>
  <path class="cls-1" d="m44.3,15.38c.5,0,.5-.78,0-.78s-.5.78,0,.78Z"/>
  <path class="cls-1" d="m49.02,26.67c-.66.03-.66.99,0,1.02.17,0,.3,0,.46-.09.32-.17.32-.68,0-.85-.16-.08-.29-.1-.46-.09Z"/>
  <path class="cls-1" d="m47.8,26.06c.51,0,.51-.79,0-.79s-.51.79,0,.79Z"/>
  <path class="cls-1" d="m48.41,35.56c.19,0,.19-.29,0-.29s-.19.29,0,.29Z"/>
  <path class="cls-1" d="m44.13,43.15s.01-.02.02-.03c.09-.12.09-.34,0-.45,0-.01-.01-.02-.02-.03-.28-.39-.95-.28-.95.26s.67.65.95.26Z"/>
  <path class="cls-1" d="m44.15,45.07c-.53,0-.53.82,0,.82s.53-.82,0-.82Z"/>
  <path class="cls-1" d="m45.52,43.7c-.52,0-.52.81,0,.81s.52-.81,0-.81Z"/>
  <path class="cls-1" d="m48.26,45.11c-.47,0-.47.73,0,.73s.47-.73,0-.73Z"/>
  <path class="cls-1" d="m22.65,8.96c.67,0,.67-1.04,0-1.04s-.67,1.04,0,1.04Z"/>
  <path class="cls-1" d="m20.67,6.94c.43,0,.43-.67,0-.67s-.43.67,0,.67Z"/>
  <path class="cls-1" d="m37.13,7.15c.5,0,.5-.78,0-.78s-.5.78,0,.78Z"/>
  <path class="cls-1" d="m50.55,24.08c-.66,0-.66,1.03,0,1.03s.66-1.03,0-1.03Z"/>
  <path class="cls-1" d="m49.48,24.95c-.53,0-.53.82,0,.82s.53-.82,0-.82Z"/>
  <path class="cls-1" d="m51.31,27.55c.46,0,.46-.72,0-.72s-.46.72,0,.72Z"/>
  <path class="cls-1" d="m52.99,24.47c.43,0,.43-.66,0-.66s-.43.66,0,.66Z"/>
  <path class="cls-1" d="m49.33,35.74c.62,0,.62-.96,0-.96s-.62.96,0,.96Z"/>
  <path class="cls-1" d="m47.35,36.64c-.59,0-.59.92,0,.92s.59-.92,0-.92Z"/>
  <path class="cls-1" d="m47.5,34.31c-.45,0-.45.69,0,.69s.45-.69,0-.69Z"/>
  <path class="cls-1" d="m12.74,34.59c-.48,0-.48.74,0,.74s.48-.74,0-.74Z"/>
  <path class="cls-1" d="m5.88,33.79c-.33,0-.33.51,0,.51s.33-.51,0-.51Z"/>
  <path class="cls-1" d="m4.05,44.69c-.43,0-.43.67,0,.67s.43-.67,0-.67Z"/>
  <path class="cls-1" d="m5.27,43.24c-.52,0-.52.81,0,.81s.53-.81,0-.81Z"/>
  <path class="cls-1" d="m22.04,23.46c-.48,0-.48.74,0,.74s.48-.74,0-.74Z"/>
  <path class="cls-1" d="m26.33,39.66c-.31.09-.46.45-.3.73.19.32.67.33.86,0,.21-.37-.12-.85-.56-.73Z"/>
  <path class="cls-1" d="m26.92,37.79c-.48,0-.48.74,0,.74s.48-.74,0-.74Z"/>
  <path class="cls-1" d="m25.09,39.36c-.22,0-.22.35,0,.35s.22-.35,0-.35Z"/>
  <path class="cls-1" d="m32.1,44.28c-.57,0-.57.89,0,.89s.57-.89,0-.89Z"/>
  <path class="cls-1" d="m32.26,46.18c-.48,0-.48.74,0,.74s.48-.74,0-.74Z"/>
  <path class="cls-1" d="m37.9,33.09c-.45,0-.45.7,0,.7s.45-.7,0-.7Z"/>
  <path class="cls-1" d="m30.88,31.48c.43,0,.43-.67,0-.67s-.43.67,0,.67Z"/>
  <path class="cls-1" d="m34.81,36.94v.13c0,.63.98.63.98,0v-.13c0-.63-.98-.63-.98,0Z"/>
  <path class="cls-1" d="m27.99,25.79c-.62,0-.62.97,0,.97s.62-.97,0-.97Z"/>
  <path class="cls-1" d="m26.77,25.82c.4,0,.4-.62,0-.62s-.4.62,0,.62Z"/>
  <path class="cls-1" d="m22.65,25.81c.38,0,.38-.6,0-.6s-.38.6,0,.6Z"/>
  <path class="cls-1" d="m22.5,2.3c.34,0,.34-.53,0-.53s-.34.53,0,.53Z"/>
  <path class="cls-1" d="m20.52,3.47c.48,0,.48-.74,0-.74s-.48.74,0,.74Z"/>
  <path class="cls-1" d="m3.59,24.16c.43,0,.43-.66,0-.66s-.43.66,0,.66Z"/>
  <path class="cls-1" d="m2.22,21.83c.37,0,.37-.57,0-.57s-.37.57,0,.57Z"/>
  <path class="cls-1" d="m48.57,11.37c.64,0,.64-1,0-1s-.64,1,0,1Z"/>
  <path class="cls-1" d="m47.04,9.26c.47,0,.47-.73,0-.73s-.47.73,0,.73Z"/>
  <path class="cls-1" d="m46.89,5.87c.43,0,.43-.66,0-.66s-.43.66,0,.66Z"/>
  <path class="cls-1" d="m.39,35.17c-.52,0-.52.81,0,.81s.52-.81,0-.81Z"/>
  <path class="cls-1" d="m59.54,33.19c-.51,0-.51.8,0,.8s.51-.8,0-.8Z"/>
  <path class="cls-1" d="m60.31,35.54c-.44,0-.44.68,0,.68s.44-.68,0-.68Z"/>
  <path class="cls-1" d="m62.44,35.49c-.5,0-.5.78,0,.78s.5-.78,0-.78Z"/>
</svg>