<?xml version="1.0" encoding="UTF-8"?>
<svg id="_Слой_1" data-name="Слой 1" xmlns="http://www.w3.org/2000/svg" viewBox="0 0 59.33 57.36">
  <defs>
    <style>
      .cls-1 {
        fill: #39180e;
        fill-rule: evenodd;
        stroke-width: 0px;
      }
    </style>
  </defs>
  <g>
    <path class="cls-1" d="m18.03,40.23c-1.93-.78-2.95-1.77-3.83-3.68-.73-1.57-1.12-3.28-1.79-4.87-.1-.24-.48-.09-.42.16.69,2.72,2.03,9.35,6.02,8.85.25-.03.21-.37.02-.45Z"/>
    <path class="cls-1" d="m17.57,54.38s.04-.06,0-.07c-.04,0-.04.06,0,.07Z"/>
    <path class="cls-1" d="m22,53.49c-1.19-.24-2.37.41-3.52.62-.14.02-.12.25.02.24,1.16-.08,2.43-.22,3.52-.68.08-.03.07-.17-.02-.18Z"/>
    <path class="cls-1" d="m11.74,23.28c-.03.05,0,.09.04.12-.06.02-.12.06-.12.13-.02.29-.05.9.38.91.31,0,.5-.36.6-.6.11-.24.23-.63.04-.86-.27-.33-.8,0-.94.3Zm.56.39c-.05.12-.13.28-.24.36,0,0,0,0,0,0-.06-.16-.08-.35-.1-.52,0-.05-.03-.08-.06-.1.14-.03.26-.08.4-.14.04-.02.07-.02.08-.02.03.1-.04.3-.08.42Z"/>
    <path class="cls-1" d="m14.54,16.14c.28-.03.44-.38.51-.62.07-.22.14-.62-.11-.75-.26-.13-.61.12-.76.39-.09-.04-.23.02-.21.16.05.3.14.86.57.81Zm.08-.89s.07-.06.11-.08c0,.08-.02.16-.04.24-.03.12-.1.29-.2.36-.02-.01-.03-.03-.05-.04-.05-.07-.09-.16-.12-.25.11-.05.21-.14.3-.22Z"/>
    <path class="cls-1" d="m11.15,15.2c.32.03.57-.28.71-.53.14-.25.25-.6.06-.85-.26-.33-.9-.03-1.07.24,0,0,0,.02,0,.03-.07,0-.14.04-.14.12,0,.33,0,.94.46.98Zm.5-1.11s0,.05,0,.11c0,.09-.05.19-.1.27-.07.14-.2.33-.36.36-.1.02-.19-.46-.22-.61.19-.02.55-.22.68-.13Z"/>
    <path class="cls-1" d="m13.56,12.01c.12-.46-.57-.7-.83-.35-.03.05,0,.1.04.12.08.04.45.03.45.14,0,.22-.52-.11-.56-.14-.13-.1-.31.11-.18.22.27.24.93.57,1.08.01Z"/>
    <path class="cls-1" d="m18.47,30.29c.56-1.04.7-2.28.81-3.43.01-.1-.17-.14-.18-.03-.21,1.15-.6,2.28-.73,3.43,0,.05.08.08.1.03Z"/>
    <path class="cls-1" d="m19.64,27.67c-.27,1.04-.52,2.07-.81,3.11-.03.1.11.17.17.08.55-.94.68-2.05.91-3.1.04-.17-.22-.26-.26-.08Z"/>
    <path class="cls-1" d="m20.24,29.5c.02-.14-.22-.18-.24-.04-.15.77-.34,1.53-.45,2.31,0,.06.08.08.1.03.37-.71.45-1.52.58-2.3Z"/>
    <path class="cls-1" d="m20.63,28.89c0-.1-.14-.1-.15,0-.18,2.05-.42,4-.96,5.99-.02.07.08.13.12.06,1-1.81,1-4.02.99-6.04Z"/>
    <path class="cls-1" d="m21.08,36.36c.61-1.26.97-2.68.93-4.08,0-.17-.26-.18-.27-.01,0,1.41-.55,2.65-.86,4-.02.11.13.2.19.09Z"/>
    <path class="cls-1" d="m20.32,38.75c.81-.46,1.12-1.65,1.34-2.49.05-.18-.22-.26-.27-.09-.13.47-.29.94-.51,1.38-.19.38-.46.7-.68,1.06-.05.08.04.18.12.13Z"/>
    <path class="cls-1" d="m20.29,39.6c.61-.3.96-.95,1.2-1.56.07-.19-.22-.28-.3-.1-.23.6-.6,1.02-1.02,1.49-.08.09,0,.23.12.17Z"/>
    <path class="cls-1" d="m54.31,41.43c1.95-1.26,2.74-3.59,3.34-5.72,1.33-4.78,1.93-10.69,1.4-15.71.03-.02.07-.03.1-.05.19-.1.24-.29.13-.47-.7-1.13-2.14-1.54-3.49-1.72-.14-.83-1.39-1.5-2.02-.79-.1.11.04.25.16.21.33-.12.6-.17.93-.03.24.1.43.31.51.56-.28-.03-.55-.05-.8-.07-.11,0-.23-.01-.35-.02.03-.16-.19-.26-.26-.09-.01.03-.02.05-.03.08-1.46-.07-3.14.03-4.38.76-.08,0-.14.03-.19.07-.12-.11-.35-.11-.42.08-1.81,5.07-2.39,11.46-1.94,16.79.17,2,.71,4.24,2.38,5.51,1.2.92,1.83.02,1.29,2-.69,2.52-1.04,5.16-1.07,7.77-.07-.08-.22-.1-.27.03-.01.03-.01.06-.02.08-1.78-.22-3.52-.08-5.19.63-.22.09-.28.41-.08.56,2.92,2.12,8.66,2.64,12.01,1.37.24-.09.25-.4.08-.55-1.18-1.08-2.74-1.81-4.33-2.06.23-2.33.7-4.63.99-6.95.24-1.93.24-1.43,1.53-2.27Zm1.03-23.21c-.16.28-.52.5-.8.41-.2-.07-.3-.26-.34-.48.39,0,.77.03,1.14.07Zm-1.48-.07c.03.3.16.59.44.76.53.33,1.19-.13,1.42-.62,0,0,0-.02,0-.03,1.14.18,2.15.57,2.78,1.24h0s0,.04,0,.06c-2.52,1.11-5.9.51-8.28-.84.98-.33,2.31-.56,3.64-.58Zm-1.62,23.39c-.09,3.06-.66,6.04-1.06,9.06-.19.09-.24.38,0,.47,1.44.54,2.86.87,4.1,1.78-2.92.92-7.64.43-10.3-1.14,1.42-.46,2.84-.49,4.36-.38.05.08.12.16.21.22.33.2.93.23,1.24-.03.09-.08.06-.23-.07-.25-.28-.04-.86.09-1.05-.13.04-.09.04-.2,0-.28.13.16.43.15.44-.1.11-3.26.7-6.4,1.61-9.53.05-.17-.02-.37-.22-.39-4.65-.43-4.08-7.76-3.87-10.99.1-1.51.31-2.99.57-4.46,1.92.5,4.01.62,5.98.7,1.01.04,3.44.39,4.01-.75.64-1.27-2.17-1.62-3.07-1.69.03-.05.06-.11.08-.17.19-.54-.08-1.15-.62-1.37-.21-.08-.43-.06-.62.04.01-.15-.22-.24-.3-.07-.25.47-.18,1.08.08,1.54-1.79.01-3.8.24-5.39.92.34-1.84.73-3.68,1.05-5.53.06.02.12.02.18-.01.01,0,.03-.01.04-.02,2.25,1.73,6.12,2.31,8.83,1.29-.25,3.36-.08,6.74-.44,10.11-.02.15-.03.32-.05.49,0,0,0,0,0,0-.77,1.71-1.84,3.16-3.07,4.57-.05.06.03.13.09.09,1.36-.95,2.22-2.42,2.9-3.91-.42,3.59-1.44,9.38-5.35,9.66-.14,0-.28.14-.28.28Zm3.68-17.2c.53.06,2.37.75.98,1.02-2.32.45-5.39.1-7.84-.47,1.25-.32,2.57-.46,3.83-.57,1.01-.09,2.03-.09,3.04.02Zm-2.05-1.48c.11-.24.22-.5.55-.39.36.11.51.51.41.85-.03.09-.07.2-.14.3-.17,0-.34-.01-.51-.01-.03-.04-.06-.08-.08-.12-.12-.18-.2-.4-.23-.63Z"/>
    <path class="cls-1" d="m48.94,34.67c-.13-1.67.1-3.33.04-5,0-.25-.4-.24-.43,0-.3,2.68-1.33,9.12,2.44,10.02.24.06.32-.26.17-.4-1.48-1.36-2.06-2.59-2.21-4.62Z"/>
    <path class="cls-1" d="m45.93,51.89s.06-.04.02-.06c-.04-.02-.06.04-.02.06Z"/>
    <path class="cls-1" d="m46.85,51.95c-.13-.02-.19.19-.06.23,1.08.33,2.27.62,3.4.58.08,0,.12-.13.05-.17-1-.62-2.27-.43-3.38-.63Z"/>
    <path class="cls-1" d="m51.21,21.87s-.03.09,0,.12c-.06,0-.13.01-.16.08-.11.25-.35.8.04.95.27.11.57-.16.75-.33.18-.18.42-.49.32-.77-.13-.39-.73-.26-.95-.05Zm.37.54c-.09.09-.22.21-.33.25,0,0,0,0,0,0,0-.16.05-.34.09-.5.01-.04,0-.08-.02-.11.13.02.27.02.41.01.04,0,.07,0,.08.01,0,.1-.13.26-.21.35Z"/>
    <path class="cls-1" d="m55.92,15.45c-.06.29-.16.83.23.93.27.07.53-.2.67-.38.14-.17.34-.51.15-.71-.19-.21-.59-.09-.82.1-.07-.07-.21-.06-.24.07Zm.61.15s.08-.03.13-.03c-.03.07-.07.14-.12.2-.07.1-.19.23-.3.25-.01-.02-.02-.03-.03-.06-.02-.09-.03-.17-.03-.26.12-.01.23-.06.34-.1Z"/>
    <path class="cls-1" d="m53.42,14.38c.28.13.61-.06.82-.23.21-.18.43-.45.34-.74-.12-.39-.81-.33-1.05-.14,0,0-.01.02-.02.02-.06-.03-.14-.01-.17.06-.11.3-.31.84.08,1.03Zm.16-.94c.18.05.57-.02.66.11-.01-.02-.02.04-.04.1-.04.08-.11.15-.18.21-.11.1-.29.23-.45.2-.1-.02-.02-.48,0-.62Z"/>
    <path class="cls-1" d="m56.67,12.32c.27-.37-.28-.83-.63-.6-.05.03-.03.09,0,.12.06.06.39.17.36.28-.07.2-.44-.28-.46-.32-.08-.13-.31,0-.24.13.17.31.65.83.97.38Z"/>
    <path class="cls-1" d="m54.9,30.47c.86-.75,1.4-1.82,1.89-2.82.04-.09-.1-.18-.16-.09-.57.96-1.32,1.85-1.82,2.85-.02.05.04.1.08.06Z"/>
    <path class="cls-1" d="m55.19,31.15c.82-.66,1.31-1.61,1.87-2.49.09-.14-.11-.31-.21-.16-.59.85-1.17,1.7-1.78,2.53-.06.08.04.19.12.13Z"/>
    <path class="cls-1" d="m56.57,30.23c-.39.64-.83,1.27-1.18,1.93-.03.05.04.1.08.06.57-.51.92-1.22,1.3-1.87.07-.12-.13-.23-.2-.12Z"/>
    <path class="cls-1" d="m54.4,35.05c1.52-1.3,2.26-3.29,2.93-5.11.03-.09-.09-.14-.13-.06-.85,1.79-1.73,3.46-2.89,5.07-.04.06.03.14.09.09Z"/>
    <path class="cls-1" d="m55.21,36.82c.98-.93,1.78-2.09,2.22-3.36.05-.15-.18-.25-.24-.1-.48,1.27-1.4,2.2-2.13,3.32-.06.09.05.23.14.14Z"/>
    <path class="cls-1" d="m53.71,38.72c.89-.14,1.57-1.11,2.05-1.79.1-.14-.11-.31-.21-.17-.28.38-.58.75-.92,1.07-.3.28-.66.47-.97.73-.07.05-.03.17.06.16Z"/>
    <path class="cls-1" d="m54.77,38.28c-.41.46-.89.71-1.43,1-.1.05-.07.21.05.19.65-.07,1.19-.53,1.61-1,.13-.14-.11-.33-.24-.19Z"/>
    <path class="cls-1" d="m40.77,32.11c-1.25-4.15-2.99-8.15-4.5-12.2-1.64-4.41-1.69-9.05-1.68-13.68.32-.15.59-.34.79-.58.7-.83-.1-2.83-1.11-2.55-.09-.67-.1-1.35-.11-2.03.03-.1.05-.22.04-.35-.06-1.31-3.54-.49-4.23-.31-.21.05-.19.39.04.39,1.13-.02,2.28-.42,3.41-.19.43.09.24.38-.06.53-.4.2-.95.14-1.38.11-.75-.05-1.6-.2-2.27-.55-.22-.11-.42.12-.33.3-.04.49-.07.98-.1,1.47-.03.62-.07.53-.49.83-.56.41-.83.91-.91,1.59-.15,1.16.93,1.77,1.99,1.99,1.39,4.27.02,8.55-.98,12.77-.99,4.19-2.63,8.18-3.31,12.44-.73,4.56-.75,9.26-.7,13.87.02,1.46.02,3.19.17,4.9-.76-.04-1.52.01-2.25.16-.63-2.35-1.01-4.76-1.58-7.12-.47-1.96-.29-1.47.66-2.76,1.43-1.93,1.36-4.49,1.15-6.78-.45-5.14-2.02-11.1-4.38-15.78.03-.03.05-.05.08-.08.15-.16.13-.37-.04-.51-1.1-.85-2.64-.71-4.02-.4-.44-.76-1.9-.95-2.26-.03-.05.14.13.23.23.15.28-.24.52-.39.9-.36.27.01.53.15.7.35-.28.07-.55.15-.8.22-.11.03-.23.07-.35.11-.03-.17-.27-.18-.28,0,0,.03,0,.06,0,.08-1.44.47-3.03,1.17-3.97,2.34-.08.02-.12.07-.15.14-.16-.06-.38.02-.38.23.09,5.59,1.87,12.01,4.25,17.02.89,1.88,2.24,3.86,4.33,4.49,1.5.45,1.79-.64,1.98,1.48.25,2.7.88,5.39,1.79,7.94-.1-.05-.25-.02-.25.13,0,.03,0,.06,0,.09-1.81.43-3.45,1.21-4.81,2.5-.18.17-.13.51.13.58,2.76.76,6.76.01,9.74-1.47.16.65.34,1.27.6,1.83-.18,0-.35.25-.19.4,2.03,1.77,4.97,1.58,7.51,1.44,3.07-.18,6.71.09,9.33-1.78.1-.07,0-.26-.12-.22-.14.05-.27.09-.4.13,2.22-7.24.71-16.22-1.43-23.29Zm-5.86-15.05c.2.92.46,1.83.75,2.74-1.71-1.18-3.57-2.04-5.15-3.42.11-.49.2-.98.28-1.46.43.44.9.82,1.43,1.17.69.47,1.45,1.01,2.22,1.34.08.04.14-.08.09-.14-.45-.52-1.12-.84-1.71-1.19-.71-.42-1.4-.87-1.99-1.44.08-.52.14-1.03.19-1.54.86.85,1.84,1.84,2.98,2.21.08.03.15-.08.09-.14-.46-.4-1-.71-1.49-1.07-.54-.4-1.05-.85-1.55-1.31.03-.32.04-.64.05-.95.74.86,1.72,1.7,2.76,1.99.07.02.14-.07.08-.12-.43-.4-.97-.67-1.44-1-.51-.36-.97-.78-1.39-1.25,0-.13,0-.27-.01-.4.84.92,1.97,1.8,3.1,2.06.05.01.09-.02.11-.06.13,1.33.34,2.65.62,3.97ZM30.47,1.49c-.09.01-.17.07-.16.18.04.49-.04,1.28.23,1.77-.12-.05-.24-.11-.33-.18.05-.23,0-.5-.01-.72-.01-.39-.05-.78-.11-1.16.12.04.25.08.39.12Zm-.08,5.49c.22.02.44.03.63.01.21-.01.28-.29.07-.37-.3-.11-.62-.16-.93-.22-.06-.07-.16-.08-.25-.04-.1-.02-.2-.04-.3-.06-1.53-.36-1.55-2.36-.05-2.76.06-.02.1-.05.14-.1.25.32.66.53,1.15.61.73.13,2.21.1,2.68-.6.11-.16-.05-.32-.21-.3-.29.03-.56.19-.84.27-.36.1-.73.14-1.1.15-.12,0-.24,0-.36-.02.02-.29-.11-.57-.16-.86-.06-.35-.1-.71-.15-1.07,0-.04-.03-.07-.06-.1,1.02.28,2.39.47,3.1.07-.03.65,0,1.29.1,1.94.03.19.28.24.41.13.45-.38.88.61.94.89.22.95-.96,1.34-1.67,1.45-.77.12-1.6.03-2.34-.16-.4-.1-.78-.3-1.05-.62.03-.01.07-.03.13-.05.21-.08.09-.35-.09-.38-.31-.05-.36-.1-.6.1-.09.08-.1.21-.05.31.65,1.38,3.03,1.74,4.65,1.2,0,.02,0,.05,0,.07-.38,0-.73.22-1.1.3-.48.1-.99.06-1.46-.05-.26-.06-.39.32-.13.4.51.15,1.01.2,1.54.15.36-.04.85-.14,1.13-.41-.1,2.07-.06,4.13.15,6.17,0,0,0-.01-.01-.02-.49-.43-1.11-.7-1.66-1.05-.55-.36-1.08-.77-1.55-1.23,0-.11-.02-.21-.02-.32.4.37.79.75,1.22,1.1.43.35,1.1.83,1.68.71.08-.02.09-.12.03-.16-.5-.31-1.05-.47-1.54-.82-.5-.35-.96-.75-1.42-1.15-.01-.18-.04-.36-.06-.53.83.6,1.89,1.51,2.9,1.5.08,0,.1-.09.04-.14-.45-.35-1.03-.52-1.53-.8-.5-.28-.98-.59-1.46-.9-.04-.31-.11-.61-.17-.91.44.47.92.9,1.47,1.24.38.23,1.03.53,1.44.24.06-.04.02-.13-.03-.15-.15-.06-.28-.06-.44-.08-.34-.04-.66-.2-.95-.36-.53-.29-.99-.7-1.41-1.13-.04-.04-.09-.04-.14-.01-.09-.36-.19-.72-.32-1.08Zm-1.37,14.78c.58.49,1.42,1.2,2.13,1.01.12-.03.14-.18.04-.25-.31-.23-.72-.31-1.06-.5-.35-.19-.67-.43-1-.66.33-1.03.64-2.07.92-3.12,0,.02,0,.03.01.05,1.09,1.31,2.57,2.52,4.2,3.1.1.04.16-.11.08-.17-1.42-1.02-2.92-1.76-4.12-3.07-.04-.05-.1-.04-.14,0,.07-.28.14-.56.21-.84,1.2,1.23,2.66,2.21,4.19,2.95.13.06.24-.1.12-.19-1.39-1.06-2.95-1.85-4.25-3.02.04-.15.06-.3.1-.46,1.52,1.42,3.33,2.76,5.29,3.48.22.66.45,1.32.69,1.97-.03,0-.05,0-.08,0-2.42,1.21-5.01.9-7.61.51.09-.27.18-.54.26-.82Zm-2,6.29c.43-1.56,1.01-3.27,1.59-5.05,1.5.33,3.05.48,4.59.44,1.07-.02,2.66-.14,3.36-1.07.86,2.25,1.83,4.46,2.64,6.68-.06-.04-.13-.06-.21-.03-4.02,1.55-8.25,2.13-12.51,1.27.16-.75.33-1.5.53-2.24Zm-.62,2.69c4.04.98,9.11.65,12.79-1.34.05-.03.08-.07.1-.11.1.28.2.57.3.85-.07-.06-.16-.08-.25,0-3.22,2.84-9.14,2.38-13.08,1.38.05-.26.09-.51.14-.77Zm-11.98-12.51c-.05.33-.33.68-.63.69-.22,0-.39-.15-.51-.34.38-.14.76-.26,1.14-.35Zm-1.47.48c.14.28.37.51.7.58.63.13,1.11-.56,1.16-1.12,0-.01,0-.02,0-.03,1.17-.24,2.3-.23,3.15.2h0s.01.04.02.06c-2.05,2-5.55,2.65-8.35,2.21.83-.68,2.04-1.39,3.32-1.9Zm3.62,35.86c1.21-.97,2.58-1.51,4.1-1.96.08.06.17.11.29.13.4.07.99-.11,1.19-.48.06-.11-.03-.25-.16-.22-.28.06-.81.4-1.07.26,0-.1-.03-.2-.11-.27.18.11.47,0,.39-.26-1.08-3.21-1.66-6.48-1.91-9.85-.01-.18-.16-.35-.36-.29-4.68,1.28-6.8-6.05-7.78-9.27-.46-1.5-.79-3.02-1.08-4.54,2.05-.21,4.13-.86,6.07-1.5,1-.33,3.48-.88,3.62-2.2.16-1.47-2.7-.78-3.6-.52,0-.06.01-.13.01-.19-.01-.6-.5-1.09-1.1-1.1-.23,0-.44.1-.59.26-.04-.16-.29-.15-.32.04-.07.54.22,1.11.64,1.47-1.73.67-3.61,1.62-4.9,2.87-.34-1.92-.63-3.84-1-5.76.06,0,.12-.02.17-.08.01-.01.02-.02.04-.03,2.82.86,6.79,0,9.05-1.97.99,3.35,2.38,6.58,3.26,9.98.04.15.08.32.13.49,0,0,0,0,0,0-.12,1.95-.64,3.74-1.32,5.56-.03.07.08.12.12.06.97-1.42,1.28-3.16,1.39-4.86.9,3.65,2.02,9.64-1.67,11.34-.13.06-.22.24-.17.38,1.02,3,1.56,6.11,2.28,9.19-.15.15-.09.46.17.46,1.6,0,3.1-.2,4.63.23-2.51,1.96-7.27,3.21-10.42,2.65Zm.64-30.59c.53-.13,2.57-.13,1.32.63-2.09,1.29-5.2,2.07-7.79,2.41,1.09-.77,2.33-1.39,3.51-1.95.95-.45,1.94-.83,2.96-1.09Zm-2.53-.69c.02-.28.03-.57.39-.58.39-.02.68.31.71.68,0,.1,0,.22-.02.34-.17.06-.33.11-.51.17-.05-.03-.09-.06-.12-.08-.18-.13-.34-.32-.45-.53Zm26.99,32.22s0,.06,0,.08c-2.41.74-4.77,1-7.34,1.11-2.48.11-5.44.53-7.63-.87.05-.07.07-.16.02-.26-.36-.69-.54-1.46-.65-2.27.51-.28.98-.59,1.4-.91,0,0,0,.02.02.03.41.32.82.63,1.26.9.33.2.76.45,1.16.42.1,0,.14-.12.06-.19-.34-.27-.8-.4-1.18-.62-.38-.22-.74-.47-1.09-.73.07-.06.15-.12.22-.18.2-.18.1-.48-.13-.57-.63-.25-1.3-.42-1.98-.51-.03-.3-.07-.59-.12-.87-.44-2.44-.3-5.05-.28-7.52.02-3.57.2-7.18.81-10.71,3.95,1.22,10.17,1.41,13.4-1.44.03-.03.05-.06.05-.09,2.66,7.71,4.51,17.37,2.02,25.19Z"/>
    <path class="cls-1" d="m40.97,46.28c-1.72,3.14-7.79,2.31-10.75,2.06-.73-.06-1.45-.15-2.18-.25-1.34-.18-.98-2.01-1-2.98-.01-.57-.04-1.14-.06-1.71.16,1.24.32,2.48.53,3.75.02.11.13.19.24.2,3.66.31,10.6,2.2,13.24-1.41.09-.12-.02-.26-.14-.28,1.01-3.06-.65-6.72-1.39-9.7.02-.01.05-.02.07-.04.16-.08.06-.33-.11-.3-.03,0-.06.01-.08.02-.07-.05-.16-.02-.21.05-4.17.92-7.78,2.55-12.16,1.26-.26-.08-.38.3-.13.4,3.67,1.45,8.78.49,12.3-1.24.46,3.38,1.78,6.36,1.24,9.85-2.67,2.09-6.54,1.52-9.71,1.18-.63-.07-1.25-.14-1.88-.21-1.16-.13-1.11-1.63-1.34-2.59-.55-2.34-.37-4.77-.79-7.14-.04-.26-.42-.16-.39.09.02.14.03.28.05.43-.05-.24-.1-.48-.15-.72-.03-.12-.23-.11-.22.02.34,3.7.74,7.35.72,11.07,0,.08.05.18.14.19,3.38.63,12.6,2.3,14.47-1.86.08-.19-.23-.33-.33-.15Z"/>
    <path class="cls-1" d="m38.01,37.27c-3.12.76-6.52,2.81-9.71,1.04-.2-.11-.38.17-.19.3,2.61,1.84,7.55.54,9.99-1.1.12-.08.06-.28-.09-.24Z"/>
    <path class="cls-1" d="m36.2,41.27c-.09-.5-.44-.98-.99-.77-.59.22-1.02,1.01-1.24,1.59-.01,0-.02.01-.04.02-.46-.41-1.11-.95-1.71-1.02-.64-.07-1,.47-.97,1.07.03.7.62,1.35,1.05,1.85.51.59,1.11,1.12,1.6,1.73.16.2.51-.04.37-.27-.04-.07-.1-.12-.14-.19.41-.71.93-1.34,1.37-2.03.34-.53.83-1.31.7-1.98Zm-4.01,1.89c-.19-.25-.77-1.42-.29-1.59.12.53.24,1.07.38,1.6.01.04.02.08.03.12-.04-.05-.08-.09-.12-.13Zm.99-.7c.04.15.07.31.1.47-.09-.26-.19-.52-.28-.78-.07-.2-.4-.14-.33.08.15.51.27,1.03.4,1.54.04.14.06.29.09.43-.06-.06-.12-.12-.18-.18-.04-.32-.16-.65-.25-.96-.14-.5-.3-.99-.47-1.47.41.12.73.41,1.08.66-.1,0-.2.08-.17.21Zm.97,1.9c-.22-.65-.42-1.32-.63-1.98,0,0,0-.01,0-.02.1.06.19.13.3.17.02,0,.04,0,.06,0,.04.25.08.49.16.73.07.24.13.48.37.59.03.01.07,0,.1,0-.12.17-.24.33-.35.5Zm.45-.64c.04-.21-.08-.4-.16-.59-.1-.25-.19-.5-.26-.75.02,0,.03-.02.04-.03.11-.17.22-.34.33-.51.04.32.02.69.2.95.09.13.29.1.3-.07.04-.34-.04-.77-.13-1.1-.02-.07-.07-.11-.12-.13.11-.15.22-.29.35-.41.43-.05.62.08.59.4,0,.14-.03.27-.08.4-.08.28-.23.54-.37.8-.21.38-.45.73-.7,1.07Z"/>
    <path class="cls-1" d="m39.76,54.39c-1.77.05-3.64.75-5.4,1.03-1.55.25-6.61,1.31-7.45-.75-.09-.22-.46-.08-.39.15.59,1.89,3.67,1.53,5.14,1.44,2.43-.15,6.01-.32,8.18-1.55.14-.08.1-.32-.07-.31Z"/>
    <path class="cls-1" d="m32.43,22.7c-.8-.58-1.72-.93-2.48-1.58-.16-.14-.4.07-.24.22.71.68,1.65,1.44,2.66,1.56.12.01.14-.14.06-.2Z"/>
    <path class="cls-1" d="m32.98,22.59c.09.03.16-.08.1-.15-.44-.46-1.04-.78-1.54-1.17-.61-.47-1.17-.99-1.65-1.59-.11-.13-.29.04-.19.17.79,1.07,2.01,2.29,3.29,2.73Z"/>
    <path class="cls-1" d="m34.14,22.4c.07.02.1-.07.05-.1-1.22-.99-2.53-1.81-3.67-2.91-.13-.13-.35.06-.21.2,1.11,1.09,2.34,2.28,3.83,2.81Z"/>
    <path class="cls-1" d="m31.05,15.85c-.15-.11-.29.13-.15.24,1.23.95,2.65,2.29,4.21,2.64.11.03.18-.11.08-.18-.66-.49-1.43-.84-2.12-1.28-.69-.44-1.36-.93-2.02-1.42Z"/>
    <path class="cls-1" d="m31.09,14.26c1,.87,2.13,1.87,3.38,2.36.09.04.18-.1.11-.17-1.03-.88-2.32-1.45-3.38-2.32-.07-.06-.17.06-.1.12Z"/>
    <path class="cls-1" d="m32.79,8.96c.33.09.84.09,1.05-.23.04-.06,0-.15-.08-.15-.35,0-.63.13-.99.06-.4-.09-.73-.33-.99-.64-.09-.11-.25.04-.16.15.3.39.7.67,1.17.81Z"/>
    <path class="cls-1" d="m33.95,8.12c.05-.05.02-.12-.03-.14-.2-.09-.43-.04-.64-.04-.28,0-.54-.09-.77-.25-.13-.09-.25.11-.13.2.37.29,1.16.58,1.57.23Z"/>
    <path class="cls-1" d="m30.33,33.44c.08-.04.08-.19-.02-.21-.4-.08-.82-.02-1.23-.04-.63-.03-1.28-.22-1.84-.5-.14-.07-.27.12-.13.21.83.56,2.26,1.03,3.22.54Z"/>
    <path class="cls-1" d="m29.38,34.1s.04-.12-.01-.15c-.21-.1-.43-.07-.67-.09-.38-.03-.74-.14-1.07-.33-.15-.09-.29.13-.15.23.46.31,1.39.73,1.89.34Z"/>
    <path class="cls-1" d="m29.44,34.85c.06-.03.07-.13,0-.16-.22-.12-.46-.13-.71-.16-.36-.05-.72-.13-1.06-.26-.13-.05-.24.16-.11.23.51.24,1.31.6,1.87.36Z"/>
    <path class="cls-1" d="m29.33,54.65c.07,0,.15-.1.08-.17-.26-.23-.6-.33-.9-.5-.41-.23-.8-.49-1.11-.85-.1-.12-.26.04-.18.16.44.6,1.31,1.4,2.11,1.35Z"/>
    <path class="cls-1" d="m30.71,52.75c-.67-.52-1.41-.94-2.08-1.46-.75-.59-1.42-1.3-2-2.06-.12-.16-.34.05-.22.21,1.02,1.4,2.52,2.95,4.22,3.49.12.04.17-.11.08-.18Z"/>
    <path class="cls-1" d="m29.47,50.82c-.11-.14-.3.05-.2.19.62.86,1.81,1.89,2.94,1.9.11,0,.14-.13.06-.19-.41-.3-.95-.44-1.4-.69-.55-.3-1.02-.71-1.4-1.2Z"/>
    <path class="cls-1" d="m33.23,52.32c-.59-.34-1.23-.6-1.83-.93-.15-.08-.3.14-.15.23.59.33,1.21.76,1.88.9.12.02.22-.14.1-.21Z"/>
  </g>
  <path class="cls-1" d="m42.87,20.02c-.39-.02-.42.59-.02.61.39.02.42-.59.02-.61Z"/>
  <path class="cls-1" d="m43.22,21.8c-.53-.02-.57.81-.03.83.53.02.57-.81.03-.83Z"/>
  <path class="cls-1" d="m44.73,20.43c-.76-.03-.81,1.15-.05,1.18.76.03.81-1.16.05-1.18Z"/>
  <path class="cls-1" d="m45.67,17.74c-.78-.03-.83,1.18-.05,1.21.78.03.83-1.18.05-1.21Z"/>
  <path class="cls-1" d="m43.66,15.85c-.44-.02-.47.66-.03.68.44.02.47-.66.03-.68Z"/>
  <path class="cls-1" d="m41.58,15.69c-.54-.02-.57.81-.03.83.54.02.57-.81.03-.83Z"/>
  <path class="cls-1" d="m40.37,9.63c-.76-.03-.81,1.15-.05,1.18.76.03.81-1.15.05-1.18Z"/>
  <path class="cls-1" d="m42.68,9.13c-.45-.02-.48.68-.03.7.45.02.48-.68.03-.7Z"/>
  <path class="cls-1" d="m48.28,14.91c-.54-.02-.58.82-.03.84.54.02.58-.82.03-.84Z"/>
  <path class="cls-1" d="m23.39,17.43c-.59-.02-.63.89-.04.91.59.02.63-.89.04-.91Z"/>
  <path class="cls-1" d="m22.64,20.42c-.45-.02-.48.68-.03.7.45.02.48-.68.03-.7Z"/>
  <path class="cls-1" d="m20.65,18.18c-.63-.03-.8.72-.47,1.08-.58.19-.55,1.18.17,1.21.62.02.78-.7.47-1.05.6-.18.57-1.21-.17-1.24Z"/>
  <path class="cls-1" d="m21.37,15.74c-.78-.03-.83,1.18-.05,1.21.78.03.83-1.18.05-1.21Z"/>
  <path class="cls-1" d="m22.03,14.86c-.34-.01-.36.51-.02.53.34.01.36-.51.02-.53Z"/>
  <path class="cls-1" d="m18.18,12.1c-.74-.03-.79,1.12-.05,1.15.74.03.79-1.12.05-1.15Z"/>
  <path class="cls-1" d="m16.82,14.89s-.03.04,0,.05c.03,0,.03-.04,0-.05Z"/>
  <path class="cls-1" d="m17.02,9.72c-.26,0-.28.39-.02.4.26.01.27-.39.02-.4Z"/>
  <path class="cls-1" d="m15.94,5.46c-.32-.01-.34.48-.02.49.32.01.34-.48.02-.49Z"/>
  <path class="cls-1" d="m16.18,9.88c-.27-.01-.29.41-.02.42.27.01.29-.41.02-.42Z"/>
  <path class="cls-1" d="m15.06,11.95c-.5-.02-.54.76-.03.78.5.02.54-.76.03-.78Z"/>
  <path class="cls-1" d="m16.53,11.69c-.38-.01-.4.57-.02.59.38.02.4-.57.02-.59Z"/>
  <path class="cls-1" d="m19.76,8.98c-.54-.02-.58.82-.03.84.54.02.58-.82.03-.84Z"/>
  <path class="cls-1" d="m20.86,7.55s-.03.04,0,.05c.03,0,.03-.05,0-.05Z"/>
  <path class="cls-1" d="m50.27,12.17c-.68-.03-.73,1.03-.04,1.06.68.03.73-1.03.04-1.06Z"/>
  <path class="cls-1" d="m52.49,14.05s-.07,0-.11,0c-.09-.05-.18-.08-.31-.08-.15,0-.14,0-.29-.05-.72-.27-1.14.76-.55,1.18.24.17.51.21.79.23.12,0,.23-.02.32-.06.03,0,.07.01.1.01.79.03.84-1.2.05-1.23Z"/>
  <path class="cls-1" d="m52.36,11.99c-.75-.03-.8,1.14-.05,1.17.75.03.8-1.14.05-1.17Z"/>
  <path class="cls-1" d="m53.46,10.49c-.6-.02-.64.91-.04.93.6.02.64-.9.04-.93Z"/>
  <path class="cls-1" d="m51.36,5.57c-.38-.02-.4.57-.02.58.38.02.4-.57.02-.58Z"/>
  <path class="cls-1" d="m48.57,7.71c-.7-.03-.75,1.06-.04,1.09.7.03.75-1.06.04-1.09Z"/>
  <path class="cls-1" d="m4.4,23.21c-.49-.02-.52.74-.03.76.49.02.52-.74.03-.76Z"/>
  <path class="cls-1" d="m.39,24.5c-.5-.02-.53.76-.03.78.5.02.53-.76.03-.78Z"/>
  <path class="cls-1" d="m3.78,17.94c-.8-.03-.85,1.21-.05,1.24.8.03.85-1.2.05-1.24Z"/>
  <path class="cls-1" d="m6.34,26.99c-.81-.03-.86,1.23-.05,1.26.81.03.86-1.23.05-1.26Z"/>
</svg>